<?xml version="1.0" encoding="UTF-8"?>
<svg id="Layer_1" data-name="Layer 1" xmlns="http://www.w3.org/2000/svg" viewBox="0 0 76.96 45.81">
  <defs>
    <style>
      .cls-1 {
        fill: none;
        stroke: #000;
        stroke-linecap: round;
        stroke-linejoin: round;
        stroke-width: .51px;
      }
    </style>
  </defs>
  <polyline class="cls-1" points="17.25 34.24 39.91 34.24 39.91 11.59 17.25 11.59 17.25 34.24"/>
  <polyline class="cls-1" points="62.55 34.24 39.91 34.24 39.91 11.59 62.55 11.59 62.55 34.24"/>
  <line class="cls-1" x1="51.23" y1="11.59" x2="51.23" y2=".25"/>
  <line class="cls-1" x1="51.23" y1="34.24" x2="51.23" y2="45.56"/>
  <line class="cls-1" x1="28.57" y1="22.91" x2="28.57" y2="28.59"/>
  <polyline points="30.07 28.59 27.06 28.56 28.57 34.24 30.07 28.59"/>
  <line class="cls-1" x1="28.57" y1="22.91" x2="28.57" y2="17.24"/>
  <polyline points="27.06 17.26 30.07 17.24 28.57 11.59 27.06 17.26"/>
  <polyline class="cls-1" points="62.55 28.59 63.72 22.91 66.08 34.24 68.46 22.91 70.8 34.24 73.15 22.91 75.52 34.24 76.71 28.59"/>
  <line class="cls-1" x1="11.58" y1="22.91" x2="5.93" y2="34.24"/>
  <polyline class="cls-1" points="17.25 22.91 .25 22.91 .25 34.24 17.25 34.24 17.25 22.91"/>
  <line class="cls-1" x1="51.23" y1="34.24" x2="51.23" y2="28.59"/>
  <line class="cls-1" x1="48.37" y1="28.59" x2="54.05" y2="28.56"/>
  <line class="cls-1" x1="51.23" y1="11.59" x2="51.23" y2="17.24"/>
  <line class="cls-1" x1="54.05" y1="17.26" x2="48.37" y2="17.24"/>
</svg>