<?xml version="1.0" encoding="UTF-8"?>
<svg id="Layer_1" data-name="Layer 1" xmlns="http://www.w3.org/2000/svg" viewBox="0 0 76.96 45.81">
  <defs>
    <style>
      .cls-1 {
        fill: none;
        stroke: #000;
        stroke-linecap: round;
        stroke-linejoin: round;
        stroke-width: .51px;
      }
    </style>
  </defs>
  <polyline class="cls-1" points="17.25 34.24 39.91 34.24 39.91 11.59 17.25 11.59 17.25 34.24"/>
  <polyline class="cls-1" points="39.91 11.59 62.55 11.59 62.55 34.24 39.91 34.24 39.91 11.59"/>
  <line class="cls-1" x1="22.9" y1="11.59" x2="31.71" y2="29.16"/>
  <polyline points="33.05 28.49 30.35 29.86 34.23 34.24 33.05 28.49"/>
  <line class="cls-1" x1="45.55" y1="34.24" x2="45.55" y2="45.56"/>
  <line class="cls-1" x1="56.87" y1="34.24" x2="56.87" y2="45.56"/>
  <line class="cls-1" x1="45.55" y1="11.59" x2="45.55" y2=".25"/>
  <polyline class="cls-1" points="62.55 28.59 63.72 22.91 66.08 34.24 68.46 22.91 70.8 34.24 73.15 22.91 75.52 34.24 76.71 28.59"/>
  <line class="cls-1" x1="45.55" y1="34.24" x2="45.55" y2="17.24"/>
  <polyline points="44.02 17.26 47.07 17.24 45.55 11.59 44.02 17.26"/>
  <line class="cls-1" x1="11.58" y1="22.91" x2="5.93" y2="34.24"/>
  <polyline class="cls-1" points="17.25 22.91 .25 22.91 .25 34.24 17.25 34.24 17.25 22.91"/>
  <polyline class="cls-1" points="25.02 29.31 25 29.04 24.96 28.76 24.88 28.51 24.75 28.26 24.57 28.01 24.4 27.81 24.21 27.64 23.98 27.46 23.73 27.36 23.46 27.26 23.17 27.21 22.9 27.19 22.63 27.21 22.35 27.26 22.1 27.36 21.85 27.46 21.6 27.64 21.4 27.81 21.23 28.01 21.07 28.26 20.96 28.51 20.85 28.76 20.81 29.04 20.77 29.31 20.81 29.59 20.85 29.86 20.96 30.14 21.07 30.36 21.23 30.61 21.4 30.81 21.6 30.99 21.85 31.16 22.1 31.26 22.35 31.36 22.63 31.41 22.9 31.44 23.17 31.41 23.46 31.36 23.73 31.26 23.98 31.16 24.21 30.99 24.4 30.81 24.57 30.61 24.75 30.36 24.88 30.14 24.96 29.86 25 29.59 25.02 29.31"/>
  <line class="cls-1" x1="22.9" y1="31.44" x2="22.9" y2="31.96"/>
  <polyline class="cls-1" points="27.15 30.56 22.9 26.31 18.65 30.56"/>
  <line class="cls-1" x1="22.9" y1="31.96" x2="22.9" y2="34.24"/>
  <polyline class="cls-1" points="59 28.44 58.98 28.16 58.93 27.89 58.86 27.61 58.73 27.36 58.57 27.14 58.37 26.94 58.18 26.74 57.96 26.59 57.71 26.46 57.43 26.39 57.16 26.34 56.87 26.31 56.61 26.34 56.32 26.39 56.07 26.46 55.82 26.59 55.57 26.74 55.37 26.94 55.21 27.14 55.05 27.36 54.93 27.61 54.82 27.89 54.77 28.16 54.75 28.44 54.77 28.71 54.82 28.99 54.93 29.24 55.05 29.49 55.21 29.74 55.37 29.94 55.57 30.11 55.82 30.26 56.07 30.39 56.32 30.49 56.61 30.54 56.87 30.56 57.16 30.54 57.43 30.49 57.71 30.39 57.96 30.26 58.18 30.11 58.37 29.94 58.57 29.74 58.73 29.49 58.86 29.24 58.93 28.99 58.98 28.71 59 28.44"/>
  <line class="cls-1" x1="56.87" y1="31.44" x2="56.87" y2="31.96"/>
  <polyline class="cls-1" points="61.12 27.19 56.87 31.44 52.62 27.19"/>
  <line class="cls-1" x1="56.87" y1="31.96" x2="56.87" y2="34.24"/>
</svg>