<?xml version="1.0" encoding="UTF-8"?>
<svg id="Layer_1" data-name="Layer 1" xmlns="http://www.w3.org/2000/svg" viewBox="0 0 76.96 45.81">
  <defs>
    <style>
      .cls-1 {
        fill: none;
        stroke: #000;
        stroke-linecap: round;
        stroke-linejoin: round;
        stroke-width: .51px;
      }
    </style>
  </defs>
  <polyline class="cls-1" points="17.25 34.24 39.91 34.24 39.91 11.59 17.25 11.59 17.25 34.24"/>
  <polyline class="cls-1" points="39.91 11.59 62.55 11.59 62.55 34.24 39.91 34.24 39.91 11.59"/>
  <line class="cls-1" x1="22.9" y1="34.24" x2="31.71" y2="16.66"/>
  <polyline points="30.35 15.96 33.05 17.34 34.23 11.59 30.35 15.96"/>
  <line class="cls-1" x1="22.9" y1="11.59" x2="31.71" y2="29.16"/>
  <polyline points="33.05 28.49 30.35 29.86 34.23 34.24 33.05 28.49"/>
  <line class="cls-1" x1="45.55" y1="34.24" x2="45.55" y2="45.56"/>
  <line class="cls-1" x1="56.87" y1="34.24" x2="56.87" y2="45.56"/>
  <line class="cls-1" x1="45.55" y1="11.59" x2="45.55" y2=".25"/>
  <line class="cls-1" x1="56.87" y1="11.59" x2="56.87" y2=".25"/>
  <polyline class="cls-1" points="62.55 28.59 63.72 22.91 66.08 34.24 68.46 22.91 70.8 34.24 73.15 22.91 75.52 34.24 76.71 28.59"/>
  <line class="cls-1" x1="45.55" y1="34.24" x2="45.55" y2="17.24"/>
  <polyline points="44.02 17.26 47.07 17.24 45.55 11.59 44.02 17.26"/>
  <line class="cls-1" x1="56.87" y1="11.59" x2="56.87" y2="28.56"/>
  <polyline points="58.41 28.59 55.36 28.56 56.87 34.24 58.41 28.59"/>
  <line class="cls-1" x1="11.58" y1="22.91" x2="5.93" y2="34.24"/>
  <polyline class="cls-1" points="17.25 22.91 .25 22.91 .25 34.24 17.25 34.24 17.25 22.91"/>
</svg>