<?xml version="1.0" encoding="UTF-8"?>
<svg id="Layer_1" data-name="Layer 1" xmlns="http://www.w3.org/2000/svg" viewBox="0 0 79.79 45.81">
  <defs>
    <style>
      .cls-1 {
        fill: none;
        stroke: #000;
        stroke-linecap: round;
        stroke-linejoin: round;
        stroke-width: .51px;
      }
    </style>
  </defs>
  <polyline class="cls-1" points="17.25 34.24 39.91 34.24 39.91 11.59 17.25 11.59 17.25 34.24"/>
  <polyline class="cls-1" points="39.91 11.59 62.55 11.59 62.55 34.24 39.91 34.24 39.91 11.59"/>
  <line class="cls-1" x1="22.91" y1="34.24" x2="31.7" y2="16.66"/>
  <polyline points="30.33 15.96 33.05 17.34 34.23 11.59 30.33 15.96"/>
  <line class="cls-1" x1="22.91" y1="11.59" x2="31.7" y2="29.16"/>
  <polyline points="33.05 28.49 30.33 29.86 34.23 34.24 33.05 28.49"/>
  <line class="cls-1" x1="45.55" y1="34.24" x2="45.55" y2="45.56"/>
  <line class="cls-1" x1="56.89" y1="34.24" x2="56.89" y2="45.56"/>
  <line class="cls-1" x1="45.55" y1="11.59" x2="45.55" y2=".25"/>
  <line class="cls-1" x1="56.89" y1="11.59" x2="56.89" y2=".25"/>
  <line class="cls-1" x1="45.55" y1="34.24" x2="45.55" y2="17.24"/>
  <polyline points="44.04 17.26 47.09 17.24 45.55 11.59 44.04 17.26"/>
  <line class="cls-1" x1="56.89" y1="11.59" x2="56.89" y2="28.59"/>
  <polyline points="58.41 28.59 55.36 28.56 56.89 34.24 58.41 28.59"/>
  <line class="cls-1" x1="11.59" y1="22.91" x2="5.9" y2="34.24"/>
  <polyline class="cls-1" points="17.25 22.91 .25 22.91 .25 34.24 17.25 34.24 17.25 22.91"/>
  <line class="cls-1" x1="68.2" y1="22.91" x2="73.89" y2="34.24"/>
  <polyline class="cls-1" points="79.54 22.91 62.55 22.91 62.55 34.24 79.54 34.24 79.54 22.91"/>
  <line class="cls-1" x1="62.55" y1="11.59" x2="65.65" y2="11.59"/>
  <line class="cls-1" x1="65.65" y1="11.59" x2="67.64" y2="15.26"/>
  <line class="cls-1" x1="69.64" y1="11.59" x2="67.64" y2="15.26"/>
  <line class="cls-1" x1="69.64" y1="11.59" x2="72.45" y2="11.59"/>
  <line class="cls-1" x1="72.45" y1="11.59" x2="74.44" y2="15.26"/>
  <line class="cls-1" x1="76.4" y1="11.59" x2="74.44" y2="15.26"/>
  <line class="cls-1" x1="76.4" y1="11.59" x2="79.54" y2="11.59"/>
  <line class="cls-1" x1="62.55" y1="22.91" x2="79.54" y2="22.91"/>
  <line class="cls-1" x1="62.55" y1="22.91" x2="62.55" y2="11.59"/>
  <line class="cls-1" x1="79.54" y1="11.59" x2="79.54" y2="22.91"/>
  <line class="cls-1" x1="74.44" y1="8.75" x2="74.44" y2="3.09"/>
</svg>