<?xml version="1.0" encoding="UTF-8"?>
<svg id="Layer_1" data-name="Layer 1" xmlns="http://www.w3.org/2000/svg" viewBox="0 0 136.41 45.81">
  <defs>
    <style>
      .cls-1 {
        fill: none;
        stroke: #000;
        stroke-linecap: round;
        stroke-linejoin: round;
        stroke-width: .51px;
      }
    </style>
  </defs>
  <polyline class="cls-1" points="34.22 34.24 56.88 34.24 56.88 11.59 34.22 11.59 34.22 34.24"/>
  <polyline class="cls-1" points="56.88 11.59 79.52 11.59 79.52 34.24 56.88 34.24 56.88 11.59"/>
  <line class="cls-1" x1="85.17" y1="34.24" x2="85.17" y2="17.26"/>
  <polyline points="83.67 17.26 86.7 17.24 85.17 11.59 83.67 17.26"/>
  <line class="cls-1" x1="96.52" y1="11.59" x2="96.51" y2="28.56"/>
  <polyline points="98.02 28.59 95.01 28.56 96.51 34.24 98.02 28.59"/>
  <line class="cls-1" x1="39.88" y1="34.24" x2="48.67" y2="16.66"/>
  <polyline points="47.33 15.96 50.02 17.34 51.22 11.59 47.33 15.96"/>
  <line class="cls-1" x1="39.88" y1="11.59" x2="48.67" y2="29.16"/>
  <polyline points="50.02 28.49 47.33 29.86 51.22 34.24 50.02 28.49"/>
  <line class="cls-1" x1="62.52" y1="34.24" x2="62.52" y2="45.56"/>
  <line class="cls-1" x1="73.87" y1="34.24" x2="73.87" y2="45.56"/>
  <line class="cls-1" x1="62.52" y1="11.59" x2="62.52" y2=".25"/>
  <line class="cls-1" x1="73.87" y1="11.59" x2="73.87" y2=".25"/>
  <polyline class="cls-1" points="79.52 34.24 102.17 34.24 102.17 11.59 79.52 11.59 79.52 34.24"/>
  <line class="cls-1" x1="62.52" y1="11.59" x2="62.52" y2="17.24"/>
  <line class="cls-1" x1="65.37" y1="17.26" x2="59.7" y2="17.24"/>
  <line class="cls-1" x1="73.87" y1="11.59" x2="73.87" y2="17.24"/>
  <line class="cls-1" x1="76.7" y1="17.26" x2="71.02" y2="17.24"/>
  <line class="cls-1" x1="62.52" y1="34.24" x2="62.52" y2="28.59"/>
  <line class="cls-1" x1="59.7" y1="28.59" x2="65.37" y2="28.56"/>
  <line class="cls-1" x1="73.87" y1="34.24" x2="73.87" y2="28.59"/>
  <line class="cls-1" x1="71.02" y1="28.59" x2="76.7" y2="28.56"/>
  <polyline class="cls-1" points="102.17 17.24 103.36 11.59 105.73 22.91 108.08 11.59 110.42 22.91 112.8 11.59 115.16 22.91 116.33 17.24"/>
  <polyline class="cls-1" points="34.22 17.24 33.06 11.59 30.67 22.91 28.32 11.59 25.97 22.91 23.61 11.59 21.25 22.91 20.07 17.24"/>
  <line class="cls-1" x1="5.91" y1="34.24" x2="11.57" y2="22.91"/>
  <polyline class="cls-1" points=".25 34.24 17.22 34.24 17.22 22.91 .25 22.91 .25 34.24"/>
  <line class="cls-1" x1="130.51" y1="34.24" x2="124.83" y2="22.91"/>
  <polyline class="cls-1" points="119.17 34.24 136.15 34.24 136.15 22.91 119.17 22.91 119.17 34.24"/>
  <polyline class="cls-1" points="17.22 22.91 34.22 22.91 34.22 34.24 17.22 34.24 17.22 22.91"/>
  <polyline points="17.22 22.91 27.15 28.59 17.22 34.24 17.22 22.91"/>
  <polyline class="cls-1" points="119.17 34.24 102.17 34.24 102.17 22.91 119.17 22.91 119.17 34.24"/>
  <polyline points="119.17 34.24 109.26 28.59 119.17 22.91 119.17 34.24"/>
</svg>