<?xml version="1.0" encoding="UTF-8"?>
<svg id="Layer_1" data-name="Layer 1" xmlns="http://www.w3.org/2000/svg" viewBox="0 0 102.43 45.81">
  <defs>
    <style>
      .cls-1 {
        fill: none;
        stroke: #000;
        stroke-linecap: round;
        stroke-linejoin: round;
        stroke-width: .51px;
      }
    </style>
  </defs>
  <polyline class="cls-1" points="17.22 34.24 39.88 34.24 39.88 11.59 17.22 11.59 17.22 34.24"/>
  <polyline class="cls-1" points="39.88 11.59 62.52 11.59 62.52 34.24 39.88 34.24 39.88 11.59"/>
  <line class="cls-1" x1="22.9" y1="34.24" x2="22.9" y2="17.24"/>
  <polyline points="21.38 17.26 24.42 17.24 22.9 11.59 21.38 17.26"/>
  <line class="cls-1" x1="34.22" y1="11.59" x2="34.22" y2="28.56"/>
  <polyline points="35.76 28.59 32.7 28.56 34.22 34.24 35.76 28.59"/>
  <line class="cls-1" x1="68.2" y1="34.24" x2="77.01" y2="16.66"/>
  <polyline points="75.62 15.96 78.36 17.34 79.52 11.59 75.62 15.96"/>
  <line class="cls-1" x1="68.2" y1="11.59" x2="77.01" y2="29.16"/>
  <polyline points="78.36 28.49 75.62 29.86 79.52 34.24 78.36 28.49"/>
  <line class="cls-1" x1="45.56" y1="34.24" x2="45.56" y2="45.56"/>
  <line class="cls-1" x1="56.88" y1="34.24" x2="56.88" y2="45.56"/>
  <line class="cls-1" x1="45.56" y1="11.59" x2="45.56" y2=".25"/>
  <line class="cls-1" x1="56.88" y1="11.59" x2="56.88" y2=".25"/>
  <polyline class="cls-1" points="62.52 34.24 85.17 34.24 85.17 11.59 62.52 11.59 62.52 34.24"/>
  <line class="cls-1" x1="56.88" y1="11.59" x2="56.88" y2="17.24"/>
  <line class="cls-1" x1="59.7" y1="17.26" x2="54.06" y2="17.24"/>
  <line class="cls-1" x1="45.56" y1="11.59" x2="45.56" y2="17.24"/>
  <line class="cls-1" x1="48.38" y1="17.26" x2="42.72" y2="17.24"/>
  <line class="cls-1" x1="45.56" y1="34.24" x2="45.56" y2="22.91"/>
  <line class="cls-1" x1="45.56" y1="22.91" x2="56.88" y2="22.91"/>
  <line class="cls-1" x1="56.88" y1="22.91" x2="56.88" y2="34.24"/>
  <polyline class="cls-1" points="85.17 17.24 86.37 11.59 88.73 22.91 91.08 11.59 93.45 22.91 95.8 11.59 98.17 22.91 99.36 17.24"/>
  <polyline class="cls-1" points="17.22 17.24 16.06 11.59 13.7 22.91 11.36 11.59 8.98 22.91 6.62 11.59 4.25 22.91 3.08 17.24"/>
  <line class="cls-1" x1="5.91" y1="34.24" x2="11.57" y2="22.91"/>
  <polyline class="cls-1" points=".25 34.24 17.22 34.24 17.22 22.91 .25 22.91 .25 34.24"/>
  <line class="cls-1" x1="96.52" y1="34.24" x2="90.86" y2="22.91"/>
  <polyline class="cls-1" points="85.17 34.24 102.17 34.24 102.17 22.91 85.17 22.91 85.17 34.24"/>
</svg>