<?xml version="1.0" encoding="UTF-8"?>
<svg id="Layer_1" data-name="Layer 1" xmlns="http://www.w3.org/2000/svg" viewBox="0 0 136.51 48.68">
  <defs>
    <style>
      .cls-1 {
        fill: none;
        stroke: #000;
        stroke-linecap: round;
        stroke-linejoin: round;
        stroke-width: .51px;
      }
    </style>
  </defs>
  <polyline class="cls-1" points="34.25 34.25 56.93 34.25 56.93 11.57 34.25 11.57 34.25 34.25"/>
  <polyline class="cls-1" points="56.93 11.57 79.57 11.57 79.57 34.25 56.93 34.25 56.93 11.57"/>
  <line class="cls-1" x1="85.25" y1="34.25" x2="85.25" y2="17.25"/>
  <polyline points="83.72 17.25 86.78 17.25 85.25 11.57 83.72 17.25"/>
  <line class="cls-1" x1="96.57" y1="11.57" x2="96.57" y2="28.6"/>
  <polyline points="98.1 28.6 95.07 28.6 96.57 34.25 98.1 28.6"/>
  <line class="cls-1" x1="39.93" y1="34.25" x2="48.72" y2="16.65"/>
  <polyline points="47.36 15.97 50.07 17.32 51.25 11.57 47.36 15.97"/>
  <line class="cls-1" x1="39.93" y1="11.57" x2="48.72" y2="29.17"/>
  <polyline points="50.07 28.5 47.36 29.87 51.25 34.25 50.07 28.5"/>
  <line class="cls-1" x1="62.57" y1="34.25" x2="62.57" y2="45.6"/>
  <line class="cls-1" x1="73.92" y1="34.25" x2="73.92" y2="45.6"/>
  <line class="cls-1" x1="62.57" y1="11.57" x2="62.57" y2=".25"/>
  <line class="cls-1" x1="73.92" y1="11.57" x2="73.92" y2=".25"/>
  <polyline class="cls-1" points="79.57 34.25 102.25 34.25 102.25 11.57 79.57 11.57 79.57 34.25"/>
  <line class="cls-1" x1="62.57" y1="11.57" x2="62.57" y2="22.92"/>
  <line class="cls-1" x1="62.57" y1="22.92" x2="73.92" y2="22.92"/>
  <line class="cls-1" x1="73.92" y1="22.92" x2="73.92" y2="34.25"/>
  <line class="cls-1" x1="73.92" y1="11.57" x2="73.92" y2="22.92"/>
  <polyline class="cls-1" points="75.32 22.92 75.32 22.72 75.28 22.55 75.22 22.37 75.16 22.2 75.06 22.05 74.92 21.92 74.78 21.8 74.63 21.7 74.46 21.6 74.28 21.55 74.1 21.52 73.92 21.5 73.72 21.52 73.56 21.55 73.38 21.6 73.21 21.7 73.06 21.8 72.92 21.92 72.81 22.05 72.71 22.2 72.6 22.37 72.56 22.55 72.5 22.72 72.5 22.92 72.5 23.1 72.56 23.27 72.6 23.47 72.71 23.62 72.81 23.77 72.92 23.92 73.06 24.05 73.21 24.15 73.38 24.22 73.56 24.3 73.72 24.32 73.92 24.32 74.1 24.32 74.28 24.3 74.46 24.22 74.63 24.15 74.78 24.05 74.92 23.92 75.06 23.77 75.16 23.62 75.22 23.47 75.28 23.27 75.32 23.1 75.32 22.92"/>
  <polyline class="cls-1" points="73.13 21.75 74.71 21.75 72.85 21.97 74.97 21.97 72.71 22.2 75.16 22.2 72.57 22.45 75.25 22.45 72.53 22.67 75.32 22.67 72.5 22.92 75.32 22.92 72.53 23.15 75.32 23.15 72.57 23.4 75.25 23.4 72.71 23.62 75.16 23.62 72.85 23.87 74.97 23.87 73.13 24.1 74.71 24.1"/>
  <line class="cls-1" x1="62.57" y1="34.25" x2="62.57" y2="28.6"/>
  <line class="cls-1" x1="59.75" y1="28.6" x2="65.42" y2="28.6"/>
  <polyline class="cls-1" points="102.25 17.25 103.42 11.57 105.81 22.92 108.16 11.57 110.53 22.92 112.88 11.57 115.22 22.92 116.42 17.25"/>
  <polyline class="cls-1" points="34.25 17.25 33.07 11.57 30.7 22.92 28.35 11.57 25.97 22.92 23.62 11.57 21.27 22.92 20.08 17.25"/>
  <line class="cls-1" x1="5.92" y1="34.25" x2="11.58" y2="22.92"/>
  <polyline class="cls-1" points=".25 34.25 17.26 34.25 17.26 22.92 .25 22.92 .25 34.25"/>
  <line class="cls-1" x1="130.58" y1="34.25" x2="124.92" y2="22.92"/>
  <polyline class="cls-1" points="119.25 34.25 136.25 34.25 136.25 22.92 119.25 22.92 119.25 34.25"/>
  <polyline class="cls-1" points="119.25 34.25 102.25 34.25 102.25 22.92 119.25 22.92 119.25 34.25"/>
  <polyline points="119.25 34.25 109.32 28.6 119.25 22.92 119.25 34.25"/>
  <polyline class="cls-1" points="17.26 22.92 34.25 22.92 34.25 34.25 17.26 34.25 17.26 22.92"/>
  <polyline points="17.26 22.92 27.18 28.6 17.26 34.25 17.26 22.92"/>
  <line class="cls-1" x1="17.26" y1="34.25" x2="17.26" y2="38.8"/>
  <line class="cls-1" x1="17.26" y1="41.05" x2="17.26" y2="45.6"/>
  <line class="cls-1" x1="107.92" y1="34.25" x2="107.92" y2="36.95"/>
  <line class="cls-1" x1="107.92" y1="39.22" x2="107.92" y2="43.47"/>
  <line class="cls-1" x1="107.92" y1="45.72" x2="107.92" y2="48.42"/>
</svg>