<?xml version="1.0" encoding="UTF-8"?>
<svg id="Layer_1" data-name="Layer 1" xmlns="http://www.w3.org/2000/svg" viewBox="0 0 32.78 57.09">
  <defs>
    <style>
      .cls-1 {
        stroke-width: .43px;
      }

      .cls-1, .cls-2 {
        fill: none;
        stroke: #000;
        stroke-linecap: round;
        stroke-linejoin: round;
      }

      .cls-2 {
        stroke-width: .51px;
      }
    </style>
  </defs>
  <line class="cls-2" x1="16.41" y1="5.91" x2="16.41" y2="12.43"/>
  <line class="cls-2" x1="16.41" y1="18.07" x2=".25" y2="34.23"/>
  <line class="cls-2" x1="32.53" y1="34.23" x2="16.41" y2="50.38"/>
  <line class="cls-2" x1="16.41" y1="50.38" x2=".25" y2="34.23"/>
  <line class="cls-2" x1="32.53" y1="34.23" x2="16.41" y2="18.07"/>
  <line class="cls-1" x1="16.41" y1="56.88" x2="16.41" y2="50.38"/>
  <line class="cls-2" x1=".25" y1="34.23" x2="5.51" y2="34.23"/>
  <line class="cls-2" x1="7.76" y1="34.23" x2="12.01" y2="34.23"/>
  <line class="cls-2" x1="14.27" y1="34.23" x2="18.5" y2="34.23"/>
  <line class="cls-2" x1="20.77" y1="34.23" x2="25.02" y2="34.23"/>
  <line class="cls-2" x1="27.27" y1="34.23" x2="32.53" y2="34.23"/>
  <line class="cls-2" x1="13.56" y1="12.43" x2="16.41" y2="18.07"/>
  <line class="cls-2" x1="16.41" y1="18.07" x2="19.23" y2="12.43"/>
  <line class="cls-2" x1="13.56" y1="12.43" x2="19.23" y2="12.43"/>
  <line class="cls-2" x1="19.23" y1="5.91" x2="16.41" y2=".25"/>
  <line class="cls-2" x1="16.41" y1=".25" x2="13.56" y2="5.91"/>
  <line class="cls-2" x1="19.23" y1="5.91" x2="13.56" y2="5.91"/>
</svg>