<?xml version="1.0" encoding="UTF-8"?>
<svg id="Layer_1" data-name="Layer 1" xmlns="http://www.w3.org/2000/svg" viewBox="0 0 34.44 23.13">
  <defs>
    <style>
      .cls-1 {
        fill: none;
        stroke: #000;
        stroke-linecap: round;
        stroke-linejoin: round;
        stroke-width: .51px;
      }
    </style>
  </defs>
  <line class="cls-1" x1="22.89" y1=".25" x2="22.89" y2="22.87"/>
  <line class="cls-1" x1="22.89" y1="22.87" x2="34.18" y2="22.87"/>
  <polyline class="cls-1" points="5.9 3.07 5.88 2.7 5.8 2.36 5.7 2 5.53 1.68 5.34 1.36 5.09 1.07 4.8 .82 4.51 .62 4.16 .47 3.8 .36 3.45 .28 3.09 .25 2.7 .28 2.36 .36 2 .47 1.69 .62 1.35 .82 1.08 1.07 .83 1.36 .64 1.68 .48 2 .36 2.36 .28 2.7 .25 3.07 .28 3.45 .36 3.8 .48 4.15 .64 4.5 .83 4.8 1.08 5.07 1.35 5.32 1.69 5.53 2 5.7 2.36 5.8 2.7 5.87 3.09 5.9 3.45 5.87 3.8 5.8 4.16 5.7 4.51 5.53 4.8 5.32 5.09 5.07 5.34 4.8 5.53 4.5 5.7 4.15 5.8 3.8 5.88 3.45 5.9 3.07"/>
  <line class="cls-1" x1="22.89" y1="20.05" x2="7.88" y2="20.05"/>
  <line class="cls-1" x1="8.73" y1="22.87" x2="3.94" y2="5.62"/>
  <line class="cls-1" x1="6.49" y1="14.4" x2="22.89" y2="14.4"/>
</svg>