<?xml version="1.0" encoding="UTF-8"?>
<svg id="Layer_1" data-name="Layer 1" xmlns="http://www.w3.org/2000/svg" viewBox="0 0 31.54 11.78">
  <defs>
    <style>
      .cls-1 {
        fill: none;
        stroke: #000;
        stroke-linecap: round;
        stroke-linejoin: round;
        stroke-width: .51px;
      }
    </style>
  </defs>
  <polyline class="cls-1" points="11.53 5.91 11.5 5.52 11.44 5.16 11.33 4.81 11.15 4.48 10.95 4.18 10.7 3.91 10.44 3.66 10.14 3.45 9.81 3.28 9.45 3.18 9.08 3.11 8.7 3.08 8.36 3.11 7.98 3.18 7.64 3.28 7.31 3.45 7 3.66 6.74 3.91 6.49 4.18 6.29 4.48 6.1 4.81 5.99 5.16 5.93 5.52 5.91 5.91 5.93 6.25 5.99 6.63 6.1 6.98 6.29 7.31 6.49 7.61 6.74 7.88 7 8.13 7.31 8.33 7.64 8.51 7.98 8.61 8.36 8.68 8.7 8.71 9.08 8.68 9.45 8.61 9.81 8.51 10.14 8.33 10.44 8.13 10.7 7.88 10.95 7.61 11.15 7.31 11.33 6.98 11.44 6.63 11.5 6.25 11.53 5.91"/>
  <line class="cls-1" x1="4.74" y1="5.91" x2="3.08" y2="5.91"/>
  <polyline class="cls-1" points="10.39 11.53 4.74 5.91 10.39 .25"/>
  <polyline class="cls-1" points="25.63 5.91 24.46 .25 22.11 11.53 19.75 .25 17.4 11.53 15.05 .25 12.7 11.53 11.53 5.91"/>
  <line class="cls-1" x1="31.28" y1="5.91" x2="11.53" y2="5.91"/>
  <line class="cls-1" x1="3.08" y1="5.91" x2=".25" y2="5.91"/>
</svg>