<?xml version="1.0" encoding="UTF-8"?>
<svg id="Layer_1" data-name="Layer 1" xmlns="http://www.w3.org/2000/svg" viewBox="0 0 170.51 113.83">
  <defs>
    <style>
      .cls-1 {
        fill: none;
        stroke: #000;
        stroke-linecap: round;
        stroke-linejoin: round;
        stroke-width: .51px;
      }
    </style>
  </defs>
  <polyline class="cls-1" points="113.58 56.9 113.36 53.22 112.64 49.57 111.44 46.07 109.79 42.75 107.73 39.67 105.29 36.87 102.51 34.42 99.44 32.37 96.11 30.75 92.58 29.55 88.95 28.82 85.26 28.57 81.55 28.82 77.94 29.55 74.4 30.75 71.08 32.37 68.01 34.42 65.23 36.87 62.79 39.67 60.73 42.75 59.09 46.07 57.89 49.57 57.16 53.22 56.93 56.9 57.16 60.6 57.89 64.25 59.09 67.75 60.73 71.07 62.79 74.15 65.23 76.95 68.01 79.4 71.08 81.45 74.4 83.07 77.94 84.27 81.55 85 85.26 85.25 88.95 85 92.58 84.27 96.11 83.07 99.44 81.45 102.51 79.4 105.29 76.95 107.73 74.15 109.79 71.07 111.44 67.75 112.64 64.25 113.36 60.6 113.58 56.9"/>
  <line class="cls-1" x1="45.18" y1="56.9" x2="28.58" y2="56.9"/>
  <polyline class="cls-1" points="101.86 113.57 45.18 56.9 101.86 .25"/>
  <line class="cls-1" x1="170.26" y1="56.9" x2="113.58" y2="56.9"/>
  <line class="cls-1" x1="28.58" y1="56.9" x2=".25" y2="56.9"/>
</svg>