<?xml version="1.0" encoding="UTF-8"?>
<svg id="Layer_1" data-name="Layer 1" xmlns="http://www.w3.org/2000/svg" viewBox="0 0 57.13 43.56">
  <defs>
    <style>
      .cls-1 {
        fill: none;
        stroke: #000;
        stroke-linecap: round;
        stroke-linejoin: round;
        stroke-width: .51px;
      }
    </style>
  </defs>
  <line class="cls-1" x1="28.58" y1=".25" x2="28.58" y2="34.23"/>
  <polyline class="cls-1" points="28.58 34.23 30.77 34.11 32.95 33.66 35.07 32.96 37.06 31.96 38.91 30.73 40.57 29.26 42.06 27.61 43.27 25.75 44.25 23.75 44.97 21.66 45.41 19.46 45.56 17.25 45.41 15.03 44.97 12.86 44.25 10.75 43.27 8.75 42.06 6.91 40.57 5.23 38.91 3.75 37.06 2.53 35.07 1.55 32.95 .82 30.77 .41 28.58 .25"/>
  <line class="cls-1" x1="28.58" y1="34.23" x2="28.58" y2=".25"/>
  <polyline class="cls-1" points="28.58 .25 26.35 .41 24.18 .82 22.05 1.55 20.08 2.53 18.22 3.75 16.55 5.23 15.08 6.91 13.86 8.75 12.87 10.75 12.16 12.86 11.72 15.03 11.58 17.25 11.72 19.46 12.16 21.66 12.87 23.75 13.86 25.75 15.08 27.61 16.55 29.26 18.22 30.73 20.08 31.96 22.05 32.96 24.18 33.66 26.35 34.11 28.58 34.23"/>
  <polyline points="39.88 20.08 45.56 17.25 39.88 14.41 39.88 20.08"/>
  <polyline class="cls-1" points="11.86 14.41 17.52 17.25 11.86 20.08 11.86 14.41"/>
  <line class="cls-1" x1="20.08" y1="31.98" x2="20.08" y2="43.31"/>
  <line class="cls-1" x1="37.06" y1="31.98" x2="37.06" y2="43.31"/>
  <line class="cls-1" x1="11.58" y1="17.25" x2=".25" y2="17.25"/>
  <line class="cls-1" x1="45.56" y1="17.25" x2="56.88" y2="17.25"/>
</svg>