<?xml version="1.0" encoding="UTF-8"?>
<svg id="Layer_1" data-name="Layer 1" xmlns="http://www.w3.org/2000/svg" viewBox="0 0 97.86 82.92">
  <defs>
    <style>
      .cls-1 {
        font-family: ArialMT, Arial;
        font-size: 4.01px;
      }

      .cls-2 {
        fill: none;
        stroke: #000;
        stroke-linecap: round;
        stroke-linejoin: round;
        stroke-width: .51px;
      }
    </style>
  </defs>
  <line class="cls-2" x1=".25" y1="25.41" x2="23.15" y2="25.41"/>
  <line class="cls-2" x1="23.15" y1="25.41" x2="23.15" y2="59.76"/>
  <line class="cls-2" x1="23.15" y1="59.76" x2="11.7" y2="71.21"/>
  <line class="cls-2" x1="11.7" y1="71.21" x2=".25" y2="59.76"/>
  <line class="cls-2" x1=".25" y1="59.76" x2=".25" y2="25.41"/>
  <line class="cls-2" x1=".25" y1="56.89" x2="23.15" y2="56.89"/>
  <line class="cls-2" x1=".25" y1="39.71" x2="23.15" y2="39.71"/>
  <polyline points="7.44 56.89 16 56.89 16 66.91 7.44 66.91 7.44 56.89"/>
  <polyline class="cls-2" points="3.14 25.41 8.86 26.99 3.14 28.59 8.86 30.16 3.14 31.76 8.86 33.36 3.14 34.94 8.86 36.54 3.14 38.14 8.86 39.71"/>
  <line class="cls-2" x1="23.15" y1="59.76" x2="34.64" y2="59.76"/>
  <line class="cls-2" x1="11.7" y1="71.21" x2="11.7" y2="82.66"/>
  <line class="cls-2" x1="63.25" y1="25.41" x2="86.16" y2="25.41"/>
  <line class="cls-2" x1="86.16" y1="25.41" x2="86.16" y2="59.76"/>
  <line class="cls-2" x1="86.16" y1="59.76" x2="74.7" y2="71.21"/>
  <line class="cls-2" x1="74.7" y1="71.21" x2="63.25" y2="59.76"/>
  <line class="cls-2" x1="63.25" y1="59.76" x2="63.25" y2="25.41"/>
  <line class="cls-2" x1="63.25" y1="56.89" x2="86.16" y2="56.89"/>
  <line class="cls-2" x1="63.25" y1="39.71" x2="86.16" y2="39.71"/>
  <polyline points="66.1 56.89 83.28 56.89 83.28 62.61 66.1 62.61 66.1 56.89"/>
  <polyline class="cls-2" points="66.1 25.41 71.84 26.99 66.1 28.59 71.84 30.16 66.1 31.76 71.84 33.36 66.1 34.94 71.84 36.54 66.1 38.14 71.84 39.71"/>
  <line class="cls-2" x1="86.16" y1="59.76" x2="97.6" y2="59.76"/>
  <line class="cls-2" x1="74.7" y1="71.21" x2="74.7" y2="82.66"/>
  <line class="cls-2" x1="74.7" y1="25.41" x2="74.7" y2="20.81"/>
  <line class="cls-2" x1="74.7" y1="18.54" x2="74.7" y2="13.94"/>
  <line class="cls-2" x1="11.7" y1="25.41" x2="11.7" y2="20.81"/>
  <line class="cls-2" x1="11.7" y1="18.54" x2="11.7" y2="13.94"/>
  <text class="cls-1" transform="translate(.13 3.44)"><tspan x="0" y="0">Small Seat Area</tspan></text>
  <text class="cls-1" transform="translate(2.03 6.79)"><tspan x="0" y="0">With Damping</tspan></text>
  <text class="cls-1" transform="translate(9.9 10.16)"><tspan x="0" y="0">Nose</tspan></text>
  <text class="cls-1" transform="translate(67.79 3.44)"><tspan x="0" y="0">Large Seat</tspan></text>
  <text class="cls-1" transform="translate(68.79 6.79)"><tspan x="0" y="0">Area With</tspan></text>
  <text class="cls-1" transform="translate(64.34 10.16)"><tspan x="0" y="0">Damping Nose</tspan></text>
</svg>