<?xml version="1.0" standalone="no"?>
<!DOCTYPE svg PUBLIC "-//W3C//DTD SVG 1.1//EN" "http://www.w3.org/Graphics/SVG/1.1/DTD/svg11.dtd">
<svg xmlns="http://www.w3.org/2000/svg" xmlns:xlink="http://www.w3.org/1999/xlink" viewBox="0 0 272 162" height="20.25mm" width="34mm">
<title>DHE-0610-X-00DC</title>
<g style="stroke-linejoin: round; stroke-linecap: round; fill: none; stroke: black; stroke-width: 2;" transform="translate(231,41)">
<rect x="-170" y="0" width="80" height="80" />
<rect x="-90" y="0" width="80" height="80" />
<polyline points="-110,0 -123.42,15.65 -114.47,20.12 -110,0" fill="black" />
<line x1="-150" y1="80" x2="-118.94" y2="17.89" fill="black" />
<polyline points="-110,80 -114.47,59.88 -123.42,64.35 -110,80" fill="black" />
<line x1="-150" y1="0" x2="-118.94" y2="62.11" fill="black" />
<line x1="-70" y1="80" x2="-70" y2="120" />
<line x1="-30" y1="80" x2="-30" y2="120" />
<line x1="-70" y1="0" x2="-70" y2="-40" />
<line x1="-30" y1="0" x2="-30" y2="-40" />
<line x1="-30" y1="0" x2="-30" y2="80" />
<line x1="-70" y1="0" x2="-70" y2="80" />
<line x1="-70" y1="40" x2="-30" y2="40" />
<circle cx="-30" cy="40" r="5" fill="black" stroke="none" />
<polyline points="-10,60 -5.83,40 -1.67,60 2.5,80 6.67,60 10.83,40 15,60 19.17,80 23.33,60 27.5,40 31.67,60 35.83,80 40,60" />
<rect x="-230" y="40" width="60" height="40" />
<line x1="-210" y1="80" x2="-190" y2="40" />
<circle cx="-70" cy="40" r="5" fill="black" stroke="none" />
</g>
</svg>
