<?xml version="1.0" encoding="UTF-8"?>
<svg id="Layer_1" data-name="Layer 1" xmlns="http://www.w3.org/2000/svg" viewBox="0 0 23.13 54.23">
  <defs>
    <style>
      .cls-1 {
        fill: none;
        stroke: #000;
        stroke-linecap: round;
        stroke-linejoin: round;
        stroke-width: .51px;
      }
    </style>
  </defs>
  <polyline class="cls-1" points="22.87 11.55 22.77 10.07 22.51 8.62 22.02 7.23 21.35 5.91 20.52 4.68 19.55 3.57 18.45 2.57 17.22 1.78 15.91 1.11 14.5 .62 13.05 .36 11.58 .25 10.08 .36 8.62 .62 7.22 1.11 5.9 1.78 4.67 2.57 3.57 3.57 2.61 4.68 1.77 5.91 1.1 7.23 .63 8.62 .35 10.07 .25 11.55"/>
  <polyline class="cls-1" points=".25 34.18 .35 35.66 .63 37.11 1.1 38.5 1.77 39.83 2.61 41.08 3.57 42.18 4.67 43.16 5.9 43.98 7.22 44.63 8.62 45.11 10.08 45.41 11.58 45.51 13.05 45.41 14.5 45.11 15.91 44.63 17.22 43.98 18.45 43.16 19.55 42.18 20.52 41.08 21.35 39.83 22.02 38.5 22.51 37.11 22.77 35.66 22.87 34.18"/>
  <line class="cls-1" x1="22.87" y1="11.55" x2="22.87" y2="34.18"/>
  <line class="cls-1" x1=".25" y1="11.55" x2=".25" y2="34.18"/>
  <line class="cls-1" x1=".25" y1="22.87" x2="22.87" y2="22.87"/>
  <polyline class="cls-1" points="8.72 18.07 14.41 18.07 11.58 22.87 8.72 18.07"/>
  <line class="cls-1" x1="11.58" y1="45.51" x2="11.58" y2="53.98"/>
</svg>