<?xml version="1.0" encoding="UTF-8"?>
<svg id="Layer_1" data-name="Layer 1" xmlns="http://www.w3.org/2000/svg" viewBox="0 0 34.46 68.44">
  <defs>
    <style>
      .cls-1 {
        fill: none;
        stroke: #000;
        stroke-linecap: round;
        stroke-linejoin: round;
        stroke-width: .51px;
      }
    </style>
  </defs>
  <line class="cls-1" x1="22.87" y1="45.54" x2="34.2" y2="45.54"/>
  <line class="cls-1" x1="11.58" y1="56.86" x2="11.58" y2="68.19"/>
  <line class="cls-1" x1=".25" y1="11.59" x2="22.87" y2="11.59"/>
  <line class="cls-1" x1="22.87" y1="11.59" x2="22.87" y2="45.54"/>
  <line class="cls-1" x1="22.87" y1="45.54" x2="11.58" y2="56.86"/>
  <line class="cls-1" x1="11.58" y1="56.86" x2=".25" y2="45.54"/>
  <line class="cls-1" x1=".25" y1="45.54" x2=".25" y2="11.59"/>
  <line class="cls-1" x1=".25" y1="42.71" x2="22.87" y2="42.71"/>
  <line class="cls-1" x1=".25" y1="25.74" x2="22.87" y2="25.74"/>
  <line class="cls-1" x1="7.32" y1="42.71" x2="7.32" y2="52.61"/>
  <line class="cls-1" x1="7.32" y1="52.61" x2="15.8" y2="52.61"/>
  <line class="cls-1" x1="15.8" y1="52.61" x2="15.8" y2="42.71"/>
  <polyline class="cls-1" points="5.9 11.59 8.72 12.29 3.07 13.71 8.72 15.11 3.07 16.54 8.72 17.96 3.07 19.36 8.72 20.79 3.07 22.19 8.72 23.61 3.07 25.04 5.9 25.74"/>
  <line class="cls-1" x1="11.58" y1="11.59" x2="11.58" y2="7.06"/>
  <line class="cls-1" x1="11.58" y1="4.79" x2="11.58" y2=".25"/>
</svg>