<?xml version="1.0" encoding="UTF-8"?>
<svg id="Layer_1" data-name="Layer 1" xmlns="http://www.w3.org/2000/svg" viewBox="0 0 139.26 57.13">
  <defs>
    <style>
      .cls-1 {
        font-family: Monotype:Arial Regular (Microsoft), 'Monotype:Arial Regular (Microsoft)';
        font-size: 7.93px;
      }

      .cls-2 {
        fill: none;
        stroke: #000;
        stroke-linecap: round;
        stroke-linejoin: round;
        stroke-width: .51px;
      }
    </style>
  </defs>
  <polyline class="cls-2" points="37.05 22.91 105.02 22.91 105.02 45.56 37.05 45.56 37.05 22.91"/>
  <line class="cls-2" x1="59.73" y1="22.91" x2="59.73" y2="45.56"/>
  <line class="cls-2" x1="82.37" y1="22.91" x2="82.37" y2="45.56"/>
  <line class="cls-2" x1="39.91" y1="48.38" x2="102.21" y2="48.38"/>
  <line class="cls-2" x1="102.21" y1="20.07" x2="39.91" y2="20.07"/>
  <line class="cls-2" x1="76.71" y1="22.91" x2="76.71" y2="45.56"/>
  <line class="cls-2" x1="65.37" y1="34.23" x2="76.71" y2="34.23"/>
  <polyline class="cls-2" points="78.12 34.23 78.11 34.06 78.08 33.86 78.01 33.68 77.93 33.53 77.83 33.38 77.71 33.23 77.58 33.11 77.4 33.01 77.26 32.93 77.08 32.86 76.9 32.83 76.71 32.81 76.52 32.83 76.36 32.86 76.15 32.93 76.01 33.01 75.86 33.11 75.71 33.23 75.58 33.38 75.47 33.53 75.4 33.68 75.33 33.86 75.3 34.06 75.3 34.23 75.3 34.41 75.33 34.61 75.4 34.78 75.47 34.93 75.58 35.08 75.71 35.23 75.86 35.36 76.01 35.46 76.15 35.53 76.36 35.61 76.52 35.63 76.71 35.66 76.9 35.63 77.08 35.61 77.26 35.53 77.4 35.46 77.58 35.36 77.71 35.23 77.83 35.08 77.93 34.93 78.01 34.78 78.08 34.61 78.11 34.41 78.12 34.23"/>
  <polyline class="cls-2" points="75.93 33.06 77.47 33.06 75.65 33.28 77.76 33.28 75.47 33.53 77.93 33.53 75.37 33.76 78.05 33.76 75.3 34.01 78.11 34.01 75.3 34.23 78.12 34.23 75.3 34.46 78.11 34.46 75.37 34.71 78.05 34.71 75.47 34.93 77.93 34.93 75.65 35.18 77.76 35.18 75.93 35.41 77.47 35.41"/>
  <line class="cls-2" x1="65.37" y1="45.56" x2="65.37" y2="56.88"/>
  <line class="cls-2" x1="76.71" y1="45.56" x2="76.71" y2="56.88"/>
  <line class="cls-2" x1="65.37" y1="22.91" x2="65.37" y2="11.57"/>
  <line class="cls-2" x1="76.71" y1="22.91" x2="76.71" y2="11.57"/>
  <line class="cls-2" x1="116.36" y1="45.56" x2="110.68" y2="34.23"/>
  <polyline class="cls-2" points="105.02 45.56 122.01 45.56 122.01 34.23 105.02 34.23 105.02 45.56"/>
  <line class="cls-2" x1="111.26" y1="50.08" x2="115.68" y2="30.13"/>
  <polyline points="114.21 29.81 117.18 30.46 116.93 24.61 114.21 29.81"/>
  <polyline class="cls-2" points="62.02 31.41 62.37 30.96 62.66 30.48 62.87 29.96 63.02 29.41 63.11 28.86 63.11 28.28 63.02 27.73 62.87 27.18 62.66 26.66 62.37 26.18 62.02 25.73"/>
  <polyline class="cls-2" points="68.72 25.73 68.37 26.18 68.11 26.66 67.87 27.18 67.72 27.73 67.65 28.28 67.65 28.86 67.72 29.41 67.87 29.96 68.11 30.48 68.37 30.96 68.72 31.41"/>
  <polyline class="cls-2" points="73.36 31.41 73.71 30.96 74.01 30.48 74.21 29.96 74.36 29.41 74.43 28.86 74.43 28.28 74.36 27.73 74.21 27.18 74.01 26.66 73.71 26.18 73.36 25.73"/>
  <polyline class="cls-2" points="80.05 25.73 79.71 26.18 79.43 26.66 79.21 27.18 79.05 27.73 78.97 28.28 78.97 28.86 79.05 29.41 79.21 29.96 79.43 30.48 79.71 30.96 80.05 31.41"/>
  <line class="cls-2" x1="88.02" y1="45.56" x2="88.02" y2="28.58"/>
  <polyline points="86.52 28.58 89.55 28.56 88.02 22.91 86.52 28.58"/>
  <line class="cls-2" x1="42.73" y1="22.91" x2="51.52" y2="40.48"/>
  <polyline points="52.87 39.81 50.16 41.18 54.05 45.56 52.87 39.81"/>
  <line class="cls-2" x1="42.73" y1="45.56" x2="51.52" y2="27.98"/>
  <polyline points="50.16 27.28 52.87 28.66 54.05 22.91 50.16 27.28"/>
  <line class="cls-2" x1="99.36" y1="22.91" x2="99.36" y2="39.88"/>
  <polyline points="100.87 39.91 97.86 39.88 99.36 45.56 100.87 39.91"/>
  <line class="cls-2" x1="105.02" y1="17.25" x2="105.02" y2="22.91"/>
  <line class="cls-2" x1="113.65" y1="4.5" x2="113.65" y2="7.32"/>
  <line class="cls-2" x1="119.33" y1="4.5" x2="119.33" y2="7.32"/>
  <polyline class="cls-2" points="119.33 4.5 119.3 4.13 119.22 3.78 119.11 3.43 118.96 3.07 118.72 2.78 118.51 2.5 118.21 2.25 117.9 2.06 117.58 1.88 117.22 1.75 116.86 1.71 116.51 1.68 116.12 1.71 115.76 1.75 115.4 1.88 115.08 2.06 114.77 2.25 114.47 2.5 114.26 2.78 114.02 3.07 113.87 3.43 113.76 3.78 113.68 4.13 113.65 4.5"/>
  <line class="cls-2" x1="105.02" y1=".25" x2="122.01" y2="17.25"/>
  <polyline class="cls-2" points="105.02 17.25 122.01 17.25 122.01 .25 105.02 .25 105.02 17.25"/>
  <text class="cls-1" transform="translate(107.48 15.82)"><tspan x="0" y="0">G</tspan></text>
  <polyline class="cls-2" points="122.01 45.56 139 45.56 139 28.56 122.01 28.56 122.01 45.56"/>
  <line class="cls-2" x1="134.75" y1="41.31" x2="134.75" y2="38.21"/>
  <line class="cls-2" x1="134.75" y1="35.93" x2="134.75" y2="32.81"/>
  <line class="cls-2" x1="131.36" y1="39.61" x2="134.75" y2="41.31"/>
  <line class="cls-2" x1="129.66" y1="38.76" x2="126.26" y2="37.06"/>
  <line class="cls-2" x1="131.36" y1="34.51" x2="134.75" y2="32.81"/>
  <line class="cls-2" x1="129.66" y1="35.36" x2="126.26" y2="37.06"/>
  <line class="cls-2" x1="65.37" y1="22.91" x2="65.37" y2="45.56"/>
  <polyline class="cls-2" points="66.8 34.23 66.77 34.06 66.76 33.86 66.68 33.68 66.61 33.53 66.51 33.38 66.37 33.23 66.26 33.11 66.08 33.01 65.93 32.93 65.76 32.86 65.55 32.83 65.37 32.81 65.21 32.83 65.01 32.86 64.83 32.93 64.68 33.01 64.52 33.11 64.37 33.23 64.26 33.38 64.15 33.53 64.08 33.68 64.01 33.86 63.97 34.06 63.96 34.23 63.97 34.41 64.01 34.61 64.08 34.78 64.15 34.93 64.26 35.08 64.37 35.23 64.52 35.36 64.68 35.46 64.83 35.53 65.01 35.61 65.21 35.63 65.37 35.66 65.55 35.63 65.76 35.61 65.93 35.53 66.08 35.46 66.26 35.36 66.37 35.23 66.51 35.08 66.61 34.93 66.68 34.78 66.76 34.61 66.77 34.41 66.8 34.23"/>
  <polyline class="cls-2" points="64.61 33.06 66.15 33.06 64.33 33.28 66.43 33.28 64.15 33.53 66.61 33.53 64.05 33.76 66.71 33.76 63.97 34.01 66.77 34.01 63.96 34.23 66.8 34.23 63.97 34.46 66.77 34.46 64.05 34.71 66.71 34.71 64.15 34.93 66.61 34.93 64.33 35.18 66.43 35.18 64.61 35.41 66.15 35.41"/>
  <polyline class="cls-2" points="62.02 42.73 62.37 42.28 62.66 41.81 62.87 41.28 63.02 40.73 63.11 40.18 63.11 39.61 63.02 39.06 62.87 38.51 62.66 37.98 62.37 37.51 62.02 37.06"/>
  <polyline class="cls-2" points="68.72 37.06 68.37 37.51 68.11 37.98 67.87 38.51 67.72 39.06 67.65 39.61 67.65 40.18 67.72 40.73 67.87 41.28 68.11 41.81 68.37 42.28 68.72 42.73"/>
  <polyline class="cls-2" points="73.36 42.73 73.71 42.28 74.01 41.81 74.21 41.28 74.36 40.73 74.43 40.18 74.43 39.61 74.36 39.06 74.21 38.51 74.01 37.98 73.71 37.51 73.36 37.06"/>
  <polyline class="cls-2" points="80.05 37.06 79.71 37.51 79.43 37.98 79.21 38.51 79.05 39.06 78.97 39.61 78.97 40.18 79.05 40.73 79.21 41.28 79.43 41.81 79.71 42.28 80.05 42.73"/>
  <polyline class="cls-2" points="37.05 45.56 14.41 45.56 14.41 22.91 37.05 22.91 37.05 45.56"/>
  <line class="cls-2" x1="31.41" y1="45.56" x2="31.41" y2="39.91"/>
  <line class="cls-2" x1="28.57" y1="39.91" x2="34.23" y2="39.88"/>
  <line class="cls-2" x1="20.07" y1="45.56" x2="20.07" y2="39.91"/>
  <line class="cls-2" x1="17.25" y1="39.91" x2="22.9" y2="39.88"/>
  <line class="cls-2" x1="31.41" y1="22.91" x2="31.41" y2="28.56"/>
  <line class="cls-2" x1="34.23" y1="28.58" x2="28.57" y2="28.56"/>
  <line class="cls-2" x1="20.07" y1="22.91" x2="20.07" y2="28.56"/>
  <line class="cls-2" x1="22.9" y1="28.58" x2="17.25" y2="28.56"/>
  <polyline class="cls-2" points="14.41 39.91 13.22 34.23 10.88 45.56 8.5 34.23 6.16 45.56 3.81 34.23 1.43 45.56 .25 39.91"/>
</svg>