<?xml version="1.0" encoding="UTF-8"?>
<svg id="Layer_1" data-name="Layer 1" xmlns="http://www.w3.org/2000/svg" viewBox="0 0 74.16 44.43">
  <defs>
    <style>
      .cls-1 {
        fill: none;
        stroke: #000;
        stroke-linecap: round;
        stroke-linejoin: round;
        stroke-width: .51px;
      }
    </style>
  </defs>
  <line class="cls-1" x1="17.93" y1="8.82" x2="17.93" y2="32.4"/>
  <line class="cls-1" x1="6.15" y1="8.82" x2="6.15" y2="32.4"/>
  <line class="cls-1" x1=".25" y1="8.82" x2="53.27" y2="8.82"/>
  <line class="cls-1" x1="53.27" y1="8.82" x2="53.27" y2="17.67"/>
  <line class="cls-1" x1="53.27" y1="23.55" x2="53.27" y2="32.4"/>
  <line class="cls-1" x1="53.27" y1="32.4" x2=".25" y2="32.4"/>
  <line class="cls-1" x1="3.21" y1="32.4" x2="3.21" y2="44.17"/>
  <line class="cls-1" x1="50.32" y1="32.4" x2="50.32" y2="44.17"/>
  <line class="cls-1" x1="20.87" y1="17.67" x2="73.91" y2="17.67"/>
  <line class="cls-1" x1="73.91" y1="17.67" x2="73.91" y2="23.55"/>
  <line class="cls-1" x1="73.91" y1="23.55" x2="20.87" y2="23.55"/>
  <line class="cls-1" x1=".25" y1="8.82" x2=".25" y2="32.4"/>
  <line class="cls-1" x1="6.15" y1="14.72" x2="3.21" y2="14.72"/>
  <line class="cls-1" x1="3.21" y1="14.72" x2="3.21" y2="26.5"/>
  <line class="cls-1" x1="3.21" y1="26.5" x2="6.15" y2="26.5"/>
  <line class="cls-1" x1="17.93" y1="14.72" x2="20.87" y2="14.72"/>
  <line class="cls-1" x1="20.87" y1="14.72" x2="20.87" y2="26.5"/>
  <line class="cls-1" x1="20.87" y1="26.5" x2="17.93" y2="26.5"/>
  <line class="cls-1" x1="6.15" y1="41.22" x2="16.3" y2="5.67"/>
  <polyline points="14.8 5.22 17.83 6.1 17.93 0 14.8 5.22"/>
</svg>