<?xml version="1.0" encoding="UTF-8"?>
<svg id="Layer_1" data-name="Layer 1" xmlns="http://www.w3.org/2000/svg" viewBox="0 0 45.79 34.46">
  <defs>
    <style>
      .cls-1 {
        fill: none;
        stroke: #000;
        stroke-linecap: round;
        stroke-linejoin: round;
        stroke-width: .51px;
      }
    </style>
  </defs>
  <line class="cls-1" x1="11.59" y1=".25" x2="11.59" y2="34.2"/>
  <line class="cls-1" x1="28.56" y1="14.69" x2="45.54" y2="14.69"/>
  <line class="cls-1" x1="28.56" y1="19.78" x2="45.54" y2="19.78"/>
  <line class="cls-1" x1="45.54" y1="14.69" x2="45.54" y2="19.78"/>
  <polyline class="cls-1" points="11.59 34.2 13.78 34.05 15.98 33.63 18.08 32.9 20.06 31.93 21.91 30.7 23.58 29.23 25.06 27.55 26.28 25.7 27.25 23.73 27.99 21.63 28.41 19.45 28.56 17.23 28.41 15 27.99 12.83 27.25 10.73 26.28 8.73 25.06 6.9 23.58 5.23 21.91 3.75 20.06 2.53 18.08 1.55 15.98 .83 13.78 .4 11.59 .25"/>
  <polyline class="cls-1" points="32.8 29.95 34.29 27.68 35.48 25.23 36.34 22.63 36.86 19.95 37.04 17.23 36.86 14.5 36.34 11.83 35.48 9.23 34.29 6.78 32.8 4.5"/>
  <polyline points="33.66 8.73 36.75 7.05 32.8 4.5 33.66 8.73"/>
  <polyline points="33.66 25.7 36.75 27.4 32.8 29.95 33.66 25.7"/>
  <line class="cls-1" x1="11.59" y1="8.73" x2=".25" y2="8.73"/>
  <line class="cls-1" x1="11.59" y1="25.7" x2=".25" y2="25.7"/>
</svg>