<?xml version="1.0" encoding="UTF-8"?>
<svg id="Layer_1" data-name="Layer 1" xmlns="http://www.w3.org/2000/svg" viewBox="0 0 102.38 34.46">
  <defs>
    <style>
      .cls-1 {
        fill: none;
        stroke: #000;
        stroke-linecap: round;
        stroke-linejoin: round;
        stroke-width: .51px;
      }

      .cls-2 {
        font-family: ArialMT, Arial;
        font-size: 7.91px;
      }
    </style>
  </defs>
  <line class="cls-1" x1="4.77" y1="5.9" x2="4.77" y2="8.75"/>
  <line class="cls-1" x1="10.42" y1="5.9" x2="10.42" y2="8.75"/>
  <polyline class="cls-1" points="10.45 5.9 10.42 5.55 10.36 5.19 10.23 4.83 10.06 4.5 9.86 4.19 9.61 3.9 9.32 3.69 9.03 3.45 8.7 3.3 8.36 3.19 7.98 3.11 7.6 3.08 7.25 3.11 6.87 3.19 6.52 3.3 6.21 3.45 5.87 3.69 5.6 3.9 5.37 4.19 5.16 4.5 5 4.83 4.87 5.19 4.81 5.55 4.77 5.9"/>
  <line class="cls-1" x1=".25" y1="22.88" x2="22.9" y2=".25"/>
  <polyline class="cls-1" points=".25 22.88 22.9 22.88 22.9 .25 .25 .25 .25 22.88"/>
  <text class="cls-2" transform="translate(12.45 20.06)"><tspan x="0" y="0">G</tspan></text>
  <line class="cls-1" x1="51.17" y1=".25" x2="51.17" y2="22.88"/>
  <line class="cls-1" x1="39.88" y1=".25" x2="39.88" y2="22.88"/>
  <line class="cls-1" x1="34.2" y1="22.88" x2="34.2" y2=".25"/>
  <line class="cls-1" x1="34.2" y1=".25" x2="85.16" y2=".25"/>
  <line class="cls-1" x1="85.16" y1=".25" x2="85.16" y2="8.75"/>
  <line class="cls-1" x1="85.16" y1="14.4" x2="85.16" y2="22.88"/>
  <line class="cls-1" x1="85.16" y1="22.88" x2="34.2" y2="22.88"/>
  <line class="cls-1" x1="37.06" y1="22.88" x2="37.06" y2="34.2"/>
  <line class="cls-1" x1="82.33" y1="22.88" x2="82.33" y2="34.2"/>
  <line class="cls-1" x1="51.17" y1="8.75" x2="102.12" y2="8.75"/>
  <line class="cls-1" x1="102.12" y1="8.75" x2="102.12" y2="14.4"/>
  <line class="cls-1" x1="102.12" y1="14.4" x2="51.17" y2="14.4"/>
  <line class="cls-1" x1="22.9" y1="11.58" x2="34.2" y2="11.58"/>
</svg>