<?xml version="1.0" encoding="UTF-8"?>
<svg id="Layer_1" data-name="Layer 1" xmlns="http://www.w3.org/2000/svg" viewBox="0 0 34.34 62.77">
  <defs>
    <style>
      .cls-1 {
        stroke-width: .43px;
      }

      .cls-1, .cls-2 {
        fill: none;
        stroke: #000;
        stroke-linecap: round;
        stroke-linejoin: round;
      }

      .cls-2 {
        stroke-width: .51px;
      }
    </style>
  </defs>
  <line class="cls-2" x1="17.15" y1="9.16" x2="17.15" y2="15.99"/>
  <line class="cls-2" x1="17.15" y1="21.91" x2=".25" y2="38.84"/>
  <line class="cls-2" x1="34.09" y1="38.84" x2="17.15" y2="55.74"/>
  <line class="cls-2" x1="17.15" y1="55.74" x2=".25" y2="38.84"/>
  <line class="cls-2" x1="34.09" y1="38.84" x2="17.15" y2="21.91"/>
  <line class="cls-1" x1="17.15" y1="62.56" x2="17.15" y2="55.74"/>
  <line class="cls-2" x1=".25" y1="38.84" x2="5.75" y2="38.84"/>
  <line class="cls-2" x1="8.14" y1="38.84" x2="12.59" y2="38.84"/>
  <line class="cls-2" x1="14.93" y1="38.84" x2="19.4" y2="38.84"/>
  <line class="cls-2" x1="21.76" y1="38.84" x2="26.2" y2="38.84"/>
  <line class="cls-2" x1="28.59" y1="38.84" x2="34.09" y2="38.84"/>
  <line class="cls-2" x1="14.21" y1="15.99" x2="17.15" y2="21.91"/>
  <line class="cls-2" x1="17.15" y1="21.91" x2="20.13" y2="15.99"/>
  <line class="cls-2" x1="14.21" y1="15.99" x2="20.13" y2="15.99"/>
  <line class="cls-2" x1="20.13" y1="9.16" x2="17.15" y2="3.24"/>
  <line class="cls-2" x1="17.15" y1="3.24" x2="14.21" y2="9.16"/>
  <line class="cls-2" x1="20.13" y1="9.16" x2="14.21" y2="9.16"/>
  <polyline class="cls-2" points="26.09 3.24 24.48 2.19 22.76 1.36 20.95 .75 19.09 .39 17.15 .25 15.26 .39 13.38 .75 11.59 1.36 9.85 2.19 8.26 3.24"/>
</svg>