<?xml version="1.0" encoding="UTF-8"?>
<svg id="Layer_1" data-name="Layer 1" xmlns="http://www.w3.org/2000/svg" viewBox="0 0 49.25 51.48">
  <defs>
    <style>
      .cls-1 {
        fill: none;
        stroke: #000;
        stroke-linecap: round;
        stroke-linejoin: round;
        stroke-width: .51px;
      }
    </style>
  </defs>
  <polyline points="25.76 8.75 21.51 17.25 29.98 17.25 25.76 8.75"/>
  <polyline class="cls-1" points="42.73 25.72 42.57 23.53 42.16 21.36 41.43 19.23 40.45 17.25 39.23 15.41 37.75 13.73 36.07 12.25 34.23 11.03 32.25 10.05 30.12 9.32 27.95 8.91 25.76 8.75 23.52 8.91 21.35 9.32 19.23 10.05 17.26 11.03 15.41 12.25 13.73 13.73 12.25 15.41 11.03 17.25 10.05 19.23 9.33 21.36 8.91 23.53 8.75 25.75 8.91 27.96 9.33 30.13 10.05 32.25 11.03 34.22 12.25 36.07 13.73 37.75 15.41 39.23 17.26 40.45 19.23 41.43 21.35 42.15 23.52 42.57 25.76 42.73 27.95 42.57 30.12 42.15 32.25 41.43 34.23 40.45 36.07 39.23 37.75 37.75 39.23 36.07 40.45 34.22 41.43 32.25 42.16 30.13 42.57 27.96 42.73 25.72"/>
  <line class="cls-1" x1="25.76" y1="8.75" x2="25.76" y2=".25"/>
  <line class="cls-1" x1="25.76" y1="42.73" x2="25.76" y2="51.22"/>
  <line class="cls-1" x1=".25" y1="28.57" x2="9.03" y2="28.57"/>
  <line class="cls-1" x1=".25" y1="22.9" x2="9.03" y2="22.9"/>
  <line class="cls-1" x1=".25" y1="22.9" x2=".25" y2="28.57"/>
  <polyline class="cls-1" points="45.57 39.9 47.02 36.9 48.11 33.75 48.75 30.47 48.95 27.15 48.75 23.82 48.11 20.55 47.02 17.41 45.57 14.41"/>
  <line class="cls-1" x1="47.82" y1="34.8" x2="47.88" y2="34.72"/>
  <polyline points="49.25 35.36 46.48 34.11 45.57 39.9 49.25 35.36"/>
</svg>