<?xml version="1.0" encoding="UTF-8"?>
<svg id="Layer_1" data-name="Layer 1" xmlns="http://www.w3.org/2000/svg" viewBox="0 0 45.23 57.13">
  <defs>
    <style>
      .cls-1 {
        fill: none;
        stroke: #000;
        stroke-linecap: round;
        stroke-linejoin: round;
        stroke-width: .51px;
      }
    </style>
  </defs>
  <line class="cls-1" x1="44.97" y1="24.11" x2="35.72" y2="24.11"/>
  <line class="cls-1" x1="44.97" y1="30.06" x2="35.72" y2="30.06"/>
  <line class="cls-1" x1="44.97" y1="30.06" x2="44.97" y2="24.11"/>
  <line class="cls-1" x1="18.15" y1="9.21" x2="18.15" y2=".25"/>
  <line class="cls-1" x1="18.15" y1="44.96" x2="18.15" y2="53.91"/>
  <polyline points="18.15 18.13 13.82 9.73 15.97 9.32 18.15 18.13"/>
  <polyline points="18.15 18.13 15.97 9.32 18.15 9.21 18.15 18.13"/>
  <polyline points="18.15 18.13 18.15 9.21 20.3 9.32 18.15 18.13"/>
  <polyline points="18.15 18.13 20.3 9.32 22.46 9.73 18.15 18.13"/>
  <polyline points="18.15 36.03 13.82 44.43 15.97 44.83 18.15 36.03"/>
  <polyline points="18.15 36.03 15.97 44.83 18.15 44.96 18.15 36.03"/>
  <polyline points="18.15 36.03 18.15 44.96 20.3 44.83 18.15 36.03"/>
  <polyline points="18.15 36.03 20.3 44.83 22.46 44.43 18.15 36.03"/>
  <polyline class="cls-1" points="36.02 27.08 35.88 24.75 35.42 22.46 34.67 20.23 33.63 18.13 32.33 16.18 30.8 14.43 29.03 12.88 27.07 11.57 24.97 10.56 22.78 9.81 20.47 9.36 18.15 9.21 15.81 9.36 13.5 9.81 11.31 10.56 9.2 11.57 7.25 12.88 5.5 14.43 3.96 16.18 2.66 18.13 1.6 20.23 .85 22.46 .4 24.75 .25 27.08 .4 29.41 .85 31.71 1.6 33.93 2.66 36.03 3.96 37.96 5.5 39.73 7.25 41.26 9.2 42.56 11.31 43.61 13.5 44.36 15.81 44.81 18.15 44.96 20.47 44.81 22.78 44.36 24.97 43.61 27.07 42.56 29.03 41.26 30.8 39.73 32.33 37.96 33.63 36.03 34.67 33.93 35.42 31.71 35.88 29.41 36.02 27.08"/>
  <line class="cls-1" x1="30.67" y1="39.61" x2="33.06" y2="41.98"/>
  <line class="cls-1" x1="34.76" y1="43.68" x2="37.9" y2="46.83"/>
  <line class="cls-1" x1="39.61" y1="48.53" x2="42.01" y2="50.93"/>
  <line class="cls-1" x1="42.01" y1="50.93" x2="42.01" y2="56.88"/>
</svg>