<?xml version="1.0" encoding="UTF-8"?>
<svg id="Layer_1" data-name="Layer 1" xmlns="http://www.w3.org/2000/svg" viewBox="0 0 42.99 51.48">
  <defs>
    <style>
      .cls-1 {
        fill: none;
        stroke: #000;
        stroke-linecap: round;
        stroke-linejoin: round;
        stroke-width: .51px;
      }
    </style>
  </defs>
  <line class="cls-1" x1="42.74" y1="22.9" x2="33.96" y2="22.9"/>
  <line class="cls-1" x1="42.74" y1="28.57" x2="33.96" y2="28.57"/>
  <line class="cls-1" x1="42.74" y1="28.57" x2="42.74" y2="22.9"/>
  <line class="cls-1" x1="17.26" y1="8.75" x2="17.26" y2=".25"/>
  <line class="cls-1" x1="17.26" y1="42.73" x2="17.26" y2="51.22"/>
  <polyline points="17.26 17.25 13.16 9.25 15.18 8.87 17.26 17.25"/>
  <polyline points="17.26 17.25 15.18 8.87 17.26 8.75 17.26 17.25"/>
  <polyline points="17.26 17.25 17.26 8.75 19.3 8.87 17.26 17.25"/>
  <polyline points="17.26 17.25 19.3 8.87 21.34 9.25 17.26 17.25"/>
  <polyline points="17.26 34.22 13.16 42.23 15.18 42.61 17.26 34.22"/>
  <polyline points="17.26 34.22 15.18 42.61 17.26 42.73 17.26 34.22"/>
  <polyline points="17.26 34.22 17.26 42.73 19.3 42.61 17.26 34.22"/>
  <polyline points="17.26 34.22 19.3 42.61 21.34 42.23 17.26 34.22"/>
  <polyline class="cls-1" points="34.24 25.72 34.08 23.53 33.65 21.36 32.94 19.23 31.96 17.25 30.74 15.41 29.26 13.73 27.59 12.25 25.74 11.03 23.76 10.05 21.63 9.32 19.45 8.91 17.26 8.75 15.03 8.91 12.86 9.32 10.75 10.05 8.75 11.03 6.91 12.25 5.23 13.73 3.75 15.41 2.53 17.25 1.55 19.23 .83 21.36 .4 23.53 .25 25.75 .4 27.96 .83 30.13 1.55 32.25 2.53 34.22 3.75 36.07 5.23 37.75 6.91 39.23 8.75 40.45 10.75 41.43 12.86 42.15 15.03 42.57 17.26 42.73 19.45 42.57 21.63 42.15 23.76 41.43 25.74 40.45 27.59 39.23 29.26 37.75 30.74 36.07 31.96 34.22 32.94 32.25 33.65 30.13 34.08 27.96 34.24 25.72"/>
</svg>