<?xml version="1.0" encoding="UTF-8"?>
<svg id="Layer_1" data-name="Layer 1" xmlns="http://www.w3.org/2000/svg" viewBox="0 0 45.76 23.13">
  <defs>
    <style>
      .cls-1 {
        fill: none;
        stroke: #000;
        stroke-linecap: round;
        stroke-linejoin: round;
        stroke-width: .51px;
      }
    </style>
  </defs>
  <polyline class="cls-1" points="34.2 11.55 34.11 10.07 33.8 8.62 33.34 7.22 32.68 5.9 31.85 4.68 30.89 3.57 29.75 2.61 28.53 1.78 27.2 1.11 25.81 .62 24.35 .36 22.89 .25 21.41 .36 19.95 .62 18.56 1.11 17.24 1.78 16.01 2.61 14.89 3.57 13.9 4.68 13.09 5.9 12.43 7.22 11.95 8.62 11.65 10.07 11.56 11.55 11.65 13.05 11.95 14.5 12.43 15.9 13.09 17.22 13.9 18.45 14.89 19.55 16.01 20.52 17.24 21.35 18.56 22.02 19.95 22.5 21.41 22.77 22.89 22.87 24.35 22.77 25.81 22.5 27.2 22.02 28.53 21.35 29.75 20.52 30.89 19.55 31.85 18.45 32.68 17.22 33.34 15.9 33.8 14.5 34.11 13.05 34.2 11.55"/>
  <polyline class="cls-1" points="30.81 19.77 30.31 18.75 29.7 17.8 28.95 16.95 28.14 16.2 27.18 15.55 26.18 15.05 25.1 14.7 24 14.47 22.89 14.4 21.75 14.47 20.66 14.7 19.58 15.05 18.58 15.55 17.64 16.2 16.81 16.95 16.06 17.8 15.45 18.75 14.95 19.77"/>
  <polyline class="cls-1" points="14.95 3.36 15.45 4.37 16.06 5.32 16.81 6.18 17.64 6.93 18.58 7.57 19.58 8.07 20.66 8.43 21.75 8.65 22.89 8.72 24 8.65 25.1 8.43 26.18 8.07 27.18 7.57 28.14 6.93 28.95 6.18 29.7 5.32 30.31 4.37 30.81 3.36"/>
  <line class="cls-1" x1="34.2" y1="11.55" x2="45.5" y2="11.55"/>
  <line class="cls-1" x1="11.56" y1="11.55" x2=".25" y2="11.55"/>
</svg>