<?xml version="1.0" encoding="UTF-8"?>
<svg id="Layer_1" data-name="Layer 1" xmlns="http://www.w3.org/2000/svg" viewBox="0 0 23.13 54.23">
  <defs>
    <style>
      .cls-1 {
        fill: none;
        stroke: #000;
        stroke-linecap: round;
        stroke-linejoin: round;
        stroke-width: .51px;
      }
    </style>
  </defs>
  <polyline class="cls-1" points="22.87 20.05 22.77 18.57 22.51 17.12 22.02 15.73 21.35 14.41 20.52 13.16 19.55 12.05 18.45 11.07 17.22 10.25 15.91 9.61 14.5 9.12 13.05 8.82 11.58 8.73 10.08 8.82 8.62 9.12 7.22 9.61 5.9 10.25 4.67 11.07 3.57 12.05 2.61 13.16 1.77 14.41 1.1 15.73 .63 17.12 .35 18.57 .25 20.05"/>
  <line class="cls-1" x1=".25" y1="20.05" x2=".25" y2="42.68"/>
  <line class="cls-1" x1="22.87" y1="20.05" x2="22.87" y2="42.68"/>
  <polyline class="cls-1" points="14.41 36.16 8.72 36.16 11.58 31.36 14.41 36.16"/>
  <polyline class="cls-1" points=".25 42.68 .35 44.16 .63 45.61 1.1 47.01 1.77 48.33 2.61 49.56 3.57 50.66 4.67 51.66 5.9 52.46 7.22 53.13 8.62 53.61 10.08 53.88 11.58 53.98 13.05 53.88 14.5 53.61 15.91 53.13 17.22 52.46 18.45 51.66 19.55 50.66 20.52 49.56 21.35 48.33 22.02 47.01 22.51 45.61 22.77 44.16 22.87 42.68"/>
  <line class="cls-1" x1="11.58" y1="8.73" x2="11.58" y2=".25"/>
</svg>