<?xml version="1.0" encoding="UTF-8"?>
<svg id="Layer_1" data-name="Layer 1" xmlns="http://www.w3.org/2000/svg" viewBox="0 0 45.81 7.58">
  <defs>
    <style>
      .cls-1 {
        fill: none;
        stroke: #000;
        stroke-linecap: round;
        stroke-linejoin: round;
        stroke-width: .51px;
      }
    </style>
  </defs>
  <polyline class="cls-1" points="35.66 1.68 35.63 1.48 35.61 1.31 35.52 1.13 35.45 .96 35.36 .81 35.22 .68 35.07 .56 34.93 .46 34.77 .36 34.61 .31 34.41 .25 34.22 .25 34.06 .25 33.86 .31 33.68 .36 33.52 .46 33.38 .56 33.22 .68 33.11 .81 33 .96 32.93 1.13 32.86 1.31 32.82 1.48 32.81 1.68 32.82 1.86 32.86 2.02 32.93 2.21 33 2.38 33.11 2.52 33.22 2.68 33.38 2.81 33.52 2.91 33.68 2.98 33.86 3.02 34.06 3.08 34.22 3.08 34.41 3.08 34.61 3.02 34.77 2.98 34.93 2.91 35.07 2.81 35.22 2.68 35.36 2.52 35.45 2.38 35.52 2.21 35.61 2.02 35.63 1.86 35.66 1.68"/>
  <polyline class="cls-1" points="33.45 .48 35 .48 33.18 .73 35.27 .73 33 .96 35.45 .96 32.91 1.21 35.56 1.21 32.82 1.43 35.63 1.43 32.81 1.68 35.66 1.68 32.82 1.91 35.63 1.91 32.91 2.13 35.56 2.13 33 2.38 35.45 2.38 33.18 2.61 35.27 2.61 33.45 2.86 35 2.86"/>
  <polyline class="cls-1" points="13 1.68 12.97 1.48 12.95 1.31 12.87 1.13 12.8 .96 12.7 .81 12.58 .68 12.42 .56 12.28 .46 12.12 .36 11.95 .31 11.75 .25 11.58 .25 11.41 .25 11.2 .31 11.03 .36 10.87 .46 10.72 .56 10.58 .68 10.45 .81 10.36 .96 10.28 1.13 10.2 1.31 10.17 1.48 10.16 1.68 10.17 1.86 10.2 2.02 10.28 2.21 10.36 2.38 10.45 2.52 10.58 2.68 10.72 2.81 10.87 2.91 11.03 2.98 11.2 3.02 11.41 3.08 11.58 3.08 11.75 3.08 11.95 3.02 12.12 2.98 12.28 2.91 12.42 2.81 12.58 2.68 12.7 2.52 12.8 2.38 12.87 2.21 12.95 2.02 12.97 1.86 13 1.68"/>
  <polyline class="cls-1" points="10.8 .48 12.36 .48 10.53 .73 12.62 .73 10.36 .96 12.8 .96 10.25 1.21 12.91 1.21 10.17 1.43 12.97 1.43 10.16 1.68 13 1.68 10.17 1.91 12.97 1.91 10.25 2.13 12.91 2.13 10.36 2.38 12.8 2.38 10.53 2.61 12.62 2.61 10.8 2.86 12.36 2.86"/>
  <polyline class="cls-1" points="11.58 1.68 12.8 3.08 14.2 4.33 15.75 5.38 17.43 6.23 19.2 6.83 21.02 7.21 22.91 7.33 24.77 7.21 26.6 6.83 28.37 6.23 30.05 5.38 31.6 4.33 33 3.08 34.22 1.68"/>
  <line class="cls-1" x1="11.58" y1="1.68" x2=".25" y2="1.68"/>
  <line class="cls-1" x1="34.22" y1="1.68" x2="45.56" y2="1.68"/>
</svg>