<?xml version="1.0" encoding="UTF-8"?>
<svg id="Layer_1" data-name="Layer 1" xmlns="http://www.w3.org/2000/svg" viewBox="0 0 50.88 34.46">
  <defs>
    <style>
      .cls-1 {
        fill: none;
        stroke: #000;
        stroke-linecap: round;
        stroke-linejoin: round;
        stroke-width: .51px;
      }
    </style>
  </defs>
  <line class="cls-1" x1="39.31" y1=".25" x2="39.31" y2="34.2"/>
  <polyline class="cls-1" points="39.31 .25 37.11 .4 34.9 .83 32.81 1.55 30.82 2.53 28.97 3.75 27.3 5.23 25.82 6.9 24.61 8.73 23.63 10.73 22.9 12.83 22.47 15 22.32 17.23 22.47 19.45 22.9 21.63 23.63 23.73 24.61 25.73 25.82 27.55 27.3 29.23 28.97 30.7 30.82 31.93 32.81 32.9 34.9 33.63 37.11 34.05 39.31 34.2"/>
  <polyline class="cls-1" points="5.91 3.08 5.87 2.7 5.83 2.36 5.71 2 5.52 1.69 5.33 1.35 5.08 1.08 4.81 .83 4.5 .64 4.17 .48 3.83 .35 3.45 .28 3.08 .25 2.7 .28 2.36 .35 2 .48 1.67 .64 1.35 .83 1.07 1.08 .82 1.35 .62 1.69 .47 2 .35 2.36 .27 2.7 .25 3.08 .27 3.45 .35 3.8 .47 4.15 .62 4.5 .82 4.8 1.07 5.08 1.35 5.33 1.67 5.53 2 5.7 2.36 5.8 2.7 5.88 3.08 5.9 3.45 5.88 3.83 5.8 4.17 5.7 4.5 5.53 4.81 5.33 5.08 5.08 5.33 4.8 5.52 4.5 5.71 4.15 5.83 3.8 5.87 3.45 5.91 3.08"/>
  <line class="cls-1" x1="22.9" y1="20.05" x2="7.91" y2="20.05"/>
  <line class="cls-1" x1="8.75" y1="22.88" x2="3.92" y2="5.63"/>
  <line class="cls-1" x1="6.48" y1="14.4" x2="22.9" y2="14.4"/>
  <polyline points="33.65 11.58 39.31 8.73 33.65 5.9 33.65 11.58"/>
  <line class="cls-1" x1="39.31" y1="8.73" x2="50.63" y2="8.73"/>
  <line class="cls-1" x1="39.31" y1="25.73" x2="50.63" y2="25.73"/>
</svg>