<?xml version="1.0" encoding="UTF-8"?>
<svg id="Layer_1" data-name="Layer 1" xmlns="http://www.w3.org/2000/svg" viewBox="0 0 28.78 23.13">
  <defs>
    <style>
      .cls-1 {
        fill: none;
        stroke: #000;
        stroke-linecap: round;
        stroke-linejoin: round;
        stroke-width: .51px;
      }
    </style>
  </defs>
  <line class="cls-1" x1=".25" y1="11.55" x2="8.72" y2="11.55"/>
  <polyline class="cls-1" points="11 11.55 10.97 11.27 10.92 10.97 10.83 10.7 10.7 10.43 10.53 10.18 10.33 9.97 10.11 9.77 9.87 9.6 9.61 9.47 9.33 9.37 9.03 9.32 8.72 9.3 8.42 9.32 8.15 9.37 7.88 9.47 7.61 9.6 7.36 9.77 7.13 9.97 6.96 10.18 6.78 10.43 6.65 10.7 6.55 10.97 6.51 11.27 6.47 11.57 6.51 11.85 6.55 12.15 6.65 12.43 6.78 12.7 6.96 12.95 7.13 13.15 7.36 13.35 7.61 13.52 7.88 13.65 8.15 13.75 8.42 13.8 8.72 13.82 9.03 13.8 9.33 13.75 9.61 13.65 9.87 13.52 10.11 13.35 10.33 13.15 10.53 12.95 10.7 12.7 10.83 12.43 10.92 12.15 10.97 11.85 11 11.55"/>
  <polyline class="cls-1" points="7.71 9.55 9.78 9.55 7.3 9.8 10.16 9.8 7.05 10.05 10.42 10.05 6.86 10.3 10.62 10.3 6.71 10.55 10.75 10.55 6.61 10.8 10.87 10.8 6.53 11.05 10.95 11.05 6.47 11.3 10.97 11.3 6.47 11.55 11 11.55 6.47 11.82 10.97 11.82 6.53 12.07 10.95 12.07 6.61 12.32 10.87 12.32 6.71 12.57 10.75 12.57 6.86 12.82 10.62 12.82 7.05 13.07 10.42 13.07 7.3 13.32 10.16 13.32 7.71 13.57 9.78 13.57"/>
  <line class="cls-1" x1="8.72" y1="11.55" x2="20.05" y2="11.55"/>
  <line class="cls-1" x1="8.72" y1=".25" x2="8.72" y2="11.55"/>
  <polyline class="cls-1" points="22.3 11.55 22.27 11.27 22.22 10.97 22.12 10.7 22.01 10.43 21.83 10.18 21.66 9.97 21.43 9.77 21.18 9.6 20.91 9.47 20.62 9.37 20.35 9.32 20.05 9.3 19.76 9.32 19.45 9.37 19.18 9.47 18.91 9.6 18.68 9.77 18.45 9.97 18.26 10.18 18.08 10.43 17.95 10.7 17.85 10.97 17.8 11.27 17.77 11.57 17.8 11.85 17.85 12.15 17.95 12.43 18.08 12.7 18.26 12.95 18.45 13.15 18.68 13.35 18.91 13.52 19.18 13.65 19.45 13.75 19.76 13.8 20.05 13.82 20.35 13.8 20.62 13.75 20.91 13.65 21.18 13.52 21.43 13.35 21.66 13.15 21.83 12.95 22.01 12.7 22.12 12.43 22.22 12.15 22.27 11.85 22.3 11.55"/>
  <polyline class="cls-1" points="19.01 9.55 21.08 9.55 18.62 9.8 21.47 9.8 18.35 10.05 21.72 10.05 18.16 10.3 21.93 10.3 18.02 10.55 22.08 10.55 17.91 10.8 22.18 10.8 17.83 11.05 22.26 11.05 17.8 11.3 22.3 11.3 17.77 11.55 22.3 11.55 17.8 11.82 22.3 11.82 17.83 12.07 22.26 12.07 17.91 12.32 22.18 12.32 18.02 12.57 22.08 12.57 18.16 12.82 21.93 12.82 18.35 13.07 21.72 13.07 18.62 13.32 21.47 13.32 19.01 13.57 21.08 13.57"/>
  <line class="cls-1" x1="20.05" y1="11.55" x2="28.52" y2="11.55"/>
  <line class="cls-1" x1="20.05" y1="22.87" x2="20.05" y2="11.55"/>
</svg>