<?xml version="1.0" encoding="UTF-8"?>
<svg id="Layer_1" data-name="Layer 1" xmlns="http://www.w3.org/2000/svg" viewBox="0 0 227.23 227.23">
  <defs>
    <style>
      .cls-1 {
        fill: none;
        stroke: #000;
        stroke-linecap: round;
        stroke-linejoin: round;
        stroke-width: .51px;
      }
    </style>
  </defs>
  <line class="cls-1" x1=".25" y1="113.6" x2="226.97" y2="113.6"/>
  <polyline class="cls-1" points="113.63 141.95 117.31 141.7 120.96 140.98 124.46 139.81 127.78 138.16 130.87 136.1 133.65 133.66 136.11 130.88 138.15 127.77 139.81 124.45 140.97 120.95 141.7 117.31 141.95 113.6 141.7 109.92 140.97 106.27 139.81 102.77 138.15 99.45 136.11 96.36 133.65 93.58 130.87 91.12 127.78 89.08 124.46 87.42 120.96 86.25 117.31 85.53 113.63 85.28"/>
  <line class="cls-1" x1="113.63" y1="226.97" x2="113.6" y2="141.95"/>
  <polyline class="cls-1" points="113.63 141.95 117.31 141.7 120.96 140.98 124.46 139.81 127.78 138.16 130.87 136.1 133.65 133.66 136.11 130.88 138.15 127.77 139.81 124.45 140.97 120.95 141.7 117.31 141.95 113.6 141.7 109.92 140.97 106.27 139.81 102.77 138.15 99.45 136.11 96.36 133.65 93.58 130.87 91.12 127.78 89.08 124.46 87.42 120.96 86.25 117.31 85.53 113.63 85.28"/>
  <line class="cls-1" x1="113.6" y1="85.28" x2="113.63" y2=".25"/>
</svg>