<?xml version="1.0" encoding="UTF-8"?>
<svg id="Layer_1" data-name="Layer 1" xmlns="http://www.w3.org/2000/svg" viewBox="0 0 113.83 142.16">
  <defs>
    <style>
      .cls-1 {
        fill: none;
        stroke: #000;
        stroke-linecap: round;
        stroke-linejoin: round;
        stroke-width: .51px;
      }
    </style>
  </defs>
  <line class="cls-1" x1=".25" y1="141.9" x2="113.57" y2="141.9"/>
  <line class="cls-1" x1="113.57" y1="141.9" x2="113.57" y2="56.9"/>
  <line class="cls-1" x1="113.57" y1="56.9" x2=".25" y2="56.9"/>
  <line class="cls-1" x1=".25" y1="56.9" x2=".25" y2="141.9"/>
  <line class="cls-1" x1="28.58" y1="56.9" x2="28.58" y2="28.58"/>
  <line class="cls-1" x1="85.25" y1="56.9" x2="85.25" y2="28.58"/>
  <polyline class="cls-1" points="85.25 28.58 85 24.88 84.28 21.25 83.07 17.75 81.46 14.43 79.41 11.33 76.96 8.55 74.16 6.1 71.07 4.05 67.75 2.4 64.25 1.23 60.61 .5 56.93 .25 53.22 .5 49.57 1.23 46.07 2.4 42.75 4.05 39.68 6.1 36.88 8.55 34.43 11.33 32.38 14.43 30.76 17.75 29.55 21.25 28.83 24.88 28.58 28.58"/>
  <polyline class="cls-1" points="71.07 99.4 70.96 97.55 70.6 95.75 70 93.98 69.17 92.33 68.16 90.78 66.92 89.4 65.53 88.18 64 87.15 62.32 86.33 60.57 85.73 58.75 85.35 56.93 85.25 55.07 85.35 53.25 85.73 51.5 86.33 49.82 87.15 48.31 88.18 46.91 89.4 45.68 90.78 44.66 92.33 43.82 93.98 43.22 95.75 42.88 97.55 42.75 99.4 42.88 101.25 43.22 103.08 43.82 104.83 44.66 106.48 45.68 108.03 46.91 109.43 48.31 110.65 49.82 111.68 51.5 112.5 53.25 113.08 55.07 113.45 56.93 113.58 58.75 113.45 60.57 113.08 62.32 112.5 64 111.68 65.53 110.65 66.92 109.43 68.16 108.03 69.17 106.48 70 104.83 70.6 103.08 70.96 101.25 71.07 99.4"/>
  <polyline class="cls-1" points="49.07 87.6 64.75 87.6 46.36 89.95 67.47 89.95 44.66 92.33 69.17 92.33 43.56 94.68 70.28 94.68 42.95 97.05 70.88 97.05 42.75 99.4 71.07 99.4 42.95 101.78 70.88 101.78 43.56 104.13 70.28 104.13 44.66 106.48 69.17 106.48 46.36 108.85 67.47 108.85 49.07 111.2 64.75 111.2"/>
</svg>