<?xml version="1.0" standalone="no"?>
<!DOCTYPE svg PUBLIC "-//W3C//DTD SVG 1.1//EN" "http://www.w3.org/Graphics/SVG/1.1/DTD/svg11.dtd">
<svg xmlns="http://www.w3.org/2000/svg" xmlns:xlink="http://www.w3.org/1999/xlink" viewBox="0 0 1225.4597 855.1479" height="106.8935mm" width="153.1825mm">
<title>M451902</title>
<g style="stroke-linejoin: round; stroke-linecap: round; fill: none; stroke: black; stroke-width: 2;" transform="translate(615.3181,514.1479)">
<circle cx="-500" cy="-60" r="10" fill="rgb(255,255,255)" />
<text x="-539" y="-65.85" alignment-baseline="after-edge" dominant-baseline="after-edge" text-anchor="start" font-family="Arial" stroke="none" fill="black" font-size="42">T</text>
<circle cx="-280" cy="-460" r="10" fill="rgb(255,255,255)" />
<text x="-280.14" y="-465.85" alignment-baseline="after-edge" dominant-baseline="after-edge" text-anchor="start" font-family="Arial" stroke="none" fill="black" font-size="42">B</text>
<circle cx="-320" cy="-460" r="10" fill="rgb(255,255,255)" />
<text x="-360.14" y="-465.85" alignment-baseline="after-edge" dominant-baseline="after-edge" text-anchor="start" font-family="Arial" stroke="none" fill="black" font-size="42">A</text>
<rect x="-200" y="-100" width="80" height="80" />
<line x1="-120" y1="-40" x2="-140" y2="-40" />
<line x1="-140" y1="-49" x2="-140" y2="-31" />
<line x1="-120" y1="-80" x2="-140" y2="-80" />
<line x1="-140" y1="-89" x2="-140" y2="-71" />
<line x1="-200" y1="-40" x2="-180" y2="-40" />
<line x1="-180" y1="-49" x2="-180" y2="-31" />
<line x1="-200" y1="-80" x2="-180" y2="-80" />
<line x1="-180" y1="-89" x2="-180" y2="-71" />
<polyline points="-200,-60 -180,-55 -180,-65 -200,-60" fill="black" />
<line x1="-120" y1="-60" x2="-180" y2="-60" fill="black" />
<rect x="-200" y="-20" width="80" height="80" />
<line x1="-200" y1="20" x2="-180" y2="20" />
<line x1="-180" y1="26" x2="-180" y2="14" />
<line x1="-120" y1="20" x2="-140" y2="20" />
<line x1="-140" y1="26" x2="-140" y2="14" />
<polyline points="-120,40 -135.65,26.58 -140.12,35.53 -120,40" fill="black" />
<line x1="-200" y1="0" x2="-137.89" y2="31.06" fill="black" />
<polyline points="-200,40 -179.88,35.53 -184.35,26.58 -200,40" fill="black" />
<line x1="-120" y1="0" x2="-182.11" y2="31.06" fill="black" />
<rect x="-200" y="-180" width="80" height="80" />
<line x1="-120" y1="-140" x2="-140" y2="-140" />
<line x1="-140" y1="-131" x2="-140" y2="-149" />
<line x1="-200" y1="-140" x2="-180" y2="-140" />
<line x1="-180" y1="-131" x2="-180" y2="-149" />
<polyline points="-200,-160 -180,-155 -180,-165 -200,-160" fill="black" />
<line x1="-120" y1="-160" x2="-180" y2="-160" fill="black" />
<polyline points="-120,-120 -140,-125 -140,-115 -120,-120" fill="black" />
<line x1="-200" y1="-120" x2="-140" y2="-120" fill="black" />
<polyline points="-160,-180 -180,-184.17 -160,-188.33 -140,-192.5 -160,-196.67 -180,-200.83 -160,-205 -140,-209.17 -160,-213.33 -180,-217.5 -160,-221.67 -140,-225.83 -160,-230" />
<line x1="-120" y1="-180" x2="-200" y2="-180" />
<circle cx="-110" cy="130" r="10" />
<line x1="-170" y1="60" x2="-170" y2="113" />
<line x1="-180" y1="110" x2="-119" y2="127" />
<line x1="-150" y1="118" x2="-150" y2="60" />
<line x1="-120" y1="60" x2="-200" y2="60" />
<path d="M -320 -70 A 10 10 1 0 1 -320 -50" />
<polyline points="-200,-40 -200,-40 -320,-40 -320,-50" />
<rect x="400" y="60" width="80" height="80" />
<polyline points="420,140 425,120 415,120 420,140" fill="black" />
<line x1="420" y1="60" x2="420" y2="120" fill="black" />
<polyline points="480,100 484.17,80 488.33,100 492.5,120 496.67,100 500.83,80 505,100 509.17,120 513.33,100 517.5,80 521.67,100 525.83,120 530,100" />
<polyline points="517,46 507.78,64.44 517.54,66.61 517,46" fill="black" />
<line x1="497" y1="136" x2="512.66" y2="65.52" fill="black" />
<line x1="440" y1="-200" x2="440" y2="-207.81" />
<polyline points="466.67,-234.48 440,-207.81 413.33,-234.48" />
<circle cx="440" cy="-226.67" r="13.33" />
<circle cx="570" cy="-60" r="10" fill="rgb(255,255,255)" />
<text x="569.86" y="-65.85" alignment-baseline="after-edge" dominant-baseline="after-edge" text-anchor="start" font-family="Arial" stroke="none" fill="black" font-size="42">P</text>
<circle cx="440" cy="-60" r="5" fill="black" stroke="none" />
<polyline points="440,-200 440,-200 440,-60 440,-60" />
<polyline points="440,60 440,60 440,-60 440,-60" />
<line x1="410" y1="30" x2="370" y2="30" stroke-dashoffset="12" stroke-dasharray="16 8" />
<line x1="370" y1="30" x2="370" y2="100" stroke-dashoffset="9" stroke-dasharray="16 8" />
<line x1="370" y1="100" x2="400" y2="100" stroke-dashoffset="5" stroke-dasharray="16 8" />
<line x1="440" y1="60" x2="410" y2="30" stroke-dashoffset="10.79" stroke-dasharray="16 8" />
<circle cx="80" cy="-460" r="10" fill="rgb(255,255,255)" />
<text x="79.86" y="-465.85" alignment-baseline="after-edge" dominant-baseline="after-edge" text-anchor="start" font-family="Arial" stroke="none" fill="black" font-size="42">B</text>
<circle cx="40" cy="-460" r="10" fill="rgb(255,255,255)" />
<text x="-0.14" y="-465.85" alignment-baseline="after-edge" dominant-baseline="after-edge" text-anchor="start" font-family="Arial" stroke="none" fill="black" font-size="42">A</text>
<rect x="160" y="-100" width="80" height="80" />
<line x1="240" y1="-40" x2="220" y2="-40" />
<line x1="220" y1="-49" x2="220" y2="-31" />
<line x1="240" y1="-80" x2="220" y2="-80" />
<line x1="220" y1="-89" x2="220" y2="-71" />
<line x1="160" y1="-40" x2="180" y2="-40" />
<line x1="180" y1="-49" x2="180" y2="-31" />
<line x1="160" y1="-80" x2="180" y2="-80" />
<line x1="180" y1="-89" x2="180" y2="-71" />
<polyline points="160,-60 180,-55 180,-65 160,-60" fill="black" />
<line x1="240" y1="-60" x2="180" y2="-60" fill="black" />
<rect x="160" y="-20" width="80" height="80" />
<line x1="160" y1="20" x2="180" y2="20" />
<line x1="180" y1="26" x2="180" y2="14" />
<line x1="240" y1="20" x2="220" y2="20" />
<line x1="220" y1="26" x2="220" y2="14" />
<polyline points="240,40 224.35,26.58 219.88,35.53 240,40" fill="black" />
<line x1="160" y1="0" x2="222.11" y2="31.06" fill="black" />
<polyline points="160,40 180.12,35.53 175.65,26.58 160,40" fill="black" />
<line x1="240" y1="0" x2="177.89" y2="31.06" fill="black" />
<rect x="160" y="-180" width="80" height="80" />
<line x1="240" y1="-140" x2="220" y2="-140" />
<line x1="220" y1="-131" x2="220" y2="-149" />
<line x1="160" y1="-140" x2="180" y2="-140" />
<line x1="180" y1="-131" x2="180" y2="-149" />
<polyline points="160,-160 180,-155 180,-165 160,-160" fill="black" />
<line x1="240" y1="-160" x2="180" y2="-160" fill="black" />
<polyline points="240,-120 220,-125 220,-115 240,-120" fill="black" />
<line x1="160" y1="-120" x2="220" y2="-120" fill="black" />
<polyline points="200,-180 180,-184.17 200,-188.33 220,-192.5 200,-196.67 180,-200.83 200,-205 220,-209.17 200,-213.33 180,-217.5 200,-221.67 220,-225.83 200,-230" />
<line x1="240" y1="-180" x2="160" y2="-180" />
<circle cx="250" cy="130" r="10" />
<line x1="190" y1="60" x2="190" y2="113" />
<line x1="180" y1="110" x2="241" y2="127" />
<line x1="210" y1="118" x2="210" y2="60" />
<line x1="240" y1="60" x2="160" y2="60" />
<path d="M 80 -430 A 10 10 1 0 1 80 -410" />
<polyline points="160,-80 160,-80 80,-80 80,-410" />
<path d="M 40 -70 A 10 10 1 0 1 40 -50" />
<path d="M 40 -430 A 10 10 1 0 1 40 -410" />
<polyline points="160,-40 160,-40 40,-40 40,-50" />
<polyline points="40,-70 40,-410" />
<line x1="-500" y1="340" x2="570" y2="340" stroke-dashoffset="47.5" stroke-dasharray="65 10 15 10" />
<polyline points="-200,-60 -200,-60 -370,-60 -370,-60" />
<circle cx="-460" cy="-60" r="5" fill="black" stroke="none" />
<polyline points="-460,-60 -460,-60 -460,300 -40,300 -40,300" />
<circle cx="-40" cy="300" r="5" fill="black" stroke="none" />
<polyline points="-40,300 -40,300 -40,-40 -120,-40 -120,-40" />
<polyline points="-40,300 -40,300 320,300 320,300" />
<circle cx="320" cy="300" r="5" fill="black" stroke="none" />
<polyline points="320,300 320,300 320,-40 240,-40 240,-40" />
<polyline points="320,300 320,300 440,300 440,140 440,140" />
<polyline points="240,-60 240,-60 440,-60 440,-60" />
<polyline points="440,-240 440,-240 440,-420 320,-420 320,-420" />
<polyline points="-120,-60 -120,-60 160,-60 160,-60" />
<circle cx="320" cy="-420" r="5" fill="black" stroke="none" />
<polyline points="320,-420 320,-420 320,-80 240,-80 240,-80" />
<polyline points="-120,-80 -120,-80 -40,-80 -40,-420 320,-420 320,-420" />
<circle cx="-500" cy="-220" r="10" fill="rgb(255,255,255)" />
<text x="-615.32" y="-225.85" alignment-baseline="after-edge" dominant-baseline="after-edge" text-anchor="start" font-family="Arial" stroke="none" fill="black" font-size="42">HPCO</text>
<line x1="-515" y1="-205" x2="-485" y2="-235" fill="rgb(255,255,255)" />
<line x1="-515" y1="-235" x2="-485" y2="-205" fill="rgb(255,255,255)" />
<circle cx="-420" cy="-60" r="20" />
<line x1="-440" y1="-60" x2="-400" y2="-60" />
<circle cx="-370" cy="-60" r="5" fill="black" stroke="none" />
<polyline points="-370,-60 -370,-60 -460,-60 -460,-60" />
<line x1="-370" y1="-220" x2="-370" y2="-60" />
<line x1="-500" y1="-460" x2="-500" y2="-230" stroke-dashoffset="17.5" stroke-dasharray="65 10 15 10" />
<line x1="-370" y1="-220" x2="-490" y2="-220" />
<line x1="40" y1="-430" x2="40" y2="-450" />
<line x1="50" y1="-460" x2="70" y2="-460" stroke-dashoffset="22.5" stroke-dasharray="65 10 15 10" />
<line x1="570" y1="-460" x2="90" y2="-460" stroke-dashoffset="42.5" stroke-dasharray="65 10 15 10" />
<line x1="80" y1="-430" x2="80" y2="-450" />
<line x1="570" y1="340" x2="570" y2="-50" stroke-dashoffset="37.5" stroke-dasharray="65 10 15 10" />
<line x1="570" y1="-460" x2="570" y2="-70" stroke-dashoffset="37.5" stroke-dasharray="65 10 15 10" />
<line x1="440" y1="-60" x2="560" y2="-60" />
<line x1="-500" y1="-460" x2="-330" y2="-460" stroke-dashoffset="47.5" stroke-dasharray="65 10 15 10" />
<line x1="-320" y1="-70" x2="-320" y2="-450" />
<line x1="-310" y1="-460" x2="-290" y2="-460" stroke-dashoffset="22.5" stroke-dasharray="65 10 15 10" />
<line x1="30" y1="-460" x2="-270" y2="-460" stroke-dashoffset="82.5" stroke-dasharray="65 10 15 10" />
<line x1="-200" y1="-80" x2="-280" y2="-80" />
<line x1="-280" y1="-80" x2="-280" y2="-450" />
<line x1="-500" y1="340" x2="-500" y2="-50" stroke-dashoffset="37.5" stroke-dasharray="65 10 15 10" />
<line x1="-500" y1="-210" x2="-500" y2="-70" stroke-dashoffset="12.5" stroke-dasharray="65 10 15 10" />
<line x1="-460" y1="-60" x2="-490" y2="-60" />
</g>
</svg>
