<?xml version="1.0" encoding="UTF-8"?>
<svg id="Layer_1" data-name="Layer 1" xmlns="http://www.w3.org/2000/svg" viewBox="0 0 57.13 15.61">
  <defs>
    <style>
      .cls-1 {
        fill: none;
        stroke: #000;
        stroke-linecap: round;
        stroke-linejoin: round;
        stroke-width: .51px;
      }
    </style>
  </defs>
  <polyline class="cls-1" points="21.33 7.8 21.3 7.3 21.2 6.82 21.05 6.35 20.83 5.92 20.55 5.5 20.22 5.12 19.85 4.8 19.45 4.52 19.01 4.3 18.55 4.15 18.05 4.05 17.55 4.02 17.08 4.05 16.58 4.15 16.12 4.3 15.67 4.52 15.28 4.8 14.91 5.12 14.58 5.5 14.3 5.92 14.08 6.35 13.92 6.82 13.83 7.3 13.78 7.8 13.83 8.3 13.92 8.77 14.08 9.25 14.3 9.67 14.58 10.1 14.91 10.47 15.28 10.8 15.67 11.07 16.12 11.3 16.58 11.45 17.08 11.55 17.55 11.57 18.05 11.55 18.55 11.45 19.01 11.3 19.45 11.07 19.85 10.8 20.22 10.47 20.55 10.1 20.83 9.67 21.05 9.25 21.2 8.77 21.3 8.3 21.33 7.8"/>
  <line class="cls-1" x1="13.78" y1="7.8" x2="11.58" y2="7.8"/>
  <polyline class="cls-1" points="15.36 15.35 22.91 7.8 15.36 .25"/>
  <line class="cls-1" x1="34.22" y1="7.8" x2="22.91" y2="7.8"/>
  <line class="cls-1" x1="28.58" y1="2.15" x2="28.58" y2="13.45"/>
  <polyline class="cls-1" points="43.36 7.8 43.31 7.3 43.2 6.82 43.06 6.35 42.82 5.92 42.56 5.5 42.22 5.12 41.86 4.8 41.45 4.52 41 4.3 40.56 4.15 40.06 4.05 39.57 4.02 39.07 4.05 38.57 4.15 38.13 4.3 37.68 4.52 37.27 4.8 36.91 5.12 36.57 5.5 36.31 5.92 36.07 6.35 35.93 6.82 35.82 7.3 35.81 7.8 35.82 8.3 35.93 8.77 36.07 9.25 36.31 9.67 36.57 10.1 36.91 10.47 37.27 10.8 37.68 11.07 38.13 11.3 38.57 11.45 39.07 11.55 39.57 11.57 40.06 11.55 40.56 11.45 41 11.3 41.45 11.07 41.86 10.8 42.22 10.47 42.56 10.1 42.82 9.67 43.06 9.25 43.2 8.77 43.31 8.3 43.36 7.8"/>
  <line class="cls-1" x1="43.36" y1="7.8" x2="45.56" y2="7.8"/>
  <polyline class="cls-1" points="41.77 .25 34.22 7.8 41.77 15.35"/>
  <line class="cls-1" x1="11.58" y1="7.8" x2=".25" y2="7.8"/>
  <line class="cls-1" x1="45.56" y1="7.8" x2="56.88" y2="7.8"/>
</svg>