<svg xmlns:dc="http://purl.org/dc/elements/1.1/" xmlns:cc="http://creativecommons.org/ns#" xmlns:rdf="http://www.w3.org/1999/02/22-rdf-syntax-ns#" xmlns:svg="http://www.w3.org/2000/svg" xmlns="http://www.w3.org/2000/svg" xmlns:sodipodi="http://sodipodi.sourceforge.net/DTD/sodipodi-0.dtd" xmlns:inkscape="http://www.inkscape.org/namespaces/inkscape" version="1.1" x="0px" y="0px" viewBox="0 0 100 125"><g transform="translate(0,-952.36218)"><path style="color:#ffffff;enable-background:accumulate;" d="m 50,959.36222 c -13.420472,0 -24.21875,11.21956 -24.21875,25.11261 l 0,10.05115 0,0.0305 C 21.334368,995.00951 19,998.80525 19,1003.4162 l 0,33.0558 c 0,4.9185 3.935857,8.8902 8.80957,8.8902 l 44.38086,0 c 4.873713,0 8.80957,-3.9717 8.80957,-8.8902 l 0,-33.0558 c 0,-4.61095 -2.334368,-8.43724 -6.78125,-8.89027 l 0,-10.05116 c 0,-13.89304 -10.798278,-25.1126 -24.21875,-25.1126 z m 0,9.74565 c 8.588618,0 15.5,6.87458 15.5,15.42806 l 0,9.99005 -31,0 0,-9.99005 c 0,-8.55348 6.911382,-15.42806 15.5,-15.42806 z m 0,38.12723 c 3.745178,0 6.78125,3.0638 6.78125,6.8433 0,2.4025 -1.231959,4.5225 -3.087891,5.7435 0.101235,0.35 0.181641,0.7159 0.181641,1.0998 l 0,7.821 c 0,2.1664 -1.72825,3.9105 -3.875,3.9105 -2.14675,0 -3.875,-1.7441 -3.875,-3.9105 l 0,-7.821 c 0,-0.3839 0.08041,-0.7498 0.181641,-1.0998 -1.855932,-1.221 -3.087891,-3.341 -3.087891,-5.7435 0,-3.7795 3.036072,-6.8433 6.78125,-6.8433 z" fill="#ffffff" fill-opacity="1" stroke="#ffffff" stroke-width="2" stroke-linecap="round" stroke-linejoin="round" stroke-miterlimit="4" stroke-opacity="1" stroke-dasharray="none" stroke-dashoffset="0" marker="none" visibility="visible" display="inline" overflow="visible"/></g></svg>