<?xml version="1.0" encoding="UTF-8"?>
<svg id="Layer_1" data-name="Layer 1" xmlns="http://www.w3.org/2000/svg" viewBox="0 0 62.71 23.13">
  <defs>
    <style>
      .cls-1 {
        fill: none;
        stroke: #000;
        stroke-linecap: round;
        stroke-linejoin: round;
        stroke-width: .51px;
      }
    </style>
  </defs>
  <polyline class="cls-1" points="39.83 11.55 39.76 10.45 39.56 9.37 39.17 8.32 38.7 7.32 38.08 6.4 37.36 5.57 36.52 4.82 35.61 4.22 34.61 3.72 33.56 3.37 32.45 3.15 31.36 3.07 30.25 3.15 29.15 3.37 28.11 3.72 27.11 4.22 26.17 4.82 25.36 5.57 24.63 6.4 24 7.32 23.53 8.32 23.15 9.37 22.96 10.45 22.88 11.55 22.96 12.68 23.15 13.75 23.53 14.8 24 15.8 24.63 16.72 25.36 17.55 26.17 18.3 27.11 18.9 28.11 19.4 29.15 19.75 30.25 19.97 31.36 20.05 32.45 19.97 33.56 19.75 34.61 19.4 35.61 18.9 36.52 18.3 37.36 17.55 38.08 16.72 38.7 15.8 39.17 14.8 39.56 13.75 39.76 12.68 39.83 11.55"/>
  <polyline class="cls-1" points="51.15 .25 11.56 .25 11.56 22.87 51.15 22.87 51.15 .25"/>
  <line class="cls-1" x1=".25" y1="11.55" x2="5.91" y2="11.55"/>
  <polyline points="5.91 10.05 5.91 13.07 11.56 11.55 5.91 10.05"/>
  <line class="cls-1" x1="51.15" y1="5.9" x2="53.97" y2="5.9"/>
  <polyline points="53.97 4.4 53.97 7.43 59.63 5.9 53.97 4.4"/>
  <line class="cls-1" x1="51.15" y1="17.22" x2="55.67" y2="17.22"/>
  <line class="cls-1" x1="57.92" y1="17.22" x2="62.45" y2="17.22"/>
  <line class="cls-1" x1="51.15" y1="5.9" x2="62.45" y2="5.9"/>
</svg>