<?xml version="1.0" encoding="UTF-8"?>
<svg id="Layer_1" data-name="Layer 1" xmlns="http://www.w3.org/2000/svg" viewBox="0 0 119.41 45.81">
  <defs>
    <style>
      .cls-1 {
        fill: none;
        stroke: #000;
        stroke-linecap: round;
        stroke-linejoin: round;
        stroke-width: .51px;
      }
    </style>
  </defs>
  <polyline class="cls-1" points="34.22 11.59 102.17 11.59 102.17 34.24 34.22 34.24 34.22 11.59"/>
  <line class="cls-1" x1="56.88" y1="11.59" x2="56.88" y2="34.24"/>
  <line class="cls-1" x1="79.52" y1="11.59" x2="79.52" y2="34.24"/>
  <line class="cls-1" x1="37.06" y1="37.06" x2="99.33" y2="37.06"/>
  <line class="cls-1" x1="99.33" y1="8.75" x2="37.06" y2="8.75"/>
  <line class="cls-1" x1="62.52" y1="34.24" x2="62.52" y2="45.56"/>
  <line class="cls-1" x1="73.86" y1="34.24" x2="73.86" y2="45.56"/>
  <line class="cls-1" x1="62.52" y1="11.59" x2="62.52" y2=".25"/>
  <line class="cls-1" x1="73.86" y1="11.59" x2="73.86" y2=".25"/>
  <line class="cls-1" x1="39.88" y1="34.24" x2="39.88" y2="17.26"/>
  <polyline points="38.38 17.26 41.4 17.24 39.88 11.59 38.38 17.26"/>
  <line class="cls-1" x1="85.17" y1="11.59" x2="93.98" y2="29.16"/>
  <polyline points="95.33 28.49 92.62 29.86 96.51 34.24 95.33 28.49"/>
  <line class="cls-1" x1="85.17" y1="34.24" x2="93.98" y2="16.66"/>
  <polyline points="92.62 15.96 95.33 17.34 96.51 11.59 92.62 15.96"/>
  <line class="cls-1" x1="51.2" y1="11.59" x2="51.2" y2="28.56"/>
  <polyline points="52.72 28.59 49.7 28.56 51.2 34.24 52.72 28.59"/>
  <line class="cls-1" x1="34.22" y1=".25" x2="34.22" y2="11.59"/>
  <polyline class="cls-1" points="119.16 34.24 102.17 34.24 102.17 22.91 119.16 22.91 119.16 34.24"/>
  <polyline points="119.16 34.24 109.26 28.59 119.16 22.91 119.16 34.24"/>
  <line class="cls-1" x1="73.86" y1="11.59" x2="73.86" y2="34.24"/>
  <line class="cls-1" x1="62.52" y1="22.91" x2="73.86" y2="22.91"/>
  <polyline class="cls-1" points="75.27 22.91 75.26 22.74 75.23 22.54 75.16 22.36 75.08 22.21 74.98 22.06 74.86 21.91 74.73 21.79 74.55 21.69 74.41 21.61 74.23 21.54 74.05 21.51 73.86 21.49 73.67 21.51 73.51 21.54 73.33 21.61 73.16 21.69 73.01 21.79 72.86 21.91 72.73 22.06 72.62 22.21 72.55 22.36 72.51 22.54 72.45 22.74 72.45 22.91 72.45 23.09 72.51 23.29 72.55 23.46 72.62 23.61 72.73 23.76 72.86 23.91 73.01 24.04 73.16 24.14 73.33 24.21 73.51 24.29 73.67 24.31 73.86 24.34 74.05 24.31 74.23 24.29 74.41 24.21 74.55 24.14 74.73 24.04 74.86 23.91 74.98 23.76 75.08 23.61 75.16 23.46 75.23 23.29 75.26 23.09 75.27 22.91"/>
  <polyline class="cls-1" points="73.08 21.74 74.62 21.74 72.8 21.96 74.91 21.96 72.62 22.21 75.08 22.21 72.52 22.44 75.2 22.44 72.45 22.69 75.26 22.69 72.45 22.91 75.27 22.91 72.45 23.14 75.26 23.14 72.52 23.39 75.2 23.39 72.62 23.61 75.08 23.61 72.8 23.86 74.91 23.86 73.08 24.09 74.62 24.09"/>
  <polyline class="cls-1" points="59.17 20.09 59.52 19.64 59.83 19.16 60.02 18.64 60.17 18.09 60.26 17.54 60.26 16.96 60.17 16.41 60.02 15.86 59.83 15.34 59.52 14.86 59.17 14.41"/>
  <polyline class="cls-1" points="65.87 14.41 65.52 14.86 65.26 15.34 65.02 15.86 64.87 16.41 64.8 16.96 64.8 17.54 64.87 18.09 65.02 18.64 65.26 19.16 65.52 19.64 65.87 20.09"/>
  <polyline class="cls-1" points="70.51 20.09 70.86 19.64 71.16 19.16 71.36 18.64 71.51 18.09 71.58 17.54 71.58 16.96 71.51 16.41 71.36 15.86 71.16 15.34 70.86 14.86 70.51 14.41"/>
  <polyline class="cls-1" points="77.2 14.41 76.86 14.86 76.58 15.34 76.36 15.86 76.2 16.41 76.12 16.96 76.12 17.54 76.2 18.09 76.36 18.64 76.58 19.16 76.86 19.64 77.2 20.09"/>
  <line class="cls-1" x1="62.52" y1="11.59" x2="62.52" y2="34.24"/>
  <polyline class="cls-1" points="63.95 22.91 63.92 22.74 63.9 22.54 63.86 22.36 63.76 22.21 63.65 22.06 63.52 21.91 63.4 21.79 63.26 21.69 63.08 21.61 62.9 21.54 62.72 21.51 62.52 21.49 62.36 21.51 62.17 21.54 62.01 21.61 61.83 21.69 61.67 21.79 61.52 21.91 61.4 22.06 61.31 22.21 61.22 22.36 61.17 22.54 61.13 22.74 61.13 22.91 61.13 23.09 61.17 23.29 61.22 23.46 61.31 23.61 61.4 23.76 61.52 23.91 61.67 24.04 61.83 24.14 62.01 24.21 62.17 24.29 62.36 24.31 62.52 24.34 62.72 24.31 62.9 24.29 63.08 24.21 63.26 24.14 63.4 24.04 63.52 23.91 63.65 23.76 63.76 23.61 63.86 23.46 63.9 23.29 63.92 23.09 63.95 22.91"/>
  <polyline class="cls-1" points="61.76 21.74 63.33 21.74 61.47 21.96 63.58 21.96 61.31 22.21 63.76 22.21 61.2 22.44 63.88 22.44 61.13 22.69 63.92 22.69 61.13 22.91 63.95 22.91 61.13 23.14 63.92 23.14 61.2 23.39 63.88 23.39 61.31 23.61 63.76 23.61 61.47 23.86 63.58 23.86 61.76 24.09 63.33 24.09"/>
  <polyline class="cls-1" points="59.17 31.41 59.52 30.96 59.83 30.49 60.02 29.96 60.17 29.41 60.26 28.86 60.26 28.29 60.17 27.74 60.02 27.19 59.83 26.66 59.52 26.19 59.17 25.74"/>
  <polyline class="cls-1" points="65.87 25.74 65.52 26.19 65.26 26.66 65.02 27.19 64.87 27.74 64.8 28.29 64.8 28.86 64.87 29.41 65.02 29.96 65.26 30.49 65.52 30.96 65.87 31.41"/>
  <polyline class="cls-1" points="70.51 31.41 70.86 30.96 71.16 30.49 71.36 29.96 71.51 29.41 71.58 28.86 71.58 28.29 71.51 27.74 71.36 27.19 71.16 26.66 70.86 26.19 70.51 25.74"/>
  <polyline class="cls-1" points="77.2 25.74 76.86 26.19 76.58 26.66 76.36 27.19 76.2 27.74 76.12 28.29 76.12 28.86 76.2 29.41 76.36 29.96 76.58 30.49 76.86 30.96 77.2 31.41"/>
  <polyline class="cls-1" points="17.22 22.91 34.22 22.91 34.22 34.24 17.22 34.24 17.22 22.91"/>
  <polyline points="17.22 22.91 27.15 28.59 17.22 34.24 17.22 22.91"/>
  <line class="cls-1" x1="15.82" y1="34.24" x2="10.15" y2="22.91"/>
  <polyline class="cls-1" points="8.75 34.24 17.22 34.24 17.22 22.91 8.75 22.91"/>
  <line class="cls-1" x1="5.35" y1="38.76" x2="9.78" y2="18.81"/>
  <polyline points="8.31 18.49 11.25 19.14 11 13.29 8.31 18.49"/>
  <line class="cls-1" x1="1.67" y1="34.24" x2="7.33" y2="22.91"/>
  <polyline class="cls-1" points="8.75 22.91 .25 22.91 .25 34.24 8.75 34.24"/>
  <line class="cls-1" x1="34.22" y1=".25" x2="17.22" y2=".25"/>
  <line class="cls-1" x1="34.22" y1="3.09" x2="17.22" y2="3.09"/>
  <line class="cls-1" x1="17.22" y1=".25" x2="17.22" y2="11.59"/>
  <polyline points="18.75 11.59 15.73 11.59 17.22 17.24 18.75 11.59"/>
  <line class="cls-1" x1="17.22" y1="34.24" x2="17.22" y2="38.76"/>
  <line class="cls-1" x1="17.22" y1="41.04" x2="17.22" y2="45.56"/>
</svg>