<?xml version="1.0" encoding="UTF-8"?>
<svg id="Layer_1" data-name="Layer 1" xmlns="http://www.w3.org/2000/svg" viewBox="0 0 57.09 28.81">
  <defs>
    <style>
      .cls-1 {
        stroke-width: .43px;
      }

      .cls-1, .cls-2 {
        fill: none;
        stroke: #000;
        stroke-linecap: round;
        stroke-linejoin: round;
      }

      .cls-2 {
        stroke-width: .51px;
      }
    </style>
  </defs>
  <polyline class="cls-2" points="25.7 11.58 25.68 11.21 25.6 10.86 25.5 10.48 25.33 10.15 25.14 9.86 24.89 9.58 24.6 9.33 24.31 9.13 23.99 8.96 23.6 8.83 23.25 8.79 22.89 8.75 22.5 8.79 22.16 8.83 21.81 8.96 21.49 9.13 21.16 9.33 20.89 9.58 20.64 9.86 20.43 10.15 20.28 10.48 20.16 10.86 20.08 11.21 20.06 11.58 20.08 11.96 20.16 12.3 20.28 12.65 20.43 12.98 20.64 13.31 20.89 13.58 21.16 13.83 21.49 14.03 21.81 14.19 22.16 14.31 22.5 14.39 22.89 14.4 23.25 14.39 23.6 14.31 23.99 14.19 24.31 14.03 24.6 13.83 24.89 13.58 25.14 13.31 25.33 12.98 25.5 12.65 25.6 12.3 25.68 11.96 25.7 11.58"/>
  <line class="cls-2" x1="18.89" y1="11.58" x2="17.24" y2="11.58"/>
  <polyline class="cls-2" points="24.53 17.23 18.89 11.58 24.53 5.9"/>
  <polyline class="cls-2" points="39.86 11.58 38.68 5.9 36.34 17.23 33.95 5.9 31.6 17.23 29.25 5.9 26.89 17.23 25.7 11.58"/>
  <line class="cls-1" x1="11.59" y1="22.91" x2="15.43" y2="19.03"/>
  <line class="cls-1" x1="17.03" y1="17.44" x2="20.91" y2="13.56"/>
  <polyline class="cls-2" points="11.59 28.55 11.59 .25 45.5 .25 45.5 28.55 11.59 28.55"/>
  <line class="cls-2" x1=".25" y1="11.58" x2="17.24" y2="11.58"/>
  <line class="cls-2" x1="56.84" y1="11.58" x2="25.7" y2="11.58"/>
  <line class="cls-2" x1=".25" y1="22.91" x2="4.78" y2="22.91"/>
  <line class="cls-2" x1="7.05" y1="22.91" x2="11.59" y2="22.91"/>
</svg>