<?xml version="1.0" encoding="UTF-8"?>
<svg id="Layer_1" data-name="Layer 1" xmlns="http://www.w3.org/2000/svg" viewBox="0 0 57.11 40.13">
  <defs>
    <style>
      .cls-1 {
        stroke-width: .43px;
      }

      .cls-1, .cls-2 {
        fill: none;
        stroke: #000;
        stroke-linecap: round;
        stroke-linejoin: round;
      }

      .cls-2 {
        stroke-width: .51px;
      }
    </style>
  </defs>
  <polyline class="cls-2" points="25.74 22.91 25.7 22.53 25.64 22.16 25.5 21.81 25.35 21.48 25.14 21.18 24.91 20.91 24.64 20.66 24.31 20.46 23.99 20.28 23.64 20.16 23.25 20.08 22.91 20.06 22.53 20.08 22.16 20.16 21.81 20.28 21.49 20.46 21.18 20.66 20.91 20.91 20.66 21.18 20.45 21.48 20.28 21.81 20.16 22.16 20.08 22.53 20.06 22.91 20.08 23.26 20.16 23.63 20.28 23.98 20.45 24.31 20.66 24.63 20.91 24.91 21.18 25.16 21.49 25.36 21.81 25.51 22.16 25.63 22.53 25.71 22.91 25.73 23.25 25.71 23.64 25.63 23.99 25.51 24.31 25.36 24.64 25.16 24.91 24.91 25.14 24.63 25.35 24.31 25.5 23.98 25.64 23.63 25.7 23.26 25.74 22.91"/>
  <line class="cls-2" x1="18.91" y1="22.91" x2="17.24" y2="22.91"/>
  <polyline class="cls-2" points="24.56 28.56 18.91 22.91 24.56 17.23"/>
  <polyline class="cls-2" points="39.89 22.91 38.7 17.23 36.34 28.56 33.98 17.23 31.64 28.56 29.25 17.23 26.91 28.56 25.74 22.91"/>
  <line class="cls-1" x1="11.59" y1="34.23" x2="15.45" y2="30.36"/>
  <line class="cls-1" x1="17.06" y1="28.76" x2="20.91" y2="24.88"/>
  <polyline class="cls-2" points="11.59 39.88 11.59 11.58 45.54 11.58 45.54 39.88 11.59 39.88"/>
  <line class="cls-2" x1="28.56" y1="11.58" x2="28.56" y2="7.06"/>
  <line class="cls-2" x1="28.56" y1="4.78" x2="28.56" y2=".25"/>
  <line class="cls-2" x1=".25" y1="22.91" x2="17.24" y2="22.91"/>
  <line class="cls-2" x1=".25" y1="34.23" x2="4.78" y2="34.23"/>
  <line class="cls-2" x1="7.05" y1="34.23" x2="11.59" y2="34.23"/>
  <line class="cls-2" x1="56.86" y1="22.91" x2="25.74" y2="22.91"/>
</svg>