<?xml version="1.0" encoding="UTF-8"?>
<svg id="Layer_1" data-name="Layer 1" xmlns="http://www.w3.org/2000/svg" viewBox="0 0 255.54 142.18">
  <defs>
    <style>
      .cls-1 {
        fill: none;
        stroke: #000;
        stroke-linecap: round;
        stroke-linejoin: round;
        stroke-width: .51px;
      }
    </style>
  </defs>
  <polyline class="cls-1" points="198.6 71.1 198.01 61.85 196.2 52.75 193.2 43.97 189.1 35.67 183.98 27.97 177.85 21 170.88 14.9 163.18 9.75 154.88 5.65 146.1 2.67 137.01 .85 127.76 .25 118.54 .85 109.44 2.67 100.65 5.65 92.36 9.75 84.65 14.9 77.69 21 71.55 27.97 66.44 35.67 62.34 43.97 59.34 52.75 57.54 61.85 56.93 71.1 57.54 80.32 59.34 89.42 62.34 98.2 66.44 106.5 71.55 114.2 77.69 121.17 84.65 127.27 92.36 132.42 100.65 136.52 109.44 139.5 118.54 141.32 127.76 141.92 137.01 141.32 146.1 139.5 154.88 136.52 163.18 132.42 170.88 127.27 177.85 121.17 183.98 114.2 189.1 106.5 193.2 98.2 196.2 89.42 198.01 80.32 198.6 71.1"/>
  <line class="cls-1" x1="177.85" y1="121.17" x2="77.69" y2="21"/>
  <line class="cls-1" x1="177.85" y1="21" x2="77.69" y2="121.17"/>
  <line class="cls-1" x1=".25" y1="71.1" x2="255.29" y2="71.1"/>
</svg>