<?xml version="1.0" encoding="UTF-8"?>
<svg id="Layer_1" data-name="Layer 1" xmlns="http://www.w3.org/2000/svg" viewBox="0 0 23.13 34.44">
  <defs>
    <style>
      .cls-1 {
        fill: none;
        stroke: #000;
        stroke-linecap: round;
        stroke-linejoin: round;
        stroke-width: .51px;
      }

      .cls-2 {
        font-family: ArialMT, Arial;
        font-size: 7.91px;
      }
    </style>
  </defs>
  <line class="cls-1" x1="12.7" y1="5.9" x2="12.7" y2="8.73"/>
  <line class="cls-1" x1="18.35" y1="5.9" x2="18.35" y2="8.73"/>
  <polyline class="cls-1" points="18.35 5.9 18.33 5.53 18.26 5.19 18.12 4.83 17.97 4.5 17.77 4.19 17.52 3.9 17.26 3.65 16.93 3.45 16.6 3.3 16.26 3.19 15.91 3.11 15.53 3.08 15.16 3.11 14.8 3.19 14.45 3.3 14.11 3.45 13.8 3.65 13.53 3.9 13.28 4.19 13.08 4.5 12.91 4.83 12.8 5.19 12.72 5.53 12.7 5.9"/>
  <line class="cls-1" x1=".25" y1=".25" x2="22.87" y2="22.88"/>
  <polyline class="cls-1" points=".25 22.88 22.87 22.88 22.87 .25 .25 .25 .25 22.88"/>
  <text class="cls-2" transform="translate(4.97 20.06)"><tspan x="0" y="0">P</tspan></text>
  <line class="cls-1" x1="11.58" y1="34.18" x2="11.58" y2="22.88"/>
</svg>