<?xml version="1.0" encoding="UTF-8"?>
<svg id="Layer_1" data-name="Layer 1" xmlns="http://www.w3.org/2000/svg" viewBox="0 0 23.13 34.44">
  <defs>
    <style>
      .cls-1 {
        fill: none;
        stroke: #000;
        stroke-linecap: round;
        stroke-linejoin: round;
        stroke-width: .51px;
      }
    </style>
  </defs>
  <polyline class="cls-1" points="22.87 11.55 22.77 10.08 22.51 8.63 22.02 7.23 21.35 5.9 20.52 4.69 19.55 3.55 18.45 2.58 17.22 1.78 15.91 1.1 14.5 .64 13.05 .35 11.58 .25 10.08 .35 8.62 .64 7.22 1.1 5.9 1.78 4.67 2.58 3.57 3.55 2.61 4.69 1.77 5.9 1.1 7.23 .63 8.63 .35 10.08 .25 11.55 .35 13.03 .63 14.48 1.1 15.88 1.77 17.23 2.61 18.45 3.57 19.55 4.67 20.53 5.9 21.35 7.22 22 8.62 22.48 10.08 22.78 11.58 22.88 13.05 22.78 14.5 22.48 15.91 22 17.22 21.35 18.45 20.53 19.55 19.55 20.52 18.45 21.35 17.2 22.02 15.88 22.51 14.48 22.77 13.03 22.87 11.55"/>
  <line class="cls-1" x1="17.22" y1="17.23" x2="9.91" y2="9.9"/>
  <polyline points="8.83 10.98 10.97 8.83 5.9 5.9 8.83 10.98"/>
  <line class="cls-1" x1="11.58" y1="34.18" x2="11.58" y2="22.88"/>
</svg>