<?xml version="1.0" encoding="UTF-8"?>
<svg id="Layer_1" data-name="Layer 1" xmlns="http://www.w3.org/2000/svg" viewBox="0 0 34.46 68.44">
  <defs>
    <style>
      .cls-1 {
        fill: none;
        stroke: #000;
        stroke-linecap: round;
        stroke-linejoin: round;
        stroke-width: .51px;
      }

      .cls-2 {
        font-family: ArialMT, Arial;
        font-size: 7.91px;
      }
    </style>
  </defs>
  <polyline class="cls-1" points=".25 11.59 22.87 11.59 22.87 56.86 .25 56.86 .25 11.59"/>
  <line class="cls-1" x1=".25" y1="25.74" x2="22.87" y2="25.74"/>
  <line class="cls-1" x1="22.87" y1="51.21" x2=".25" y2="51.21"/>
  <line class="cls-1" x1="11.58" y1="45.54" x2="22.87" y2="45.54"/>
  <line class="cls-1" x1="11.58" y1="45.54" x2="11.58" y2="51.21"/>
  <polyline class="cls-1" points="3.07 11.59 8.75 13.16 3.07 14.74 8.75 16.31 3.07 17.86 8.75 19.44 3.07 21.01 8.75 22.59 3.07 24.16 8.75 25.74"/>
  <text class="cls-2" transform="translate(26.01 54.03)"><tspan x="0" y="0">B</tspan></text>
  <line class="cls-1" x1="22.87" y1="45.54" x2="34.2" y2="45.54"/>
  <text class="cls-2" transform="translate(3.35 65.36)"><tspan x="0" y="0">A</tspan></text>
  <line class="cls-1" x1="11.58" y1="56.86" x2="11.58" y2="68.19"/>
  <line class="cls-1" x1=".25" y1="45.54" x2="11.58" y2="45.54"/>
  <polyline class="cls-1" points="12.97 45.54 12.97 45.36 12.92 45.19 12.87 45.01 12.8 44.84 12.7 44.69 12.58 44.54 12.42 44.41 12.28 44.31 12.11 44.24 11.92 44.19 11.75 44.14 11.58 44.14 11.37 44.14 11.2 44.19 11.03 44.24 10.86 44.31 10.7 44.41 10.58 44.54 10.45 44.69 10.36 44.84 10.25 45.01 10.2 45.19 10.17 45.36 10.16 45.54 10.17 45.74 10.2 45.91 10.25 46.09 10.36 46.26 10.45 46.41 10.58 46.54 10.7 46.66 10.86 46.76 11.03 46.86 11.2 46.91 11.37 46.94 11.58 46.96 11.75 46.94 11.92 46.91 12.11 46.86 12.28 46.76 12.42 46.66 12.58 46.54 12.7 46.41 12.8 46.26 12.87 46.09 12.92 45.91 12.97 45.74 12.97 45.54"/>
  <polyline class="cls-1" points="10.78 44.36 12.36 44.36 10.5 44.61 12.62 44.61 10.36 44.84 12.8 44.84 10.22 45.06 12.91 45.06 10.17 45.31 12.95 45.31 10.16 45.54 12.97 45.54 10.17 45.79 12.95 45.79 10.22 46.01 12.91 46.01 10.36 46.26 12.8 46.26 10.5 46.49 12.62 46.49 10.78 46.74 12.36 46.74"/>
  <line class="cls-1" x1="11.58" y1="11.59" x2="11.58" y2="7.06"/>
  <line class="cls-1" x1="11.58" y1="4.79" x2="11.58" y2=".25"/>
</svg>