<?xml version="1.0" encoding="UTF-8"?>
<svg id="Layer_1" data-name="Layer 1" xmlns="http://www.w3.org/2000/svg" viewBox="0 0 45.81 48.6">
  <defs>
    <style>
      .cls-1 {
        stroke-width: .43px;
      }

      .cls-1, .cls-2 {
        fill: none;
        stroke: #000;
        stroke-linecap: round;
        stroke-linejoin: round;
      }

      .cls-2 {
        stroke-width: .51px;
      }
    </style>
  </defs>
  <polyline class="cls-2" points="11.58 37.06 34.22 37.06 34.22 14.41 11.58 14.41 11.58 37.06"/>
  <line class="cls-2" x1="34.22" y1="31.41" x2="17.22" y2="31.41"/>
  <polyline points="17.22 32.91 17.22 29.89 11.58 31.41 17.22 32.91"/>
  <line class="cls-1" x1="34.22" y1="31.41" x2="36.25" y2="33.44"/>
  <line class="cls-1" x1="37.86" y1="35.04" x2="39.88" y2="37.06"/>
  <line class="cls-1" x1="39.88" y1="48.39" x2="36.2" y2="48.39"/>
  <line class="cls-1" x1="33.95" y1="48.39" x2="29.7" y2="48.39"/>
  <line class="cls-1" x1="27.43" y1="48.39" x2="23.18" y2="48.39"/>
  <line class="cls-1" x1="20.93" y1="48.39" x2="17.22" y2="48.39"/>
  <line class="cls-1" x1="17.22" y1="48.39" x2="17.22" y2="43.86"/>
  <line class="cls-1" x1="17.22" y1="41.59" x2="17.22" y2="37.06"/>
  <polyline class="cls-2" points="17.22 .25 11.58 1.44 22.91 3.81 11.58 6.16 22.91 8.5 11.58 10.89 22.91 13.24 17.22 14.41"/>
  <line class="cls-2" x1="7.05" y1="9.61" x2="27.01" y2="5.16"/>
  <polyline points="26.68 3.69 27.33 6.66 32.52 3.94 26.68 3.69"/>
  <line class="cls-1" x1="39.88" y1="37.06" x2="39.88" y2="41.59"/>
  <line class="cls-1" x1="39.88" y1="43.86" x2="39.88" y2="48.39"/>
  <line class="cls-2" x1="11.58" y1="31.41" x2="28.58" y2="31.41"/>
  <polyline points="28.58 29.89 28.58 32.91 34.22 31.41 28.58 29.89"/>
  <line class="cls-2" x1="11.58" y1="31.41" x2=".25" y2="31.41"/>
  <line class="cls-2" x1="11.58" y1="20.09" x2=".25" y2="20.09"/>
  <line class="cls-2" x1="34.22" y1="31.41" x2="45.56" y2="31.41"/>
</svg>