<?xml version="1.0" encoding="UTF-8"?>
<svg id="Layer_1" data-name="Layer 1" xmlns="http://www.w3.org/2000/svg" viewBox="0 0 51.48 27.48">
  <defs>
    <style>
      .cls-1 {
        fill: none;
        stroke: #000;
        stroke-linecap: round;
        stroke-linejoin: round;
        stroke-width: .51px;
      }
    </style>
  </defs>
  <line class="cls-1" x1=".25" y1="15.22" x2="51.22" y2="15.22"/>
  <polyline class="cls-1" points="16.76 8.8 18.16 9.9 19.7 10.8 21.35 11.5 23.08 11.97 24.85 12.2 26.62 12.2 28.41 11.97 30.12 11.5 31.77 10.8 33.32 9.9 34.72 8.8"/>
  <polyline class="cls-1" points="34.72 21.67 33.32 20.57 31.77 19.65 30.12 18.97 28.41 18.5 26.62 18.27 24.85 18.27 23.08 18.5 21.35 18.97 19.7 19.65 18.16 20.57 16.76 21.67"/>
  <line class="cls-1" x1="22.16" y1="23.62" x2="28.77" y2="8.15"/>
  <polyline points="27.3 7.53 30.26 8.8 31.12 2.65 27.3 7.53"/>
  <line class="cls-1" x1="18.26" y1="15.22" x2="36.22" y2="15.22"/>
  <polyline points="36.22 13.62 36.22 16.85 42.22 15.22 36.22 13.62"/>
  <polyline class="cls-1" points="6.26 27.22 6.26 .25 45.22 .25 45.22 27.22 6.26 27.22"/>
</svg>