<?xml version="1.0" encoding="UTF-8"?>
<svg id="Layer_1" data-name="Layer 1" xmlns="http://www.w3.org/2000/svg" viewBox="0 0 45.81 48.64">
  <defs>
    <style>
      .cls-1 {
        fill: none;
        stroke: #000;
        stroke-linecap: round;
        stroke-linejoin: round;
        stroke-width: .51px;
      }
    </style>
  </defs>
  <polyline class="cls-1" points="34.22 37.06 11.58 37.06 11.58 14.41 34.22 14.41 34.22 37.06"/>
  <line class="cls-1" x1="11.58" y1="31.41" x2="28.58" y2="31.41"/>
  <polyline points="28.58 29.89 28.58 32.91 34.22 31.41 28.58 29.89"/>
  <polyline class="cls-1" points="17.22 .25 11.58 1.44 22.91 3.81 11.58 6.16 22.91 8.5 11.58 10.89 22.91 13.24 17.22 14.41"/>
  <line class="cls-1" x1="11.58" y1="25.74" x2=".25" y2="25.74"/>
  <line class="cls-1" x1="34.22" y1="25.74" x2="45.56" y2="25.74"/>
  <line class="cls-1" x1="7.05" y1="9.61" x2="27.01" y2="5.16"/>
  <polyline points="26.68 3.69 27.33 6.66 32.52 3.94 26.68 3.69"/>
  <line class="cls-1" x1="11.58" y1="3.09" x2="7.05" y2="3.09"/>
  <line class="cls-1" x1="4.78" y1="3.09" x2=".25" y2="3.09"/>
  <line class="cls-1" x1="17.22" y1="37.06" x2="17.22" y2="41.59"/>
  <line class="cls-1" x1="17.22" y1="43.86" x2="17.22" y2="48.39"/>
</svg>