<?xml version="1.0" encoding="UTF-8"?>
<svg id="Layer_1" data-name="Layer 1" xmlns="http://www.w3.org/2000/svg" viewBox="0 0 102.43 45.81">
  <defs>
    <style>
      .cls-1 {
        fill: none;
        stroke: #000;
        stroke-linecap: round;
        stroke-linejoin: round;
        stroke-width: .51px;
      }
    </style>
  </defs>
  <polyline class="cls-1" points="17.22 11.59 85.17 11.59 85.17 34.24 17.22 34.24 17.22 11.59"/>
  <line class="cls-1" x1="39.88" y1="11.59" x2="39.88" y2="34.24"/>
  <line class="cls-1" x1="62.52" y1="11.59" x2="62.52" y2="34.24"/>
  <line class="cls-1" x1="20.07" y1="37.06" x2="82.36" y2="37.06"/>
  <line class="cls-1" x1="82.36" y1="8.75" x2="20.07" y2="8.75"/>
  <line class="cls-1" x1="45.56" y1="34.24" x2="45.56" y2="28.59"/>
  <line class="cls-1" x1="42.72" y1="28.59" x2="48.38" y2="28.56"/>
  <line class="cls-1" x1="56.88" y1="11.59" x2="56.88" y2="34.24"/>
  <line class="cls-1" x1="45.56" y1="11.59" x2="45.56" y2="22.91"/>
  <line class="cls-1" x1="45.56" y1="22.91" x2="56.88" y2="22.91"/>
  <polyline class="cls-1" points="58.31 22.91 58.27 22.74 58.26 22.54 58.17 22.36 58.11 22.21 58.01 22.06 57.88 21.91 57.72 21.79 57.58 21.69 57.42 21.61 57.26 21.54 57.06 21.51 56.88 21.49 56.7 21.51 56.51 21.54 56.33 21.61 56.17 21.69 56.02 21.79 55.88 21.91 55.76 22.06 55.65 22.21 55.58 22.36 55.51 22.54 55.47 22.74 55.45 22.91 55.47 23.09 55.51 23.29 55.58 23.46 55.65 23.61 55.76 23.76 55.88 23.91 56.02 24.04 56.17 24.14 56.33 24.21 56.51 24.29 56.7 24.31 56.88 24.34 57.06 24.31 57.26 24.29 57.42 24.21 57.58 24.14 57.72 24.04 57.88 23.91 58.01 23.76 58.11 23.61 58.17 23.46 58.26 23.29 58.27 23.09 58.31 22.91"/>
  <polyline class="cls-1" points="56.11 21.74 57.65 21.74 55.83 21.96 57.92 21.96 55.65 22.21 58.11 22.21 55.56 22.44 58.2 22.44 55.47 22.69 58.27 22.69 55.45 22.91 58.31 22.91 55.47 23.14 58.27 23.14 55.56 23.39 58.2 23.39 55.65 23.61 58.11 23.61 55.83 23.86 57.92 23.86 56.11 24.09 57.65 24.09"/>
  <polyline class="cls-1" points="85.17 5.94 86.37 .25 88.73 11.59 91.08 .25 93.45 11.59 95.8 .25 98.17 11.59 99.36 5.94"/>
  <polyline class="cls-1" points="17.22 5.94 16.06 .25 13.7 11.59 11.36 .25 8.98 11.59 6.62 .25 4.25 11.59 3.08 5.94"/>
  <line class="cls-1" x1="45.56" y1="34.24" x2="45.56" y2="45.56"/>
  <line class="cls-1" x1="56.88" y1="34.24" x2="56.88" y2="45.56"/>
  <line class="cls-1" x1="45.56" y1="11.59" x2="45.56" y2=".25"/>
  <line class="cls-1" x1="56.88" y1="11.59" x2="56.88" y2=".25"/>
  <line class="cls-1" x1="5.91" y1="34.24" x2="11.57" y2="22.91"/>
  <polyline class="cls-1" points=".25 34.24 17.22 34.24 17.22 22.91 .25 22.91 .25 34.24"/>
  <line class="cls-1" x1="11" y1="38.76" x2="6.58" y2="18.81"/>
  <polyline points="5.1 19.14 8.06 18.49 5.35 13.29 5.1 19.14"/>
  <line class="cls-1" x1="96.52" y1="34.24" x2="90.86" y2="22.91"/>
  <polyline class="cls-1" points="85.17 34.24 102.17 34.24 102.17 22.91 85.17 22.91 85.17 34.24"/>
  <line class="cls-1" x1="91.42" y1="38.76" x2="95.86" y2="18.81"/>
  <polyline points="94.37 18.49 97.33 19.14 97.08 13.29 94.37 18.49"/>
  <polyline class="cls-1" points="42.2 20.09 42.56 19.64 42.83 19.16 43.06 18.64 43.2 18.09 43.27 17.54 43.27 16.96 43.2 16.41 43.06 15.86 42.83 15.34 42.56 14.86 42.2 14.41"/>
  <polyline class="cls-1" points="48.9 14.41 48.56 14.86 48.27 15.34 48.06 15.86 47.9 16.41 47.83 16.96 47.83 17.54 47.9 18.09 48.06 18.64 48.27 19.16 48.56 19.64 48.9 20.09"/>
  <polyline class="cls-1" points="53.52 20.09 53.88 19.64 54.15 19.16 54.38 18.64 54.52 18.09 54.61 17.54 54.61 16.96 54.52 16.41 54.38 15.86 54.15 15.34 53.88 14.86 53.52 14.41"/>
  <polyline class="cls-1" points="60.22 14.41 59.88 14.86 59.61 15.34 59.38 15.86 59.22 16.41 59.15 16.96 59.15 17.54 59.22 18.09 59.38 18.64 59.61 19.16 59.88 19.64 60.22 20.09"/>
  <line class="cls-1" x1="68.2" y1="34.24" x2="68.2" y2="17.26"/>
  <polyline points="66.67 17.26 69.73 17.24 68.2 11.59 66.67 17.26"/>
  <line class="cls-1" x1="22.9" y1="11.59" x2="31.71" y2="29.16"/>
  <polyline points="33.06 28.49 30.32 29.86 34.22 34.24 33.06 28.49"/>
  <line class="cls-1" x1="22.9" y1="34.24" x2="31.71" y2="16.66"/>
  <polyline points="30.32 15.96 33.06 17.34 34.22 11.59 30.32 15.96"/>
  <line class="cls-1" x1="79.52" y1="11.59" x2="79.52" y2="28.56"/>
  <polyline points="81.05 28.59 78.01 28.56 79.52 34.24 81.05 28.59"/>
  <line class="cls-1" x1="17.22" y1=".25" x2="17.22" y2="11.59"/>
  <line class="cls-1" x1="85.17" y1=".25" x2="85.17" y2="11.59"/>
</svg>