<?xml version="1.0" encoding="UTF-8"?>
<svg id="Layer_1" data-name="Layer 1" xmlns="http://www.w3.org/2000/svg" viewBox="0 0 119.46 68.48">
  <defs>
    <style>
      .cls-1 {
        font-family: ArialMT, Arial;
        font-size: 7.93px;
      }

      .cls-2 {
        fill: none;
        stroke: #000;
        stroke-linecap: round;
        stroke-linejoin: round;
        stroke-width: .51px;
      }
    </style>
  </defs>
  <polyline class="cls-2" points="17.25 34.23 85.23 34.23 85.23 56.9 17.25 56.9 17.25 34.23"/>
  <line class="cls-2" x1="39.91" y1="34.23" x2="39.91" y2="56.9"/>
  <line class="cls-2" x1="62.55" y1="34.23" x2="62.55" y2="56.9"/>
  <line class="cls-2" x1="20.08" y1="59.73" x2="82.39" y2="59.73"/>
  <line class="cls-2" x1="82.39" y1="31.41" x2="20.08" y2="31.41"/>
  <line class="cls-2" x1="45.59" y1="56.9" x2="45.59" y2="51.22"/>
  <line class="cls-2" x1="42.73" y1="51.22" x2="48.41" y2="51.22"/>
  <line class="cls-2" x1="56.91" y1="34.23" x2="56.91" y2="56.9"/>
  <line class="cls-2" x1="45.59" y1="34.23" x2="45.59" y2="45.57"/>
  <line class="cls-2" x1="45.59" y1="45.57" x2="56.91" y2="45.57"/>
  <polyline class="cls-2" points="58.3 45.57 58.3 45.38 58.25 45.21 58.2 45.03 58.14 44.86 58.04 44.71 57.91 44.57 57.75 44.46 57.61 44.36 57.43 44.25 57.25 44.21 57.09 44.18 56.91 44.15 56.7 44.18 56.54 44.21 56.36 44.25 56.18 44.36 56.04 44.46 55.91 44.57 55.79 44.71 55.68 44.86 55.59 45.03 55.54 45.21 55.5 45.38 55.48 45.57 55.5 45.75 55.54 45.93 55.59 46.11 55.68 46.28 55.79 46.43 55.91 46.57 56.04 46.71 56.18 46.8 56.36 46.88 56.54 46.93 56.7 46.97 56.91 46.97 57.09 46.97 57.25 46.93 57.43 46.88 57.61 46.8 57.75 46.71 57.91 46.57 58.04 46.43 58.14 46.28 58.2 46.11 58.25 45.93 58.3 45.75 58.3 45.57"/>
  <polyline class="cls-2" points="56.11 44.38 57.68 44.38 55.84 44.63 57.95 44.63 55.68 44.86 58.14 44.86 55.55 45.11 58.23 45.11 55.5 45.32 58.3 45.32 55.48 45.57 58.3 45.57 55.5 45.8 58.3 45.8 55.55 46.05 58.23 46.05 55.68 46.28 58.14 46.28 55.84 46.5 57.95 46.5 56.11 46.75 57.68 46.75"/>
  <polyline class="cls-2" points="85.23 28.57 86.4 22.91 88.76 34.23 91.14 22.91 93.48 34.23 95.83 22.91 98.2 34.23 99.39 28.57"/>
  <polyline class="cls-2" points="17.25 28.57 16.09 22.91 13.7 34.23 11.35 22.91 8.98 34.23 6.63 22.91 4.26 34.23 3.09 28.57"/>
  <line class="cls-2" x1="45.59" y1="56.9" x2="45.59" y2="68.22"/>
  <line class="cls-2" x1="56.91" y1="56.9" x2="56.91" y2="68.22"/>
  <line class="cls-2" x1="45.59" y1="34.23" x2="45.59" y2="22.91"/>
  <line class="cls-2" x1="56.91" y1="34.23" x2="56.91" y2="22.91"/>
  <line class="cls-2" x1="5.94" y1="56.9" x2="11.59" y2="45.57"/>
  <polyline class="cls-2" points=".25 56.9 17.25 56.9 17.25 45.57 .25 45.57 .25 56.9"/>
  <line class="cls-2" x1="11.01" y1="61.43" x2="6.59" y2="41.47"/>
  <polyline points="5.11 41.8 8.05 41.13 5.36 35.92 5.11 41.8"/>
  <line class="cls-2" x1="96.55" y1="56.9" x2="90.89" y2="45.57"/>
  <polyline class="cls-2" points="85.23 56.9 102.2 56.9 102.2 45.57 85.23 45.57 85.23 56.9"/>
  <line class="cls-2" x1="91.45" y1="61.43" x2="95.89" y2="41.47"/>
  <polyline points="94.4 41.13 97.36 41.8 97.11 35.92 94.4 41.13"/>
  <polyline class="cls-2" points="42.23 42.72 42.59 42.3 42.86 41.8 43.09 41.28 43.23 40.75 43.3 40.18 43.3 39.63 43.23 39.05 43.09 38.53 42.86 38 42.59 37.53 42.23 37.07"/>
  <polyline class="cls-2" points="48.91 37.07 48.59 37.53 48.29 38 48.05 38.53 47.93 39.05 47.86 39.63 47.86 40.18 47.93 40.75 48.05 41.28 48.29 41.8 48.59 42.3 48.91 42.72"/>
  <polyline class="cls-2" points="53.55 42.72 53.91 42.3 54.18 41.8 54.41 41.28 54.55 40.75 54.64 40.18 54.64 39.63 54.55 39.05 54.41 38.53 54.18 38 53.91 37.53 53.55 37.07"/>
  <polyline class="cls-2" points="60.25 37.07 59.91 37.53 59.61 38 59.41 38.53 59.25 39.05 59.18 39.63 59.18 40.18 59.25 40.75 59.41 41.28 59.61 41.8 59.91 42.3 60.25 42.72"/>
  <line class="cls-2" x1="68.23" y1="56.9" x2="68.23" y2="39.9"/>
  <polyline points="66.7 39.9 69.76 39.9 68.23 34.25 66.7 39.9"/>
  <line class="cls-2" x1="22.91" y1="34.23" x2="31.7" y2="51.82"/>
  <polyline points="33.05 51.15 30.35 52.5 34.23 56.9 33.05 51.15"/>
  <line class="cls-2" x1="22.91" y1="56.9" x2="31.7" y2="39.3"/>
  <polyline points="30.35 38.63 33.05 39.97 34.23 34.23 30.35 38.63"/>
  <line class="cls-2" x1="79.55" y1="34.23" x2="79.55" y2="51.22"/>
  <polyline points="81.08 51.22 78.04 51.22 79.55 56.9 81.08 51.22"/>
  <line class="cls-2" x1="17.25" y1="22.91" x2="17.25" y2="34.23"/>
  <line class="cls-2" x1="85.23" y1="17.25" x2="85.23" y2="34.23"/>
  <line class="cls-2" x1="93.86" y1="4.5" x2="93.86" y2="7.32"/>
  <line class="cls-2" x1="99.54" y1="4.5" x2="99.54" y2="7.32"/>
  <polyline class="cls-2" points="99.54 4.5 99.51 4.13 99.44 3.77 99.3 3.42 99.14 3.07 98.94 2.77 98.69 2.5 98.4 2.25 98.11 2.06 97.79 1.88 97.44 1.77 97.05 1.7 96.69 1.67 96.33 1.7 95.95 1.77 95.61 1.88 95.29 2.06 94.95 2.25 94.69 2.5 94.45 2.77 94.23 3.07 94.08 3.42 93.95 3.77 93.89 4.13 93.86 4.5"/>
  <line class="cls-2" x1="85.23" y1=".25" x2="102.2" y2="17.25"/>
  <polyline class="cls-2" points="85.23 17.25 102.2 17.25 102.2 .25 85.23 .25 85.23 17.25"/>
  <text class="cls-1" transform="translate(87.66 15.82)"><tspan x="0" y="0">G</tspan></text>
  <polyline class="cls-2" points="102.2 56.9 119.2 56.9 119.2 39.9 102.2 39.9 102.2 56.9"/>
  <line class="cls-2" x1="114.95" y1="52.65" x2="114.95" y2="49.53"/>
  <line class="cls-2" x1="114.95" y1="47.28" x2="114.95" y2="44.15"/>
  <line class="cls-2" x1="111.55" y1="50.96" x2="114.95" y2="52.65"/>
  <line class="cls-2" x1="109.86" y1="50.11" x2="106.45" y2="48.4"/>
  <line class="cls-2" x1="111.55" y1="45.86" x2="114.95" y2="44.15"/>
  <line class="cls-2" x1="109.86" y1="46.71" x2="106.45" y2="48.4"/>
</svg>