<?xml version="1.0" encoding="UTF-8"?>
<svg id="Layer_1" data-name="Layer 1" xmlns="http://www.w3.org/2000/svg" viewBox="0 0 55.21 68.44">
  <defs>
    <style>
      .cls-1 {
        stroke-width: .43px;
      }

      .cls-1, .cls-2 {
        fill: none;
        stroke: #000;
        stroke-linecap: round;
        stroke-linejoin: round;
      }

      .cls-2 {
        stroke-width: .51px;
      }
    </style>
  </defs>
  <polyline class="cls-2" points="11.57 56.9 34.26 56.9 34.26 34.25 11.57 34.25 11.57 56.9"/>
  <line class="cls-2" x1="11.57" y1="51.22" x2="28.58" y2="51.22"/>
  <polyline points="28.58 49.72 28.58 52.75 34.26 51.22 28.58 49.72"/>
  <line class="cls-1" x1="11.57" y1="45.57" x2="9.02" y2="48.13"/>
  <line class="cls-1" x1="7.43" y1="49.72" x2="4.43" y2="52.73"/>
  <line class="cls-1" x1="2.81" y1="54.32" x2=".25" y2="56.9"/>
  <line class="cls-1" x1=".25" y1="56.9" x2=".25" y2="61.43"/>
  <line class="cls-1" x1=".25" y1="63.7" x2=".25" y2="68.22"/>
  <line class="cls-1" x1=".25" y1="68.22" x2="4.36" y2="68.22"/>
  <line class="cls-1" x1="6.62" y1="68.22" x2="10.88" y2="68.22"/>
  <line class="cls-1" x1="13.15" y1="68.22" x2="17.25" y2="68.22"/>
  <line class="cls-1" x1="17.25" y1="68.22" x2="17.25" y2="63.7"/>
  <line class="cls-1" x1="17.25" y1="61.43" x2="17.25" y2="56.9"/>
  <polyline class="cls-2" points="11.57 34.25 22.91 34.25 22.91 17.25 11.57 17.25 11.57 34.25"/>
  <polyline points="11.57 25.75 22.91 25.75 17.25 17.25 11.57 25.75"/>
  <line class="cls-2" x1="22.91" y1="11.57" x2="11.57" y2="5.92"/>
  <polyline class="cls-2" points="11.57 .25 22.91 .25 22.91 17.25 11.57 17.25 11.57 .25"/>
  <line class="cls-2" x1="7.05" y1="11.03" x2="27" y2="6.57"/>
  <polyline points="26.67 5.1 27.35 8.05 32.56 5.35 26.67 5.1"/>
  <polyline class="cls-2" points="34.26 34.25 45.58 34.25 45.58 17.25 34.26 17.25 34.26 34.25"/>
  <polyline points="34.26 25.75 45.58 25.75 39.9 17.25 34.26 25.75"/>
  <polyline class="cls-2" points="39.9 3.07 34.26 4.25 45.58 6.62 34.26 8.98 45.58 11.35 34.26 13.71 45.58 16.07 39.9 17.25"/>
  <line class="cls-2" x1="29.7" y1="12.42" x2="49.67" y2="8"/>
  <polyline points="49.35 6.5 50.01 9.48 55.21 6.78 49.35 6.5"/>
  <line class="cls-2" x1="34.26" y1="45.57" x2="45.58" y2="45.57"/>
  <line class="cls-2" x1="11.57" y1="45.57" x2=".25" y2="45.57"/>
  <line class="cls-2" x1="11.57" y1="17.25" x2=".25" y2="17.25"/>
</svg>