<?xml version="1.0" encoding="UTF-8"?>
<svg id="Layer_1" data-name="Layer 1" xmlns="http://www.w3.org/2000/svg" viewBox="0 0 136.41 45.81">
  <defs>
    <style>
      .cls-1 {
        fill: none;
        stroke: #000;
        stroke-linecap: round;
        stroke-linejoin: round;
        stroke-width: .51px;
      }
    </style>
  </defs>
  <polyline class="cls-1" points="34.22 11.59 102.17 11.59 102.17 34.24 34.22 34.24 34.22 11.59"/>
  <line class="cls-1" x1="56.88" y1="11.59" x2="56.88" y2="34.24"/>
  <line class="cls-1" x1="79.52" y1="11.59" x2="79.52" y2="34.24"/>
  <line class="cls-1" x1="37.06" y1="37.06" x2="99.36" y2="37.06"/>
  <line class="cls-1" x1="99.36" y1="8.75" x2="37.06" y2="8.75"/>
  <line class="cls-1" x1="62.52" y1="34.24" x2="62.52" y2="28.59"/>
  <line class="cls-1" x1="59.7" y1="28.59" x2="65.37" y2="28.56"/>
  <line class="cls-1" x1="73.87" y1="11.59" x2="73.87" y2="34.24"/>
  <line class="cls-1" x1="62.52" y1="11.59" x2="62.52" y2="22.91"/>
  <line class="cls-1" x1="62.52" y1="22.91" x2="73.87" y2="22.91"/>
  <polyline class="cls-1" points="75.27 22.91 75.27 22.74 75.23 22.54 75.17 22.36 75.11 22.21 74.98 22.06 74.87 21.91 74.73 21.79 74.58 21.69 74.41 21.61 74.23 21.54 74.05 21.51 73.87 21.49 73.67 21.51 73.51 21.54 73.33 21.61 73.16 21.69 73.01 21.79 72.86 21.91 72.76 22.06 72.62 22.21 72.55 22.36 72.51 22.54 72.45 22.74 72.45 22.91 72.45 23.09 72.51 23.29 72.55 23.46 72.62 23.61 72.76 23.76 72.86 23.91 73.01 24.04 73.16 24.14 73.33 24.21 73.51 24.29 73.67 24.31 73.87 24.34 74.05 24.31 74.23 24.29 74.41 24.21 74.58 24.14 74.73 24.04 74.87 23.91 74.98 23.76 75.11 23.61 75.17 23.46 75.23 23.29 75.27 23.09 75.27 22.91"/>
  <polyline class="cls-1" points="73.08 21.74 74.66 21.74 72.8 21.96 74.92 21.96 72.62 22.21 75.11 22.21 72.52 22.44 75.2 22.44 72.48 22.69 75.26 22.69 72.45 22.91 75.27 22.91 72.48 23.14 75.26 23.14 72.52 23.39 75.2 23.39 72.62 23.61 75.11 23.61 72.8 23.86 74.92 23.86 73.08 24.09 74.66 24.09"/>
  <polyline class="cls-1" points="102.17 17.24 103.36 11.59 105.73 22.91 108.08 11.59 110.42 22.91 112.8 11.59 115.16 22.91 116.33 17.24"/>
  <polyline class="cls-1" points="34.22 17.24 33.06 11.59 30.67 22.91 28.32 11.59 25.97 22.91 23.61 11.59 21.25 22.91 20.07 17.24"/>
  <line class="cls-1" x1="62.52" y1="34.24" x2="62.52" y2="45.56"/>
  <line class="cls-1" x1="73.87" y1="34.24" x2="73.87" y2="45.56"/>
  <line class="cls-1" x1="62.52" y1="11.59" x2="62.52" y2=".25"/>
  <line class="cls-1" x1="73.87" y1="11.59" x2="73.87" y2=".25"/>
  <line class="cls-1" x1="5.91" y1="34.24" x2="11.57" y2="22.91"/>
  <polyline class="cls-1" points=".25 34.24 17.22 34.24 17.22 22.91 .25 22.91 .25 34.24"/>
  <line class="cls-1" x1="11" y1="38.76" x2="6.58" y2="18.81"/>
  <polyline points="5.1 19.14 8.06 18.49 5.35 13.29 5.1 19.14"/>
  <line class="cls-1" x1="130.51" y1="34.24" x2="124.83" y2="22.91"/>
  <polyline class="cls-1" points="119.17 34.24 136.15 34.24 136.15 22.91 119.17 22.91 119.17 34.24"/>
  <line class="cls-1" x1="125.41" y1="38.76" x2="129.82" y2="18.81"/>
  <polyline points="128.35 18.49 131.31 19.14 131.06 13.29 128.35 18.49"/>
  <polyline class="cls-1" points="59.2 20.09 59.56 19.64 59.83 19.16 60.06 18.64 60.2 18.09 60.27 17.54 60.27 16.96 60.2 16.41 60.06 15.86 59.83 15.34 59.56 14.86 59.2 14.41"/>
  <polyline class="cls-1" points="65.87 14.41 65.52 14.86 65.26 15.34 65.02 15.86 64.87 16.41 64.8 16.96 64.8 17.54 64.87 18.09 65.02 18.64 65.26 19.16 65.52 19.64 65.87 20.09"/>
  <polyline class="cls-1" points="70.52 20.09 70.87 19.64 71.16 19.16 71.37 18.64 71.52 18.09 71.61 17.54 71.61 16.96 71.52 16.41 71.37 15.86 71.16 15.34 70.87 14.86 70.52 14.41"/>
  <polyline class="cls-1" points="77.2 14.41 76.86 14.86 76.58 15.34 76.36 15.86 76.2 16.41 76.12 16.96 76.12 17.54 76.2 18.09 76.36 18.64 76.58 19.16 76.86 19.64 77.2 20.09"/>
  <line class="cls-1" x1="85.17" y1="34.24" x2="85.17" y2="17.26"/>
  <polyline points="83.67 17.26 86.7 17.24 85.17 11.59 83.67 17.26"/>
  <line class="cls-1" x1="39.88" y1="11.59" x2="48.67" y2="29.16"/>
  <polyline points="50.02 28.49 47.33 29.86 51.22 34.24 50.02 28.49"/>
  <line class="cls-1" x1="39.88" y1="34.24" x2="48.67" y2="16.66"/>
  <polyline points="47.33 15.96 50.02 17.34 51.22 11.59 47.33 15.96"/>
  <line class="cls-1" x1="96.52" y1="11.59" x2="96.51" y2="28.56"/>
  <polyline points="98.02 28.59 95.01 28.56 96.51 34.24 98.02 28.59"/>
  <polyline class="cls-1" points="17.22 22.91 34.22 22.91 34.22 34.24 17.22 34.24 17.22 22.91"/>
  <polyline points="17.22 22.91 27.15 28.59 17.22 34.24 17.22 22.91"/>
  <polyline class="cls-1" points="119.17 34.24 102.17 34.24 102.17 22.91 119.17 22.91 119.17 34.24"/>
  <polyline points="119.17 34.24 109.26 28.59 119.17 22.91 119.17 34.24"/>
</svg>