<?xml version="1.0" encoding="UTF-8"?>
<svg id="Layer_1" data-name="Layer 1" xmlns="http://www.w3.org/2000/svg" viewBox="0 0 108.08 45.81">
  <defs>
    <style>
      .cls-1 {
        fill: none;
        stroke: #000;
        stroke-linecap: round;
        stroke-linejoin: round;
        stroke-width: .51px;
      }
    </style>
  </defs>
  <polyline class="cls-1" points=".25 11.59 68.2 11.59 68.2 34.24 .25 34.24 .25 11.59"/>
  <line class="cls-1" x1="22.9" y1="11.59" x2="22.9" y2="34.24"/>
  <line class="cls-1" x1="45.56" y1="11.59" x2="45.56" y2="34.24"/>
  <line class="cls-1" x1="3.08" y1="37.06" x2="65.36" y2="37.06"/>
  <line class="cls-1" x1="65.36" y1="8.75" x2="3.08" y2="8.75"/>
  <line class="cls-1" x1="28.55" y1="34.24" x2="28.55" y2="28.59"/>
  <line class="cls-1" x1="25.72" y1="28.59" x2="31.4" y2="28.56"/>
  <line class="cls-1" x1="28.55" y1="34.24" x2="28.55" y2="45.56"/>
  <line class="cls-1" x1="39.88" y1="34.24" x2="39.88" y2="45.56"/>
  <line class="cls-1" x1="28.55" y1="11.59" x2="28.55" y2=".25"/>
  <line class="cls-1" x1="39.88" y1="11.59" x2="39.88" y2=".25"/>
  <line class="cls-1" x1="51.2" y1="34.24" x2="51.2" y2="17.26"/>
  <polyline points="49.7 17.26 52.72 17.24 51.2 11.59 49.7 17.26"/>
  <line class="cls-1" x1="5.91" y1="11.59" x2="14.7" y2="29.16"/>
  <polyline points="16.06 28.49 13.36 29.86 17.22 34.24 16.06 28.49"/>
  <line class="cls-1" x1="5.91" y1="34.24" x2="14.7" y2="16.66"/>
  <polyline points="13.36 15.96 16.06 17.34 17.22 11.59 13.36 15.96"/>
  <line class="cls-1" x1="62.52" y1="11.59" x2="62.52" y2="28.56"/>
  <polyline points="64.06 28.59 61.02 28.56 62.52 34.24 64.06 28.59"/>
  <line class="cls-1" x1="39.88" y1="34.24" x2="39.88" y2="28.59"/>
  <line class="cls-1" x1="37.06" y1="28.59" x2="42.72" y2="28.56"/>
  <line class="cls-1" x1="28.55" y1="11.59" x2="28.55" y2="17.24"/>
  <line class="cls-1" x1="31.4" y1="17.26" x2="25.72" y2="17.24"/>
  <line class="cls-1" x1="39.88" y1="11.59" x2="39.88" y2="17.24"/>
  <line class="cls-1" x1="42.72" y1="17.26" x2="37.06" y2="17.24"/>
  <line class="cls-1" x1="68.2" y1="20.09" x2="85.45" y2="20.09"/>
  <line class="cls-1" x1="68.2" y1="25.74" x2="85.45" y2="25.74"/>
  <polyline class="cls-1" points="107.83 22.91 107.73 21.44 107.45 19.99 106.98 18.59 106.3 17.24 105.48 16.01 104.51 14.91 103.41 13.94 102.17 13.11 100.83 12.44 99.42 11.96 97.98 11.69 96.51 11.59 95.02 11.69 93.58 11.96 92.17 12.44 90.86 13.11 89.61 13.94 88.51 14.91 87.52 16.01 86.7 17.26 86.05 18.59 85.58 19.99 85.27 21.44 85.17 22.91 85.27 24.39 85.58 25.84 86.05 27.24 86.7 28.59 87.52 29.81 88.51 30.91 89.61 31.89 90.86 32.71 92.17 33.39 93.58 33.86 95.02 34.14 96.51 34.24 97.98 34.14 99.42 33.86 100.83 33.39 102.17 32.71 103.41 31.89 104.51 30.91 105.48 29.81 106.3 28.56 106.98 27.24 107.45 25.84 107.73 24.39 107.83 22.91"/>
  <line class="cls-1" x1="92.26" y1="22.91" x2="92.26" y2="14.41"/>
  <line class="cls-1" x1="92.26" y1="14.41" x2="96.51" y2="18.66"/>
  <line class="cls-1" x1="96.51" y1="18.66" x2="100.76" y2="14.41"/>
  <line class="cls-1" x1="100.76" y1="14.41" x2="100.76" y2="22.91"/>
  <line class="cls-1" x1="92.26" y1="31.41" x2="92.26" y2="28.59"/>
  <line class="cls-1" x1="92.26" y1="28.59" x2="100.76" y2="28.59"/>
  <line class="cls-1" x1="100.76" y1="28.59" x2="100.76" y2="25.74"/>
</svg>