<?xml version="1.0" encoding="UTF-8"?>
<svg id="Layer_1" data-name="Layer 1" xmlns="http://www.w3.org/2000/svg" viewBox="0 0 45.81 68.42">
  <defs>
    <style>
      .cls-1 {
        stroke-width: .43px;
      }

      .cls-1, .cls-2 {
        fill: none;
        stroke: #000;
        stroke-linecap: round;
        stroke-linejoin: round;
      }

      .cls-2 {
        stroke-width: .51px;
      }
    </style>
  </defs>
  <polyline class="cls-2" points="11.58 56.87 34.22 56.87 34.22 34.23 11.58 34.23 11.58 56.87"/>
  <line class="cls-2" x1="11.58" y1="51.21" x2="28.58" y2="51.21"/>
  <polyline points="28.58 49.71 28.58 52.73 34.22 51.21 28.58 49.71"/>
  <line class="cls-1" x1="11.58" y1="45.55" x2="9.03" y2="48.11"/>
  <line class="cls-1" x1="7.42" y1="49.71" x2="4.4" y2="52.73"/>
  <line class="cls-1" x1="2.8" y1="54.32" x2=".25" y2="56.87"/>
  <line class="cls-1" x1=".25" y1="56.87" x2=".25" y2="61.41"/>
  <line class="cls-1" x1=".25" y1="63.68" x2=".25" y2="68.2"/>
  <line class="cls-1" x1=".25" y1="68.2" x2="4.36" y2="68.2"/>
  <line class="cls-1" x1="6.63" y1="68.2" x2="10.87" y2="68.2"/>
  <line class="cls-1" x1="13.12" y1="68.2" x2="17.22" y2="68.2"/>
  <line class="cls-1" x1="17.22" y1="68.2" x2="17.22" y2="63.68"/>
  <line class="cls-1" x1="17.22" y1="61.41" x2="17.22" y2="56.87"/>
  <line class="cls-2" x1="22.91" y1="28.57" x2="11.58" y2="22.91"/>
  <polyline class="cls-2" points="11.58 17.25 22.91 17.25 22.91 34.23 11.58 34.23 11.58 17.25"/>
  <line class="cls-2" x1="7.05" y1="28" x2="27.01" y2="23.55"/>
  <polyline points="26.68 22.07 27.33 25.05 32.52 22.32 26.68 22.07"/>
  <polyline class="cls-2" points="28.58 17.25 11.58 17.25 11.58 .25 28.58 .25 28.58 17.25"/>
  <line class="cls-2" x1="24.33" y1="4.5" x2="21.2" y2="4.5"/>
  <line class="cls-2" x1="18.93" y1="4.5" x2="15.83" y2="4.5"/>
  <line class="cls-2" x1="22.62" y1="7.91" x2="24.33" y2="4.5"/>
  <line class="cls-2" x1="21.77" y1="9.6" x2="20.08" y2="13"/>
  <line class="cls-2" x1="17.52" y1="7.91" x2="15.83" y2="4.5"/>
  <line class="cls-2" x1="18.37" y1="9.6" x2="20.08" y2="13"/>
  <line class="cls-2" x1="34.22" y1="45.55" x2="45.56" y2="45.55"/>
  <line class="cls-2" x1="11.58" y1="45.55" x2=".25" y2="45.55"/>
</svg>