<?xml version="1.0" encoding="UTF-8"?>
<svg id="Layer_1" data-name="Layer 1" xmlns="http://www.w3.org/2000/svg" viewBox="0 0 28.81 15.61">
  <defs>
    <style>
      .cls-1 {
        fill: none;
        stroke: #000;
        stroke-linecap: round;
        stroke-linejoin: round;
        stroke-width: .51px;
      }
    </style>
  </defs>
  <line class="cls-1" x1="28.55" y1="2.15" x2="28.55" y2="13.45"/>
  <line class="cls-1" x1="28.55" y1="7.8" x2="22.91" y2="7.8"/>
  <polyline class="cls-1" points="21.33 7.8 21.3 7.3 21.2 6.82 21.05 6.35 20.83 5.92 20.55 5.5 20.22 5.12 19.85 4.8 19.45 4.52 19.01 4.3 18.52 4.15 18.05 4.05 17.55 4.02 17.05 4.05 16.58 4.15 16.11 4.3 15.67 4.52 15.25 4.8 14.87 5.12 14.55 5.5 14.28 5.92 14.08 6.35 13.91 6.82 13.83 7.3 13.78 7.8 13.83 8.3 13.91 8.77 14.08 9.25 14.28 9.67 14.55 10.1 14.87 10.47 15.25 10.8 15.67 11.07 16.11 11.3 16.58 11.45 17.05 11.55 17.55 11.57 18.05 11.55 18.52 11.45 19.01 11.3 19.45 11.07 19.85 10.8 20.22 10.47 20.55 10.1 20.83 9.67 21.05 9.25 21.2 8.77 21.3 8.3 21.33 7.8"/>
  <line class="cls-1" x1="13.78" y1="7.8" x2="11.58" y2="7.8"/>
  <polyline class="cls-1" points="15.36 15.35 22.91 7.8 15.36 .25"/>
  <line class="cls-1" x1="11.58" y1="7.8" x2=".25" y2="7.8"/>
</svg>