<?xml version="1.0" encoding="UTF-8"?>
<svg id="Layer_1" data-name="Layer 1" xmlns="http://www.w3.org/2000/svg" viewBox="0 0 91.16 79.83">
  <defs>
    <style>
      .cls-1 {
        fill: none;
        stroke: #000;
        stroke-linecap: round;
        stroke-linejoin: round;
        stroke-width: .51px;
      }
    </style>
  </defs>
  <polyline class="cls-1" points=".25 73.9 .25 5.92 90.91 5.92 90.91 73.9 .25 73.9"/>
  <line class="cls-1" x1="68.22" y1="51.25" x2="68.22" y2="62.57"/>
  <line class="cls-1" x1="68.22" y1="62.57" x2="45.57" y2="62.57"/>
  <polyline points="22.93 25.75 18.83 17.75 20.85 17.37 22.93 25.75"/>
  <polyline points="22.93 25.75 20.85 17.37 22.91 17.25 22.93 25.75"/>
  <polyline points="22.93 25.75 22.91 17.25 24.97 17.37 22.93 25.75"/>
  <polyline points="22.93 25.75 24.97 17.37 27.01 17.75 22.93 25.75"/>
  <polyline points="22.93 42.75 18.83 50.75 20.85 51.12 22.93 42.75"/>
  <polyline points="22.93 42.75 20.85 51.12 22.93 51.25 22.93 42.75"/>
  <polyline points="22.93 42.75 22.93 51.25 24.97 51.12 22.93 42.75"/>
  <polyline points="22.93 42.75 24.97 51.12 27.01 50.75 22.93 42.75"/>
  <polyline class="cls-1" points="39.91 34.25 39.77 32.02 39.32 29.85 38.63 27.75 37.63 25.75 36.41 23.9 34.93 22.22 33.25 20.75 31.41 19.52 29.43 18.55 27.3 17.82 25.12 17.4 22.93 17.25 20.7 17.4 18.52 17.82 16.41 18.55 14.42 19.52 12.58 20.75 10.91 22.22 9.42 23.9 8.21 25.75 7.21 27.75 6.51 29.85 6.05 32.02 5.92 34.25 6.05 36.47 6.51 38.65 7.21 40.75 8.21 42.75 9.42 44.6 10.91 46.27 12.58 47.72 14.42 48.97 16.41 49.95 18.52 50.67 20.7 51.1 22.93 51.25 25.12 51.1 27.3 50.67 29.43 49.95 31.41 48.97 33.25 47.72 34.93 46.27 36.41 44.6 37.63 42.75 38.63 40.75 39.32 38.65 39.77 36.47 39.91 34.25"/>
  <polyline points="68.22 25.75 64.16 17.75 66.17 17.37 68.22 25.75"/>
  <polyline points="68.22 25.75 66.17 17.37 68.22 17.25 68.22 25.75"/>
  <polyline points="68.22 25.75 68.22 17.25 70.31 17.37 68.22 25.75"/>
  <polyline points="68.22 25.75 70.31 17.37 72.32 17.75 68.22 25.75"/>
  <polyline points="68.25 42.75 64.16 50.75 66.17 51.12 68.25 42.75"/>
  <polyline points="68.25 42.75 66.17 51.12 68.25 51.25 68.25 42.75"/>
  <polyline points="68.25 42.75 68.25 51.25 70.31 51.12 68.25 42.75"/>
  <polyline points="68.25 42.75 70.31 51.12 72.32 50.75 68.25 42.75"/>
  <polyline class="cls-1" points="85.22 34.25 85.1 32.02 84.66 29.85 83.96 27.75 82.96 25.75 81.72 23.9 80.25 22.22 78.57 20.75 76.72 19.52 74.75 18.55 72.63 17.82 70.46 17.4 68.22 17.25 66.03 17.4 63.86 17.82 61.72 18.55 59.75 19.52 57.91 20.75 56.22 22.22 54.75 23.9 53.52 25.75 52.52 27.75 51.82 29.85 51.38 32.02 51.25 34.25 51.38 36.47 51.82 38.65 52.52 40.75 53.52 42.75 54.75 44.6 56.22 46.27 57.91 47.72 59.75 48.97 61.72 49.95 63.86 50.67 66.03 51.1 68.25 51.25 70.46 51.1 72.63 50.67 74.75 49.95 76.72 48.97 78.57 47.72 80.25 46.27 81.72 44.6 82.96 42.75 83.96 40.75 84.66 38.65 85.1 36.47 85.22 34.25"/>
  <line class="cls-1" x1="39.63" y1="37.07" x2="51.52" y2="37.07"/>
  <line class="cls-1" x1="39.63" y1="31.42" x2="51.52" y2="31.42"/>
  <line class="cls-1" x1="22.93" y1=".25" x2="22.93" y2="17.25"/>
  <line class="cls-1" x1="68.22" y1="17.25" x2="68.22" y2=".25"/>
  <polyline class="cls-1" points="47.86 62.57 47.82 62.27 47.77 62 47.68 61.7 47.56 61.45 47.38 61.2 47.18 60.97 46.95 60.77 46.7 60.62 46.45 60.47 46.16 60.4 45.88 60.32 45.57 60.3 45.27 60.32 45 60.4 44.7 60.47 44.45 60.62 44.2 60.77 43.97 60.97 43.77 61.2 43.61 61.45 43.47 61.7 43.38 62 43.32 62.27 43.31 62.57 43.32 62.87 43.38 63.17 43.47 63.45 43.61 63.7 43.77 63.95 43.97 64.17 44.2 64.37 44.45 64.55 44.7 64.67 45 64.77 45.27 64.82 45.57 64.85 45.88 64.82 46.16 64.77 46.45 64.67 46.7 64.55 46.95 64.37 47.18 64.17 47.38 63.95 47.56 63.7 47.68 63.45 47.77 63.17 47.82 62.87 47.86 62.57"/>
  <polyline class="cls-1" points="44.52 60.55 46.63 60.55 44.16 60.82 47 60.82 43.88 61.07 47.27 61.07 43.7 61.32 47.45 61.32 43.56 61.57 47.61 61.57 43.45 61.82 47.7 61.82 43.38 62.07 47.77 62.07 43.32 62.32 47.82 62.32 43.31 62.57 47.86 62.57 43.32 62.82 47.82 62.82 43.38 63.07 47.77 63.07 43.45 63.32 47.7 63.32 43.56 63.57 47.61 63.57 43.7 63.82 47.45 63.82 43.88 64.1 47.27 64.1 44.16 64.35 47 64.35 44.52 64.6 46.63 64.6"/>
  <line class="cls-1" x1="45.57" y1="62.57" x2="22.93" y2="62.57"/>
  <line class="cls-1" x1="22.93" y1="62.57" x2="22.93" y2="51.25"/>
  <line class="cls-1" x1="45.57" y1="62.57" x2="45.57" y2="79.57"/>
</svg>