<?xml version="1.0" encoding="UTF-8"?>
<svg id="Layer_1" data-name="Layer 1" xmlns="http://www.w3.org/2000/svg" viewBox="0 0 62.81 31.66">
  <defs>
    <style>
      .cls-1 {
        fill: none;
        stroke: #000;
        stroke-linecap: round;
        stroke-linejoin: round;
        stroke-width: .51px;
      }
    </style>
  </defs>
  <line class="cls-1" x1=".25" y1="20.09" x2="31.41" y2="20.09"/>
  <polyline class="cls-1" points="33.68 20.09 33.66 19.79 33.61 19.49 33.5 19.21 33.36 18.96 33.2 18.71 33 18.49 32.77 18.29 32.52 18.11 32.27 17.99 31.97 17.89 31.7 17.84 31.41 17.81 31.1 17.84 30.83 17.89 30.52 17.99 30.27 18.11 30.02 18.29 29.8 18.49 29.6 18.71 29.45 18.96 29.3 19.21 29.2 19.49 29.16 19.79 29.12 20.09 29.16 20.39 29.2 20.66 29.3 20.96 29.45 21.21 29.6 21.46 29.8 21.69 30.02 21.89 30.27 22.04 30.52 22.19 30.83 22.26 31.1 22.34 31.41 22.36 31.7 22.34 31.97 22.26 32.27 22.19 32.52 22.04 32.77 21.89 33 21.69 33.2 21.46 33.36 21.21 33.5 20.96 33.61 20.66 33.66 20.39 33.68 20.09"/>
  <polyline class="cls-1" points="30.35 18.06 32.45 18.06 29.97 18.31 32.82 18.31 29.7 18.56 33.11 18.56 29.52 18.84 33.27 18.84 29.37 19.09 33.43 19.09 29.27 19.34 33.52 19.34 29.2 19.59 33.61 19.59 29.16 19.84 33.66 19.84 29.12 20.09 33.68 20.09 29.16 20.34 33.66 20.34 29.2 20.59 33.61 20.59 29.27 20.84 33.52 20.84 29.37 21.09 33.43 21.09 29.52 21.34 33.27 21.34 29.7 21.59 33.11 21.59 29.97 21.84 32.82 21.84 30.35 22.09 32.45 22.09"/>
  <line class="cls-1" x1="31.41" y1="20.09" x2="39.91" y2="20.09"/>
  <line class="cls-1" x1="31.41" y1=".25" x2="31.41" y2="20.09"/>
  <line class="cls-1" x1="62.56" y1="20.09" x2="48.41" y2="20.09"/>
  <polyline class="cls-1" points="45.56 20.09 45.52 19.71 45.47 19.36 45.36 19.01 45.18 18.66 44.97 18.36 44.72 18.09 44.45 17.84 44.16 17.64 43.81 17.46 43.45 17.34 43.11 17.29 42.72 17.26 42.36 17.29 42 17.34 41.66 17.46 41.31 17.64 41 17.84 40.72 18.09 40.47 18.36 40.27 18.66 40.11 19.01 40 19.36 39.93 19.71 39.91 20.09 39.93 20.46 40 20.81 40.11 21.16 40.27 21.51 40.47 21.81 40.72 22.09 41 22.34 41.31 22.54 41.66 22.71 42 22.81 42.36 22.89 42.72 22.91 43.11 22.89 43.45 22.81 43.81 22.71 44.16 22.54 44.45 22.34 44.72 22.09 44.97 21.81 45.18 21.51 45.36 21.16 45.47 20.81 45.52 20.46 45.56 20.09"/>
  <line class="cls-1" x1="46.72" y1="20.09" x2="48.41" y2="20.09"/>
  <polyline class="cls-1" points="41.07 14.41 46.72 20.09 41.07 25.74"/>
  <line class="cls-1" x1="17.26" y1="20.09" x2="22.91" y2="25.74"/>
  <line class="cls-1" x1="17.26" y1="20.09" x2="22.91" y2="14.41"/>
  <polyline class="cls-1" points="8.75 31.41 8.75 8.76 54.06 8.76 54.06 31.41 8.75 31.41"/>
</svg>