<?xml version="1.0" encoding="UTF-8"?>
<svg id="Layer_1" data-name="Layer 1" xmlns="http://www.w3.org/2000/svg" viewBox="0 0 51.46 34.46">
  <defs>
    <style>
      .cls-1 {
        fill: none;
        stroke: #000;
        stroke-linecap: round;
        stroke-linejoin: round;
        stroke-width: .51px;
      }
    </style>
  </defs>
  <line class="cls-1" x1=".25" y1="22.88" x2=".25" y2=".25"/>
  <line class="cls-1" x1=".25" y1=".25" x2="25.74" y2=".25"/>
  <line class="cls-1" x1="25.74" y1=".25" x2="25.74" y2="5.9"/>
  <line class="cls-1" x1="25.74" y1="5.9" x2="51.2" y2="5.9"/>
  <line class="cls-1" x1="51.2" y1="5.9" x2="51.2" y2="17.23"/>
  <line class="cls-1" x1="51.2" y1="17.23" x2="25.74" y2="17.23"/>
  <line class="cls-1" x1="25.74" y1="17.23" x2="25.74" y2="22.88"/>
  <line class="cls-1" x1="25.74" y1="22.88" x2=".25" y2="22.88"/>
  <line class="cls-1" x1="3.09" y1="22.88" x2="3.09" y2="34.2"/>
  <line class="cls-1" x1="48.39" y1="17.23" x2="48.39" y2="34.2"/>
  <polyline points="45.55 11.58 48.39 17.23 51.2 11.58 45.55 11.58"/>
  <line class="cls-1" x1="45.55" y1="17.23" x2="45.55" y2="5.9"/>
  <line class="cls-1" x1="5.9" y1="22.88" x2="5.9" y2=".25"/>
  <line class="cls-1" x1="17.24" y1=".25" x2="17.24" y2="22.88"/>
  <line class="cls-1" x1="34.23" y1="17.23" x2="34.23" y2="5.9"/>
  <line class="cls-1" x1="34.23" y1="8.73" x2="17.24" y2="8.73"/>
  <line class="cls-1" x1="17.24" y1="14.4" x2="34.23" y2="14.4"/>
  <polyline points="5.9 22.88 3.09 17.23 .25 22.88 5.9 22.88"/>
</svg>