<?xml version="1.0" encoding="UTF-8"?>
<svg id="Layer_1" data-name="Layer 1" xmlns="http://www.w3.org/2000/svg" viewBox="0 0 48.61 34.46">
  <defs>
    <style>
      .cls-1 {
        fill: none;
        stroke: #000;
        stroke-linecap: round;
        stroke-linejoin: round;
        stroke-width: .51px;
      }
    </style>
  </defs>
  <line class="cls-1" x1="31.1" y1="20.05" x2="48.35" y2="20.05"/>
  <line class="cls-1" x1="31.1" y1="14.4" x2="48.35" y2="14.4"/>
  <polyline class="cls-1" points="14.41 34.2 16.63 34.05 18.8 33.63 20.91 32.9 22.88 31.93 24.74 30.7 26.41 29.23 27.88 27.55 29.1 25.73 30.09 23.73 30.8 21.63 31.24 19.45 31.39 17.23 31.24 15 30.8 12.83 30.09 10.73 29.1 8.73 27.88 6.9 26.41 5.23 24.74 3.75 22.88 2.53 20.91 1.55 18.8 .83 16.63 .4 14.41 .25"/>
  <line class="cls-1" x1="48.35" y1="14.4" x2="48.35" y2="20.05"/>
  <polyline class="cls-1" points="36.49 29.95 37.94 26.98 39.01 23.83 39.65 20.55 39.85 17.23 39.65 13.9 39.01 10.63 37.94 7.48 36.49 4.5"/>
  <line class="cls-1" x1="38.74" y1="24.88" x2="38.78" y2="24.78"/>
  <polyline points="40.15 25.4 37.39 24.18 36.49 29.95 40.15 25.4"/>
  <line class="cls-1" x1="38.74" y1="9.58" x2="38.78" y2="9.69"/>
  <polyline points="37.39 10.28 40.15 9.05 36.49 4.5 37.39 10.28"/>
  <line class="cls-1" x1="14.41" y1=".25" x2="14.41" y2="34.2"/>
  <polyline class="cls-1" points="14.41 25.73 13.24 20.05 10.86 31.38 8.5 20.05 6.15 31.38 3.78 20.05 1.44 31.38 .25 25.73"/>
  <line class="cls-1" x1="14.41" y1="8.73" x2="3.09" y2="8.73"/>
</svg>