<?xml version="1.0" encoding="UTF-8"?>
<svg id="Layer_1" data-name="Layer 1" xmlns="http://www.w3.org/2000/svg" viewBox="0 0 23.13 34.44">
  <defs>
    <style>
      .cls-1 {
        fill: none;
        stroke: #000;
        stroke-linecap: round;
        stroke-linejoin: round;
        stroke-width: .51px;
      }
    </style>
  </defs>
  <polyline class="cls-1" points="22.87 11.55 22.77 10.08 22.51 8.63 22.02 7.23 21.35 5.9 20.52 4.69 19.55 3.55 18.45 2.58 17.22 1.78 15.91 1.1 14.5 .64 13.05 .35 11.58 .25 10.08 .35 8.62 .64 7.22 1.1 5.9 1.78 4.67 2.58 3.57 3.55 2.61 4.69 1.77 5.9 1.1 7.23 .63 8.63 .35 10.08 .25 11.55 .35 13.03 .63 14.48 1.1 15.88 1.77 17.23 2.61 18.45 3.57 19.55 4.67 20.53 5.9 21.35 7.22 22 8.62 22.48 10.08 22.78 11.58 22.88 13.05 22.78 14.5 22.48 15.91 22 17.22 21.35 18.45 20.53 19.55 19.55 20.52 18.45 21.35 17.2 22.02 15.88 22.51 14.48 22.77 13.03 22.87 11.55"/>
  <polyline class="cls-1" points="12.97 19.48 12.97 19.3 12.92 19.1 12.87 18.93 12.78 18.78 12.67 18.63 12.55 18.48 12.42 18.35 12.28 18.25 12.11 18.19 11.92 18.11 11.75 18.08 11.58 18.05 11.37 18.08 11.2 18.11 11.03 18.19 10.86 18.25 10.7 18.35 10.58 18.48 10.45 18.63 10.36 18.78 10.25 18.93 10.2 19.1 10.16 19.3 10.16 19.48 10.16 19.65 10.2 19.85 10.25 20.03 10.36 20.18 10.45 20.33 10.58 20.48 10.7 20.6 10.86 20.7 11.03 20.78 11.2 20.85 11.37 20.88 11.58 20.9 11.75 20.88 11.92 20.85 12.11 20.78 12.28 20.7 12.42 20.6 12.55 20.48 12.67 20.33 12.78 20.18 12.87 20.03 12.92 19.85 12.97 19.65 12.97 19.48"/>
  <polyline class="cls-1" points="10.78 18.3 12.36 18.3 10.5 18.53 12.62 18.53 10.36 18.78 12.78 18.78 10.22 19 12.91 19 10.17 19.25 12.95 19.25 10.16 19.48 12.97 19.48 10.17 19.7 12.95 19.7 10.22 19.95 12.91 19.95 10.36 20.18 12.78 20.18 10.5 20.43 12.62 20.43 10.78 20.65 12.36 20.65"/>
  <polyline points="11.28 18.35 11.86 18.35 11.86 2.8 11.28 2.8 11.28 18.35"/>
  <line class="cls-1" x1="11.58" y1="34.18" x2="11.58" y2="22.88"/>
</svg>