<?xml version="1.0" encoding="UTF-8"?>
<svg id="Layer_1" data-name="Layer 1" xmlns="http://www.w3.org/2000/svg" viewBox="0 0 68.46 45.81">
  <defs>
    <style>
      .cls-1 {
        fill: none;
        stroke: #000;
        stroke-linecap: round;
        stroke-linejoin: round;
        stroke-width: .51px;
      }
    </style>
  </defs>
  <polyline class="cls-1" points="5.9 45.56 5.9 .25 62.55 .25 62.55 45.56 5.9 45.56"/>
  <polyline class="cls-1" points="39.91 18.46 39 17.79 38.04 17.21 37 16.76 35.91 16.46 34.8 16.31 33.66 16.31 32.55 16.46 31.45 16.76 30.43 17.21 29.45 17.79 28.58 18.46"/>
  <polyline class="cls-1" points="28.58 10.36 29.45 11.06 30.43 11.64 31.45 12.06 32.55 12.36 33.66 12.5 34.8 12.5 35.91 12.36 37 12.06 38.04 11.64 39 11.06 39.91 10.36"/>
  <line class="cls-1" x1="30.83" y1="22.34" x2="37.11" y2="7.74"/>
  <polyline points="35.7 7.14 38.48 8.34 39.34 2.54 35.7 7.14"/>
  <polyline class="cls-1" points="37.05 34.24 37.04 33.86 36.95 33.51 36.86 33.16 36.68 32.81 36.48 32.51 36.23 32.24 35.95 31.99 35.66 31.79 35.3 31.61 34.95 31.51 34.61 31.44 34.23 31.41 33.86 31.44 33.5 31.51 33.16 31.61 32.8 31.79 32.5 31.99 32.23 32.24 31.99 32.51 31.78 32.81 31.6 33.16 31.5 33.51 31.43 33.86 31.41 34.24 31.43 34.61 31.5 34.96 31.6 35.31 31.78 35.66 31.99 35.96 32.23 36.24 32.5 36.49 32.8 36.69 33.16 36.86 33.5 36.96 33.86 37.04 34.23 37.06 34.61 37.04 34.95 36.96 35.3 36.86 35.66 36.69 35.95 36.49 36.23 36.24 36.48 35.96 36.68 35.66 36.86 35.31 36.95 34.96 37.04 34.61 37.05 34.24"/>
  <line class="cls-1" x1="38.23" y1="34.24" x2="39.91" y2="34.24"/>
  <polyline class="cls-1" points="32.59 28.59 38.23 34.24 32.59 39.89"/>
  <line class="cls-1" x1="31.41" y1="34.24" x2="14.4" y2="34.24"/>
  <line class="cls-1" x1="14.4" y1="34.24" x2="14.4" y2="14.41"/>
  <line class="cls-1" x1="39.91" y1="34.24" x2="54.05" y2="34.24"/>
  <line class="cls-1" x1="54.05" y1="34.24" x2="54.05" y2="14.41"/>
  <polyline class="cls-1" points="16.68 14.41 16.66 14.11 16.6 13.84 16.5 13.56 16.39 13.29 16.2 13.04 16.01 12.81 15.78 12.61 15.56 12.46 15.28 12.34 15.01 12.24 14.7 12.16 14.4 12.16 14.1 12.16 13.84 12.24 13.56 12.34 13.28 12.46 13.03 12.61 12.81 12.81 12.6 13.04 12.45 13.29 12.34 13.56 12.23 13.84 12.15 14.11 12.15 14.41 12.15 14.71 12.23 15.01 12.34 15.29 12.45 15.56 12.6 15.79 12.81 16.01 13.03 16.21 13.28 16.39 13.56 16.51 13.84 16.61 14.1 16.66 14.4 16.69 14.7 16.66 15.01 16.61 15.28 16.51 15.56 16.39 15.78 16.21 16.01 16.01 16.2 15.79 16.39 15.56 16.5 15.29 16.6 15.01 16.66 14.71 16.68 14.41"/>
  <polyline class="cls-1" points="13.39 12.41 15.45 12.41 12.98 12.66 15.84 12.66 12.73 12.91 16.1 12.91 12.53 13.16 16.31 13.16 12.39 13.41 16.43 13.41 12.28 13.66 16.56 13.66 12.2 13.91 16.64 13.91 12.15 14.16 16.66 14.16 12.15 14.41 16.68 14.41 12.15 14.66 16.66 14.66 12.2 14.91 16.64 14.91 12.28 15.16 16.56 15.16 12.39 15.44 16.43 15.44 12.53 15.69 16.31 15.69 12.73 15.94 16.1 15.94 12.98 16.19 15.84 16.19 13.39 16.44 15.45 16.44"/>
  <line class="cls-1" x1=".25" y1="14.41" x2="14.4" y2="14.41"/>
  <polyline class="cls-1" points="56.3 14.41 56.3 14.11 56.23 13.84 56.14 13.56 56 13.29 55.86 13.04 55.66 12.81 55.43 12.61 55.18 12.46 54.91 12.34 54.64 12.24 54.36 12.16 54.05 12.16 53.75 12.16 53.45 12.24 53.18 12.34 52.91 12.46 52.68 12.61 52.45 12.81 52.25 13.04 52.09 13.29 51.95 13.56 51.86 13.84 51.8 14.11 51.79 14.41 51.8 14.71 51.86 15.01 51.95 15.29 52.09 15.56 52.25 15.79 52.45 16.01 52.68 16.21 52.91 16.39 53.18 16.51 53.45 16.61 53.75 16.66 54.05 16.69 54.36 16.66 54.64 16.61 54.91 16.51 55.18 16.39 55.43 16.21 55.66 16.01 55.86 15.79 56 15.56 56.14 15.29 56.23 15.01 56.3 14.71 56.3 14.41"/>
  <polyline class="cls-1" points="53 12.41 55.09 12.41 52.64 12.66 55.48 12.66 52.36 12.91 55.73 12.91 52.16 13.16 55.93 13.16 52.04 13.41 56.09 13.41 51.91 13.66 56.18 13.66 51.84 13.91 56.25 13.91 51.8 14.16 56.3 14.16 51.79 14.41 56.3 14.41 51.8 14.66 56.3 14.66 51.84 14.91 56.25 14.91 51.91 15.16 56.18 15.16 52.04 15.44 56.09 15.44 52.16 15.69 55.93 15.69 52.36 15.94 55.73 15.94 52.64 16.19 55.48 16.19 53 16.44 55.09 16.44"/>
  <line class="cls-1" x1="54.05" y1="14.41" x2="14.4" y2="14.41"/>
  <line class="cls-1" x1="68.2" y1="14.41" x2="54.05" y2="14.41"/>
</svg>