<?xml version="1.0" encoding="UTF-8"?>
<svg id="Layer_1" data-name="Layer 1" xmlns="http://www.w3.org/2000/svg" viewBox="0 0 51.22 54.31">
  <defs>
    <style>
      .cls-1 {
        fill: none;
        stroke: #000;
        stroke-linecap: round;
        stroke-linejoin: round;
        stroke-width: .51px;
      }
    </style>
  </defs>
  <line class="cls-1" x1="25.76" y1="8.75" x2="25.76" y2=".25"/>
  <line class="cls-1" x1="25.76" y1="42.73" x2="25.76" y2="51.22"/>
  <line class="cls-1" x1=".25" y1="28.57" x2="9.03" y2="28.57"/>
  <line class="cls-1" x1=".25" y1="22.91" x2="9.03" y2="22.91"/>
  <line class="cls-1" x1=".25" y1="22.91" x2=".25" y2="28.57"/>
  <polyline class="cls-1" points="45.56 37.05 47.02 34.07 48.11 30.9 48.75 27.65 48.95 24.32 48.75 21 48.11 17.73 47.02 14.57 45.56 11.57"/>
  <line class="cls-1" x1="47.82" y1="16.67" x2="47.86" y2="16.75"/>
  <polyline points="46.47 17.37 49.25 16.12 45.56 11.57 46.47 17.37"/>
  <line class="cls-1" x1=".25" y1="51.22" x2="47.22" y2="4.25"/>
  <polyline points="46.16 3.17 48.31 5.32 51.22 .25 46.16 3.17"/>
  <polyline points="21.51 17.25 29.97 17.25 25.76 8.75 21.51 17.25"/>
  <polyline class="cls-1" points="42.72 25.72 42.57 23.53 42.16 21.32 41.43 19.23 40.45 17.25 39.22 15.41 37.75 13.73 36.07 12.25 34.22 11.03 32.25 10.05 30.12 9.32 27.95 8.91 25.76 8.75 23.52 8.91 21.35 9.32 19.22 10.05 17.26 11.03 15.41 12.25 13.72 13.73 12.25 15.41 11.03 17.25 10.05 19.23 9.33 21.32 8.91 23.53 8.75 25.72 8.91 27.96 9.33 30.13 10.05 32.22 11.03 34.22 12.25 36.07 13.72 37.75 15.41 39.22 17.26 40.45 19.22 41.43 21.35 42.15 23.52 42.57 25.76 42.73 27.95 42.57 30.12 42.15 32.25 41.43 34.22 40.45 36.07 39.22 37.75 37.75 39.22 36.07 40.45 34.22 41.43 32.22 42.16 30.13 42.57 27.96 42.72 25.72"/>
  <polyline points="29.97 34.22 21.51 34.22 25.76 42.73 29.97 34.22"/>
  <line class="cls-1" x1="37.63" y1="37.63" x2="39.91" y2="39.9"/>
  <line class="cls-1" x1="41.5" y1="41.5" x2="44.52" y2="44.5"/>
  <line class="cls-1" x1="46.13" y1="46.11" x2="48.41" y2="48.37"/>
  <line class="cls-1" x1="48.41" y1="48.37" x2="48.41" y2="54.05"/>
</svg>