<?xml version="1.0" encoding="UTF-8"?>
<svg id="Layer_1" data-name="Layer 1" xmlns="http://www.w3.org/2000/svg" viewBox="0 0 51.48 54.31">
  <defs>
    <style>
      .cls-1 {
        fill: none;
        stroke: #000;
        stroke-linecap: round;
        stroke-linejoin: round;
        stroke-width: .51px;
      }
    </style>
  </defs>
  <line class="cls-1" x1="51.22" y1="22.91" x2="42.45" y2="22.91"/>
  <line class="cls-1" x1="51.22" y1="28.57" x2="42.45" y2="28.57"/>
  <line class="cls-1" x1="51.22" y1="28.57" x2="51.22" y2="22.91"/>
  <line class="cls-1" x1="25.72" y1="8.75" x2="25.72" y2=".25"/>
  <line class="cls-1" x1="25.72" y1="42.73" x2="25.72" y2="51.22"/>
  <polyline points="25.72 17.25 21.66 9.25 23.68 8.87 25.72 17.25"/>
  <polyline points="25.72 17.25 23.68 8.87 25.72 8.75 25.72 17.25"/>
  <polyline points="25.72 17.25 25.72 8.75 27.8 8.87 25.72 17.25"/>
  <polyline points="25.72 17.25 27.8 8.87 29.83 9.25 25.72 17.25"/>
  <polyline points="25.76 34.22 21.66 42.23 23.68 42.61 25.76 34.22"/>
  <polyline points="25.76 34.22 23.68 42.61 25.76 42.73 25.76 34.22"/>
  <polyline points="25.76 34.22 25.76 42.73 27.8 42.61 25.76 34.22"/>
  <polyline points="25.76 34.22 27.8 42.61 29.83 42.23 25.76 34.22"/>
  <polyline class="cls-1" points="42.72 25.72 42.57 23.53 42.16 21.32 41.43 19.23 40.45 17.25 39.22 15.41 37.75 13.73 36.07 12.25 34.22 11.03 32.25 10.05 30.12 9.32 27.95 8.91 25.72 8.75 23.52 8.91 21.35 9.32 19.22 10.05 17.26 11.03 15.41 12.25 13.72 13.73 12.25 15.41 11.03 17.25 10.05 19.23 9.33 21.32 8.91 23.53 8.75 25.72 8.91 27.96 9.33 30.13 10.05 32.22 11.03 34.22 12.25 36.07 13.72 37.75 15.41 39.22 17.26 40.45 19.22 41.43 21.35 42.15 23.52 42.57 25.72 42.73 27.95 42.57 30.12 42.15 32.25 41.43 34.22 40.45 36.07 39.22 37.75 37.75 39.22 36.07 40.45 34.22 41.43 32.22 42.16 30.13 42.57 27.96 42.72 25.72"/>
  <line class="cls-1" x1=".25" y1="51.22" x2="47.22" y2="4.25"/>
  <polyline points="46.16 3.17 48.31 5.32 51.22 .25 46.16 3.17"/>
  <line class="cls-1" x1="37.63" y1="37.63" x2="39.91" y2="39.9"/>
  <line class="cls-1" x1="41.5" y1="41.5" x2="44.52" y2="44.5"/>
  <line class="cls-1" x1="46.13" y1="46.11" x2="48.41" y2="48.37"/>
  <line class="cls-1" x1="48.41" y1="48.37" x2="48.41" y2="54.05"/>
</svg>